<svg version="1.1" id="Layer_1" xmlns="http://www.w3.org/2000/svg" xmlns:xlink="http://www.w3.org/1999/xlink" x="0px" y="0px"
	 viewBox="0 0 213.333 203.071" style="enable-background:new 0 0 213.333 203.071;" xml:space="preserve">
<style type="text/css">
	.st0{fill:#BFD54C;}
	.st1{fill:none;}
	.st2{fill:#F0FCB4;}
	.st3{fill:#BFD83E;}
	.st4{fill:#414042;}
	.st5{fill:#FFFFFF;}
	.st6{fill:#899A30;}
	.st7{fill:#E8E8E8;}
</style>
<g id="XMLID_3_">
	<path id="XMLID_191_" class="st0" d="M83.247,163.536c5.616,0,10.388,3.642,12.106,8.684h24.71
		c1.718-5.042,6.489-8.684,12.105-8.684c5.616,0,10.388,3.642,12.106,8.684h1.909c4.687-4.111,8.853-84.046,8.853-84.046V66.148
		c0-0.715-0.459-1.346-1.117-1.535c-0.862-0.256-1.71-0.49-2.545-0.714c-7.928-2.185-15.865-3.828-23.598-4.885
		c-1.292-0.179-2.576-0.346-3.86-0.489c-5.198-0.597-10.509-0.942-15.79-1.027c-0.736-0.015-1.463-0.025-2.19-0.025
		c-0.434,0-0.867,0.004-1.301,0.013c-5.232,0.025-10.545,0.329-15.81,0.906c-1.231,0.131-2.452,0.285-3.673,0.452
		c-7.879,1.055-15.782,2.762-23.494,5.074c-0.656,0.187-1.263,0.37-1.868,0.565c-0.741,0.23-1.214,0.845-1.214,1.568v45.236v59.316
		c0,0.891,0.72,1.616,1.604,1.616h10.962C72.859,167.177,77.631,163.536,83.247,163.536z"/>
	<path id="XMLID_131_" class="st0" d="M205.704,39.623h-16.464c-0.438,0-0.795,0.357-0.795,0.795v16.464
		c0,0.438,0.357,0.795,0.795,0.795h16.464c0.438,0,0.794-0.357,0.794-0.795V40.419C206.499,39.98,206.143,39.623,205.704,39.623z"/>
	<path id="XMLID_132_" class="st0" d="M118.596,23.368c0.102-0.19,0.181-0.484-0.031-0.812l-9.949-15.358
		c-0.194-0.3-0.47-0.363-0.668-0.363c-0.197,0-0.473,0.063-0.667,0.363l-9.948,15.358c-0.212,0.328-0.135,0.623-0.031,0.812
		c0.103,0.19,0.307,0.416,0.698,0.416h19.897C118.287,23.783,118.492,23.557,118.596,23.368z"/>
	<path id="XMLID_133_" class="st0" d="M24.58,95.149c0-4.892-3.98-8.872-8.873-8.872c-4.892,0-8.873,3.98-8.873,8.872
		c0,4.892,3.98,8.873,8.873,8.873C20.6,104.021,24.58,100.041,24.58,95.149z"/>
	<path id="XMLID_4_" class="st1" d="M139.247,107.205v-8.659c0-3.178-1.807-6.11-4.606-7.468c0,0-31.954-9.446-58.708,1.833
		c-1.176,1.465-1.847,3.296-1.847,5.221v14.423c0,3.737,2.541,7.056,6.18,8.071c5.041,1.407,10.102,2.395,15.172,2.992
		C123.308,121.409,134.934,112.184,139.247,107.205z"/>
	<path id="XMLID_158_" class="st2" d="M15.196,88.917c0.654,0.99-0.549,1.439-1.836,2.289s-2.172,1.78-2.826,0.79
		c-0.654-0.99-0.14-2.482,1.147-3.333S14.542,87.927,15.196,88.917z"/>
	<path id="XMLID_29_" class="st1" d="M24.58,95.149c0-4.892-3.98-8.872-8.873-8.872s-8.873,3.98-8.873,8.872
		c0,4.892,3.98,8.873,8.873,8.873S24.58,100.041,24.58,95.149z"/>
	<path id="XMLID_32_" class="st1" d="M118.596,23.368c0.102-0.19,0.181-0.484-0.031-0.812l-9.949-15.358
		c-0.194-0.3-0.47-0.363-0.667-0.363c-0.197,0-0.473,0.063-0.667,0.363l-9.948,15.358c-0.212,0.328-0.135,0.623-0.031,0.812
		c0.103,0.19,0.307,0.415,0.698,0.415h19.897C118.287,23.783,118.492,23.557,118.596,23.368z"/>
	<path id="XMLID_33_" class="st1" d="M205.704,39.623h-16.464c-0.438,0-0.795,0.357-0.795,0.795v16.464
		c0,0.438,0.357,0.795,0.795,0.795h16.464c0.438,0,0.794-0.356,0.794-0.795V40.419C206.499,39.98,206.143,39.623,205.704,39.623z"/>
	<path id="XMLID_100_" class="st2" d="M88.824,58.392c-1.231,0.131-2.452,0.285-3.673,0.452c-7.879,1.055-15.782,2.762-23.494,5.074
		c-0.656,0.187-1.263,0.37-1.868,0.565c-0.741,0.23-1.214,0.845-1.214,1.568v45.236l7.638-37.642
		c2.642-7.594,39.722-16.171,39.722-16.171c-0.434,0-0.867,0.004-1.301,0.013C99.403,57.511,94.089,57.815,88.824,58.392z"/>
	<path id="XMLID_5_" class="st1" d="M17.569,100.55c2.708-2.274,4.112-5.725,5.123-9.114c0.125-0.418,0.243-0.852,0.336-1.29
		c-1.6-2.334-4.284-3.869-7.321-3.869c-4.892,0-8.873,3.98-8.873,8.872c0,3.738,2.327,6.937,5.607,8.242
		C14.262,102.622,16.064,101.813,17.569,100.55z"/>
	<path id="XMLID_6_" class="st1" d="M118.596,23.368c0.102-0.19,0.181-0.484-0.031-0.812l-9.949-15.358
		c-0.194-0.3-0.47-0.363-0.667-0.363c-0.197,0-0.473,0.063-0.667,0.363l-9.948,15.358c-0.212,0.328-0.135,0.623-0.031,0.812
		c0.103,0.19,0.307,0.415,0.698,0.415h19.897C118.287,23.783,118.492,23.557,118.596,23.368z"/>
	<path id="XMLID_13_" class="st1" d="M205.704,39.623h-16.464c-0.438,0-0.795,0.357-0.795,0.795v16.464
		c0,0.438,0.357,0.795,0.795,0.795h16.464c0.438,0,0.794-0.356,0.794-0.795V40.419C206.499,39.98,206.143,39.623,205.704,39.623z"/>
	<path id="XMLID_15_" class="st1" d="M118.596,23.368c0.102-0.19,0.181-0.484-0.031-0.812l-9.949-15.358
		c-0.194-0.3-0.47-0.363-0.667-0.363c-0.197,0-0.473,0.063-0.667,0.363l-9.948,15.358c-0.212,0.328-0.135,0.623-0.031,0.812
		c0.103,0.19,0.307,0.415,0.698,0.415h19.897C118.287,23.783,118.492,23.557,118.596,23.368z"/>
	<path id="XMLID_16_" class="st1" d="M189.241,57.677h1.126c0.092-0.04,0.184-0.083,0.275-0.123c4.374-1.92,8.638-4.404,11.639-8.12
		c2.175-2.694,3.59-5.985,4.099-9.408c-0.138-0.236-0.383-0.403-0.675-0.403h-16.464c-0.438,0-0.795,0.357-0.795,0.795v16.464
		C188.446,57.32,188.803,57.677,189.241,57.677z"/>
	<path id="XMLID_17_" class="st1" d="M24.58,95.149c0-1.855-0.574-3.577-1.552-5.003c-1.6-2.334-4.284-3.869-7.321-3.869
		c-4.892,0-8.873,3.98-8.873,8.872c0,3.738,2.327,6.937,5.607,8.242c1.012,0.403,2.112,0.631,3.266,0.631
		C20.6,104.021,24.58,100.041,24.58,95.149z"/>
	<path id="XMLID_8_" class="st1" d="M118.596,23.368c0.102-0.19,0.181-0.484-0.031-0.812l-9.949-15.358
		c-0.194-0.3-0.47-0.363-0.667-0.363c-0.197,0-0.473,0.063-0.667,0.363l-9.948,15.358c-0.212,0.328-0.135,0.623-0.031,0.812
		c0.103,0.19,0.307,0.415,0.698,0.415h19.897C118.287,23.783,118.492,23.557,118.596,23.368z"/>
	<path id="XMLID_104_" class="st1" d="M24.58,95.149c0-1.855-0.574-3.577-1.552-5.003c-1.6-2.334-4.284-3.869-7.321-3.869
		c-4.892,0-8.873,3.98-8.873,8.872c0,3.738,2.327,6.937,5.607,8.242c1.012,0.403,2.112,0.631,3.266,0.631
		C20.6,104.021,24.58,100.041,24.58,95.149z"/>
	<path id="XMLID_107_" class="st1" d="M205.704,39.623h-8.38c-0.567,0.047-1.129,0.123-1.684,0.254
		c-1.18,0.28-2.286,0.801-3.382,1.32c-0.46,0.217-0.932,0.444-1.277,0.817c-0.292,0.316-0.474,0.715-0.638,1.113
		c-0.91,2.199-1.428,4.534-1.898,6.87v6.885c0,0.438,0.357,0.795,0.795,0.795h1.126h15.338c0.438,0,0.794-0.356,0.794-0.795V40.419
		c0-0.146-0.05-0.275-0.119-0.393C206.242,39.79,205.997,39.623,205.704,39.623z"/>
	<path id="XMLID_130_" class="st2" d="M190.982,42.014c0.345-0.373,0.817-0.599,1.277-0.817c1.096-0.518,2.202-1.04,3.382-1.32
		c0.554-0.131,1.117-0.207,1.684-0.254h-8.084c-0.438,0-0.795,0.357-0.795,0.795v9.578c0.471-2.336,0.988-4.671,1.898-6.87
		C190.508,42.729,190.69,42.329,190.982,42.014z"/>
	<path id="XMLID_23_" class="st1" d="M111.984,22.656c1.457-0.288,3.157-0.777,3.641-2.181c0.307-0.89,0.002-1.862-0.302-2.753
		c-0.041-0.119-0.081-0.238-0.122-0.357l-6.586-10.167c-0.194-0.3-0.47-0.363-0.667-0.363c-0.197,0-0.473,0.063-0.667,0.363
		l-9.948,15.358c-0.212,0.328-0.135,0.623-0.031,0.812c0.103,0.19,0.307,0.415,0.698,0.415h8.282
		C108.183,23.407,110.084,23.032,111.984,22.656z"/>
	<path id="XMLID_167_" class="st1" d="M24.58,95.149c0-1.855-0.574-3.577-1.552-5.003c-1.6-2.334-4.284-3.869-7.321-3.869
		c-4.892,0-8.873,3.98-8.873,8.872c0,3.738,2.327,6.937,5.607,8.242c1.012,0.403,2.112,0.631,3.266,0.631
		C20.6,104.021,24.58,100.041,24.58,95.149z"/>
	<path id="XMLID_172_" class="st1" d="M205.704,39.623h-8.38h-8.084c-0.438,0-0.795,0.357-0.795,0.795v9.578v6.885
		c0,0.438,0.357,0.795,0.795,0.795h1.126h15.338c0.438,0,0.794-0.356,0.794-0.795V40.419c0-0.146-0.05-0.275-0.119-0.393
		C206.242,39.79,205.997,39.623,205.704,39.623z"/>
	<path id="XMLID_68_" class="st1" d="M118.596,23.368c0.102-0.19,0.181-0.484-0.031-0.812l-3.363-5.191l-2.848-4.396
		c-0.236-0.16-0.474-0.318-0.718-0.464c-1.051-0.632-2.316-1.088-3.495-0.752c-0.88,0.251-1.58,0.904-2.238,1.54
		c-2.459,2.379-4.846,4.833-7.156,7.356c-0.121,0.132-0.264,0.265-0.416,0.368l-0.997,1.54c-0.212,0.328-0.135,0.623-0.031,0.812
		c0.103,0.19,0.307,0.415,0.698,0.415h8.282h11.615C118.287,23.783,118.492,23.557,118.596,23.368z"/>
	<path id="XMLID_134_" class="st1" d="M24.58,95.149c0-1.855-0.574-3.577-1.552-5.003c-1.6-2.334-4.284-3.869-7.321-3.869
		c-4.892,0-8.873,3.98-8.873,8.872c0,3.738,2.327,6.937,5.607,8.242c1.012,0.403,2.112,0.631,3.266,0.631
		C20.6,104.021,24.58,100.041,24.58,95.149z"/>
	<path id="XMLID_154_" class="st1" d="M205.704,39.623h-8.38h-8.084c-0.438,0-0.795,0.357-0.795,0.795v9.578v6.885
		c0,0.438,0.357,0.795,0.795,0.795h1.126h15.338c0.438,0,0.794-0.356,0.794-0.795V40.419c0-0.146-0.05-0.275-0.119-0.393
		C206.242,39.79,205.997,39.623,205.704,39.623z"/>
	<path id="XMLID_161_" class="st2" d="M105.902,13.292c0.658-0.636,1.358-1.289,2.238-1.54c1.179-0.336,2.444,0.12,3.495,0.752
		c0.244,0.147,0.482,0.304,0.718,0.464l-3.738-5.771c-0.194-0.3-0.47-0.363-0.667-0.363c-0.197,0-0.473,0.063-0.667,0.363
		l-8.951,13.819c0.152-0.103,0.295-0.235,0.416-0.368C101.057,18.124,103.444,15.671,105.902,13.292z"/>
	<path id="XMLID_9_" class="st1" d="M24.58,95.149c0-1.855-0.574-3.577-1.552-5.003c-1.6-2.334-4.284-3.869-7.321-3.869
		c-4.892,0-8.873,3.98-8.873,8.872c0,3.738,2.327,6.937,5.607,8.242c1.012,0.403,2.112,0.631,3.266,0.631
		C20.6,104.021,24.58,100.041,24.58,95.149z"/>
	<path id="XMLID_10_" class="st1" d="M117.897,23.783c0.391,0,0.595-0.226,0.699-0.415c0.102-0.19,0.181-0.484-0.031-0.812
		l-3.363-5.191l-2.848-4.396l-3.738-5.771c-0.194-0.3-0.47-0.363-0.667-0.363c-0.197,0-0.473,0.063-0.667,0.363l-8.951,13.819
		l-0.997,1.54c-0.212,0.328-0.135,0.623-0.031,0.812c0.103,0.19,0.307,0.415,0.698,0.415h8.282H117.897z"/>
	<path id="XMLID_18_" class="st1" d="M205.704,39.623h-8.38h-8.084c-0.438,0-0.795,0.357-0.795,0.795v9.578v6.885
		c0,0.438,0.357,0.795,0.795,0.795h1.126h15.338c0.438,0,0.794-0.356,0.794-0.795V40.419c0-0.146-0.05-0.275-0.119-0.393
		C206.242,39.79,205.997,39.623,205.704,39.623z"/>
	<path id="XMLID_332_" class="st3" d="M88.903,192.948c-0.425-0.238-0.902-0.461-1.524-0.704l-0.157-0.057
		c-0.307-0.112-0.62-0.212-0.993-0.314c-0.119-0.031-0.237-0.064-0.368-0.094c-0.283-0.066-0.573-0.116-0.876-0.161l-0.424-0.068
		c-0.45-0.051-0.868-0.077-1.26-0.078h-0.094c-0.397,0.001-0.814,0.027-1.273,0.078l-0.422,0.067
		c-0.298,0.045-0.593,0.096-0.888,0.163l-0.412,0.107c-0.316,0.086-0.625,0.184-0.924,0.294l-0.285,0.102
		c-0.505,0.199-0.979,0.423-1.411,0.663c-2.082,1.166-3.716,2.92-4.741,4.985c-0.271,0.546,0.129,1.191,0.738,1.191h19.313
		c0.609,0,1.009-0.645,0.738-1.191C92.617,195.868,90.984,194.114,88.903,192.948z"/>
	<path id="XMLID_14_" class="st2" d="M79.263,195.265c-1.297,0.842-2.335,1.593-2.766,0.93c-0.43-0.663,0.272-1.884,1.57-2.725
		s2.698-0.986,3.128-0.323C81.626,193.811,80.56,194.423,79.263,195.265z"/>
	<path id="XMLID_11_" class="st1" d="M89.223,197.999c0.358-0.077,0.724-0.151,1.04-0.335c0.316-0.184,0.58-0.502,0.595-0.867
		c0.012-0.301-0.141-0.583-0.298-0.84c-0.922-1.509-2.156-2.823-3.59-3.856c-0.23-0.078-0.467-0.153-0.741-0.228
		c-0.119-0.031-0.237-0.064-0.368-0.094c-0.283-0.066-0.573-0.116-0.876-0.161l-0.424-0.068c-0.45-0.051-0.868-0.077-1.26-0.078
		h-0.094c-0.397,0.001-0.814,0.027-1.273,0.078l-0.422,0.067c-0.298,0.045-0.593,0.096-0.888,0.163l-0.412,0.107
		c-0.316,0.086-0.625,0.184-0.924,0.294l-0.285,0.102c-0.504,0.199-0.979,0.423-1.411,0.663c-2.082,1.166-3.716,2.92-4.741,4.985
		c-0.271,0.546,0.129,1.191,0.738,1.191h11.624C86.532,198.683,87.865,198.29,89.223,197.999z"/>
	<path id="XMLID_28_" class="st4" d="M90.833,189.504c-0.608-0.34-1.242-0.636-1.897-0.893c-0.12-0.047-0.243-0.089-0.365-0.133
		c-0.41-0.15-0.827-0.283-1.252-0.398c-0.189-0.051-0.377-0.102-0.569-0.146c-0.384-0.089-0.775-0.158-1.17-0.217
		c-0.193-0.029-0.383-0.066-0.578-0.088c-0.559-0.063-1.126-0.101-1.702-0.103c-0.018,0-0.036-0.003-0.054-0.003
		c-0.017,0-0.033,0.002-0.05,0.002c-0.577,0.002-1.145,0.04-1.706,0.103c-0.194,0.022-0.383,0.059-0.575,0.088
		c-0.396,0.06-0.788,0.129-1.173,0.218c-0.191,0.044-0.379,0.095-0.567,0.146c-0.425,0.115-0.842,0.249-1.252,0.398
		c-0.122,0.045-0.246,0.087-0.366,0.134c-0.653,0.257-1.287,0.552-1.893,0.891c-4.519,2.531-7.65,7.247-7.944,12.722
		c-0.025,0.462,0.361,0.848,0.824,0.848H97.95c0.463,0,0.849-0.386,0.824-0.848C98.48,196.75,95.351,192.035,90.833,189.504z
		 M72.852,197.932c1.024-2.064,2.659-3.819,4.741-4.985c0.431-0.24,0.906-0.464,1.411-0.663l0.285-0.102
		c0.299-0.111,0.608-0.208,0.924-0.294l0.412-0.107c0.294-0.067,0.589-0.118,0.888-0.163l0.422-0.067
		c0.459-0.051,0.875-0.077,1.273-0.078h0.094c0.392,0.001,0.81,0.027,1.26,0.078l0.424,0.068c0.303,0.045,0.593,0.095,0.876,0.161
		c0.131,0.03,0.249,0.063,0.368,0.094c0.274,0.074,0.511,0.15,0.741,0.228c0.084,0.029,0.17,0.056,0.252,0.086l0.157,0.057
		c0.622,0.243,1.099,0.467,1.524,0.704c2.081,1.166,3.714,2.919,4.739,4.983c0.271,0.546-0.129,1.191-0.738,1.191h-7.689H73.591
		C72.981,199.122,72.581,198.478,72.852,197.932z"/>
	<path id="XMLID_315_" class="st4" d="M126.478,188.61c0.121-0.048,0.244-0.089,0.366-0.134
		C126.722,188.521,126.599,188.562,126.478,188.61z"/>
	<path id="XMLID_308_" class="st4" d="M137.492,188.477c0.122,0.044,0.245,0.086,0.365,0.133
		C137.736,188.562,137.614,188.521,137.492,188.477z"/>
	<path id="XMLID_295_" class="st5" d="M135.671,187.932c0.191,0.044,0.38,0.095,0.569,0.146
		C136.051,188.027,135.862,187.976,135.671,187.932z"/>
	<path id="XMLID_284_" class="st4" d="M135.671,187.932c0.191,0.044,0.38,0.095,0.569,0.146
		C136.051,188.027,135.862,187.976,135.671,187.932z"/>
	<path id="XMLID_277_" class="st4" d="M128.096,188.078c0.188-0.051,0.376-0.102,0.567-0.146
		C128.473,187.976,128.285,188.027,128.096,188.078z"/>
	<path id="XMLID_272_" class="st5" d="M132.222,187.524c-0.018,0-0.035-0.003-0.053-0.003c-0.017,0-0.033,0.003-0.05,0.003
		c0.017,0,0.033-0.002,0.05-0.002C132.186,187.521,132.203,187.524,132.222,187.524z"/>
	<path id="XMLID_259_" class="st4" d="M132.222,187.524c-0.018,0-0.035-0.003-0.053-0.003c-0.017,0-0.033,0.003-0.05,0.003
		c0.017,0,0.033-0.002,0.05-0.002C132.186,187.521,132.203,187.524,132.222,187.524z"/>
	<path id="XMLID_236_" class="st4" d="M129.837,187.715c0.192-0.029,0.381-0.066,0.575-0.088
		C130.218,187.649,130.029,187.686,129.837,187.715z"/>
	<path id="XMLID_166_" class="st4" d="M133.923,187.627c0.195,0.022,0.385,0.059,0.578,0.088
		C134.309,187.686,134.118,187.649,133.923,187.627z"/>
	<path id="XMLID_64_" class="st3" d="M137.824,192.948c-0.425-0.238-0.902-0.461-1.524-0.704l-0.157-0.057
		c-0.307-0.112-0.62-0.212-0.993-0.314c-0.119-0.031-0.237-0.064-0.368-0.094c-0.283-0.066-0.573-0.116-0.876-0.161l-0.424-0.068
		c-0.45-0.051-0.868-0.077-1.26-0.078h-0.094c-0.397,0.001-0.814,0.027-1.273,0.078l-0.422,0.067
		c-0.298,0.045-0.593,0.096-0.888,0.163l-0.412,0.107c-0.316,0.086-0.625,0.184-0.924,0.294l-0.285,0.102
		c-0.505,0.199-0.979,0.423-1.411,0.663c-2.082,1.166-3.716,2.92-4.741,4.985c-0.271,0.546,0.129,1.191,0.738,1.191h19.313
		c0.609,0,1.009-0.645,0.738-1.191C141.538,195.868,139.905,194.114,137.824,192.948z"/>
	<path id="XMLID_57_" class="st2" d="M128.184,195.265c-1.297,0.842-2.335,1.593-2.766,0.93c-0.43-0.663,0.272-1.884,1.57-2.725
		c1.297-0.842,2.698-0.986,3.128-0.323C130.547,193.811,129.481,194.423,128.184,195.265z"/>
	<path id="XMLID_24_" class="st1" d="M138.144,197.999c0.358-0.077,0.724-0.151,1.04-0.335c0.316-0.184,0.58-0.502,0.595-0.867
		c0.012-0.301-0.141-0.583-0.298-0.84c-0.922-1.509-2.155-2.823-3.59-3.856c-0.23-0.078-0.467-0.153-0.741-0.228
		c-0.119-0.031-0.237-0.064-0.368-0.094c-0.283-0.066-0.573-0.116-0.876-0.161l-0.424-0.068c-0.45-0.051-0.868-0.077-1.26-0.078
		h-0.094c-0.397,0.001-0.814,0.027-1.273,0.078l-0.422,0.067c-0.298,0.045-0.593,0.096-0.888,0.163l-0.412,0.107
		c-0.316,0.086-0.625,0.184-0.924,0.294l-0.285,0.102c-0.505,0.199-0.979,0.423-1.411,0.663c-2.082,1.166-3.716,2.92-4.741,4.985
		c-0.271,0.546,0.129,1.191,0.738,1.191h11.624C135.453,198.683,136.786,198.29,138.144,197.999z"/>
	<path id="XMLID_187_" class="st1" d="M22.692,91.436c0.125-0.418,0.243-0.852,0.336-1.29c-1.6-2.334-4.284-3.869-7.321-3.869
		c-4.892,0-8.873,3.98-8.873,8.872c0,3.738,2.327,6.937,5.607,8.242c1.821-0.768,3.623-1.577,5.128-2.841
		C20.277,98.276,21.681,94.825,22.692,91.436z"/>
	<path id="XMLID_189_" class="st1" d="M202.281,49.434c2.175-2.694,3.59-5.985,4.099-9.408c-0.138-0.236-0.383-0.403-0.675-0.403
		h-8.38h-8.084c-0.438,0-0.795,0.357-0.795,0.795v9.578v6.885c0,0.438,0.357,0.795,0.795,0.795h1.126
		c0.092-0.04,0.184-0.083,0.275-0.123C195.016,55.634,199.28,53.15,202.281,49.434z"/>
	<path id="XMLID_190_" class="st1" d="M115.626,20.474c0.307-0.89,0.002-1.862-0.302-2.753c-0.041-0.119-0.081-0.238-0.122-0.357
		l-2.848-4.396l-3.738-5.771c-0.194-0.3-0.47-0.363-0.667-0.363c-0.197,0-0.473,0.063-0.667,0.363l-8.951,13.819l-0.997,1.54
		c-0.212,0.328-0.135,0.623-0.031,0.812c0.103,0.19,0.307,0.415,0.698,0.415h8.282c1.901-0.376,3.802-0.752,5.703-1.128
		C113.442,22.367,115.141,21.879,115.626,20.474z"/>
	<path id="XMLID_193_" class="st4" d="M120.063,172.219h-24.71c0.44,1.292,0.69,2.672,0.69,4.111l0,3.043h23.331l0-3.043
		C119.373,174.891,119.622,173.512,120.063,172.219z"/>
	<path id="XMLID_196_" class="st4" d="M205.704,32.789h-16.464c-4.207,0-7.63,3.423-7.63,7.63v16.464
		c0,4.207,3.423,7.629,7.63,7.629h4.245v20.761c0,18.108-13.711,33.066-31.296,35.055v-54.18c0-3.882-2.583-7.339-6.275-8.405
		c-0.893-0.264-1.799-0.516-2.665-0.748c-8.209-2.263-16.452-3.968-24.497-5.068c-1.35-0.187-2.699-0.362-4.033-0.511
		c-4.216-0.484-8.502-0.805-12.784-0.967V30.618h5.962c2.798,0,5.366-1.527,6.702-3.985c1.337-2.458,1.223-5.444-0.299-7.792
		l-9.948-15.358C112.94,1.302,110.546,0,107.948,0c-2.597,0-4.991,1.302-6.404,3.482L91.596,18.84
		c-1.521,2.348-1.636,5.334-0.299,7.792c1.337,2.458,3.905,3.985,6.703,3.985h5.961v19.725c-5.249,0.044-10.596,0.354-15.905,0.937
		c-1.29,0.137-2.579,0.3-3.863,0.474c-8.248,1.105-16.51,2.888-24.539,5.297c-0.687,0.194-1.374,0.402-2.023,0.611
		c-3.714,1.154-6.21,4.525-6.21,8.389v75.39c-16.496-1.66-29.67-14.73-31.503-31.175c6.62-1.847,11.496-7.916,11.496-15.117
		c0-8.661-7.046-15.707-15.707-15.707S0,86.488,0,95.149c0,7.352,5.084,13.522,11.915,15.225
		c1.936,20.794,18.648,37.353,39.506,39.061v21.168c0,4.836,3.929,8.77,8.758,8.77h7.517h2.755l0-3.043
		c0-1.439,0.25-2.819,0.69-4.111H60.179c-0.884,0-1.604-0.725-1.604-1.616v-59.316V66.051c0-0.723,0.472-1.338,1.214-1.568
		c0.606-0.195,1.212-0.378,1.868-0.565c7.712-2.313,15.615-4.02,23.494-5.074c1.221-0.166,2.442-0.32,3.673-0.452
		c5.265-0.577,10.578-0.881,15.81-0.906c0.434-0.009,0.867-0.013,1.301-0.013c0.727,0,1.453,0.01,2.19,0.025
		c5.281,0.085,10.592,0.43,15.79,1.027c1.284,0.143,2.569,0.31,3.86,0.489c7.733,1.057,15.67,2.7,23.598,4.885
		c0.835,0.224,1.683,0.458,2.545,0.714c0.657,0.189,1.117,0.819,1.117,1.535v22.025v82.43c0,0.891-0.724,1.616-1.615,1.616h-7.238
		h-1.909c0.44,1.292,0.69,2.672,0.69,4.111l0,3.043h5.125h3.332c4.836,0,8.769-3.935,8.769-8.77v-42.261
		c21.99-2.022,39.27-20.561,39.27-43.069V64.512h4.245c4.207,0,7.629-3.422,7.629-7.629V40.419
		C213.333,36.212,209.911,32.789,205.704,32.789z M12.441,103.391c-3.279-1.304-5.607-4.503-5.607-8.242
		c0-4.892,3.98-8.872,8.873-8.872c3.037,0,5.721,1.535,7.321,3.869c0.977,1.426,1.552,3.148,1.552,5.003
		c0,4.892-3.98,8.873-8.873,8.873C14.553,104.021,13.453,103.793,12.441,103.391z M106.282,23.783H98
		c-0.39,0-0.595-0.226-0.698-0.415c-0.103-0.189-0.181-0.484,0.031-0.812l0.997-1.54l8.951-13.819c0.194-0.3,0.47-0.363,0.667-0.363
		c0.197,0,0.473,0.063,0.667,0.363l3.738,5.771l2.848,4.396l3.363,5.191c0.212,0.328,0.133,0.622,0.031,0.812
		c-0.103,0.19-0.308,0.415-0.699,0.415H106.282z M206.499,56.882c0,0.438-0.356,0.795-0.794,0.795h-15.338h-1.126
		c-0.438,0-0.795-0.356-0.795-0.795v-6.885v-9.578c0-0.438,0.357-0.795,0.795-0.795h8.084h8.38c0.292,0,0.538,0.167,0.675,0.403
		c0.069,0.118,0.119,0.247,0.119,0.393V56.882z"/>
	<path id="XMLID_217_" class="st4" d="M92.093,176.33c0-4.886-3.961-8.846-8.846-8.846c-4.886,0-8.846,3.961-8.846,8.846v10.12
		c0,0.007,0.001,0.013,0.001,0.02c2.639-1.412,5.649-2.218,8.846-2.218c3.196,0,6.206,0.806,8.845,2.218
		c0-0.007,0.001-0.013,0.001-0.02V176.33z"/>
	<path id="XMLID_225_" class="st4" d="M141.014,176.33c0-4.886-3.961-8.846-8.846-8.846c-4.886,0-8.846,3.961-8.846,8.846v10.12
		c0,0.007,0.001,0.013,0.001,0.02c2.639-1.412,5.649-2.218,8.846-2.218c3.196,0,6.206,0.806,8.845,2.218
		c0-0.007,0.001-0.013,0.001-0.02V176.33z"/>
	<path id="XMLID_226_" class="st6" d="M153.42,172.219c0.891,0,1.615-0.725,1.615-1.616v-82.43c0,0-4.167,79.935-8.853,84.046
		H153.42z"/>
	<path id="XMLID_227_" class="st6" d="M24.58,95.149c0-1.855-0.574-3.577-1.552-5.003c-0.093,0.438-0.211,0.872-0.336,1.29
		c-1.011,3.389-2.415,6.84-5.123,9.114c-1.505,1.264-3.307,2.073-5.128,2.841c1.012,0.403,2.112,0.631,3.266,0.631
		C20.6,104.021,24.58,100.041,24.58,95.149z"/>
	<path id="XMLID_228_" class="st6" d="M202.281,49.434c-3.001,3.716-7.265,6.2-11.639,8.12c-0.091,0.04-0.183,0.083-0.275,0.123
		h15.338c0.438,0,0.794-0.356,0.794-0.795V40.419c0-0.146-0.05-0.275-0.119-0.393C205.871,43.449,204.456,46.74,202.281,49.434z"/>
	<path id="XMLID_229_" class="st6" d="M118.596,23.368c0.102-0.19,0.181-0.484-0.031-0.812l-3.363-5.191
		c0.041,0.119,0.081,0.238,0.122,0.357c0.304,0.891,0.609,1.863,0.302,2.753c-0.484,1.404-2.184,1.893-3.641,2.181
		c-1.901,0.376-3.802,0.752-5.703,1.128h11.615C118.287,23.783,118.492,23.557,118.596,23.368z"/>
	<path id="XMLID_230_" class="st6" d="M88.903,192.948c-0.426-0.238-0.902-0.461-1.524-0.704l-0.157-0.057
		c-0.082-0.03-0.168-0.057-0.252-0.086c1.434,1.033,2.668,2.347,3.59,3.856c0.157,0.257,0.311,0.539,0.298,0.84
		c-0.015,0.366-0.279,0.684-0.595,0.867c-0.316,0.184-0.683,0.258-1.04,0.335c-1.358,0.291-2.691,0.684-4.008,1.123h7.689
		c0.609,0,1.009-0.645,0.738-1.191C92.617,195.868,90.984,194.114,88.903,192.948z"/>
	<path id="XMLID_232_" class="st6" d="M137.824,192.948c-0.425-0.238-0.902-0.461-1.525-0.704l-0.157-0.057
		c-0.082-0.03-0.168-0.057-0.252-0.086c1.434,1.033,2.668,2.347,3.59,3.856c0.157,0.257,0.311,0.539,0.298,0.84
		c-0.015,0.366-0.279,0.684-0.595,0.867c-0.316,0.184-0.683,0.258-1.04,0.335c-1.358,0.291-2.691,0.684-4.008,1.123h7.689
		c0.61,0,1.009-0.645,0.738-1.191C141.538,195.868,139.905,194.114,137.824,192.948z"/>
	<path id="XMLID_58_" class="st4" d="M139.754,189.504c-0.608-0.34-1.242-0.636-1.897-0.893c-0.12-0.047-0.243-0.089-0.365-0.133
		c-0.41-0.15-0.827-0.283-1.252-0.398c-0.189-0.051-0.377-0.102-0.569-0.146c-0.384-0.089-0.775-0.158-1.17-0.217
		c-0.193-0.029-0.383-0.066-0.578-0.088c-0.559-0.063-1.126-0.101-1.702-0.103c-0.018,0-0.036-0.003-0.054-0.003
		c-0.017,0-0.033,0.002-0.05,0.002c-0.577,0.002-1.145,0.04-1.706,0.103c-0.194,0.022-0.383,0.059-0.575,0.088
		c-0.396,0.06-0.788,0.129-1.173,0.218c-0.191,0.044-0.379,0.095-0.567,0.146c-0.425,0.115-0.842,0.249-1.252,0.398
		c-0.122,0.045-0.246,0.087-0.366,0.134c-0.653,0.257-1.287,0.552-1.893,0.891c-4.519,2.531-7.65,7.247-7.944,12.722
		c-0.025,0.462,0.361,0.848,0.824,0.848h29.407c0.463,0,0.849-0.386,0.824-0.848C147.401,196.75,144.272,192.035,139.754,189.504z
		 M121.773,197.932c1.024-2.064,2.659-3.819,4.741-4.985c0.431-0.24,0.906-0.464,1.411-0.663l0.285-0.102
		c0.299-0.111,0.608-0.208,0.924-0.294l0.412-0.107c0.294-0.067,0.589-0.118,0.888-0.163l0.422-0.067
		c0.459-0.051,0.875-0.077,1.273-0.078h0.094c0.392,0.001,0.81,0.027,1.26,0.078l0.424,0.068c0.303,0.045,0.593,0.095,0.876,0.161
		c0.131,0.03,0.249,0.063,0.368,0.094c0.274,0.074,0.511,0.15,0.741,0.228c0.084,0.029,0.17,0.056,0.252,0.086l0.157,0.057
		c0.622,0.243,1.099,0.467,1.525,0.704c2.081,1.166,3.714,2.919,4.739,4.983c0.271,0.546-0.129,1.191-0.738,1.191h-7.689h-11.624
		C121.902,199.122,121.502,198.478,121.773,197.932z"/>
	<path id="XMLID_164_" class="st5" d="M133.775,123.163c-18.072,5.043-36.145,5.043-54.217,0c-4.775-1.332-8.104-5.649-8.104-10.607
		V98.134c0-4.075,2.272-7.791,5.86-9.723c18.29-9.85,37.783-9.75,58.477,0.3c3.748,1.82,6.088,5.669,6.088,9.836v14.009
		C141.879,117.514,138.55,121.831,133.775,123.163z"/>
	<circle id="XMLID_108_" class="st4" cx="93.973" cy="104.021" r="5.964"/>
	<circle id="XMLID_99_" class="st4" cx="123.803" cy="104.021" r="5.964"/>
	<g id="XMLID_20_">
		<path id="XMLID_94_" class="st7" d="M95.438,123.62c12.55,1.478,25.152,0.491,37.629-2.992h0.001
			c3.638-1.015,6.179-4.334,6.179-8.071v-5.351C134.934,112.184,123.308,121.409,95.438,123.62z"/>
		<path id="XMLID_22_" class="st7" d="M134.641,91.079c-10.156-4.933-19.872-7.4-29.28-7.4c-9.184,0-18.073,2.35-26.799,7.049
			c-1.035,0.558-1.923,1.305-2.629,2.184C102.687,81.633,134.641,91.079,134.641,91.079z"/>
	</g>
	<path id="XMLID_93_" class="st4" d="M136.942,86.343c-21.4-10.394-41.883-10.477-60.876-0.25c-4.469,2.406-7.244,7.02-7.244,12.04
		v14.423c0,6.09,4.124,11.495,10.029,13.142c9.229,2.575,18.523,3.863,27.816,3.863c9.294,0,18.587-1.288,27.815-3.863
		c5.905-1.647,10.03-7.052,10.03-13.142v-14.01C144.512,93.367,141.54,88.576,136.942,86.343z M74.086,112.556V98.133
		c0-1.925,0.67-3.756,1.847-5.221c0.706-0.879,1.594-1.627,2.629-2.184c8.726-4.699,17.615-7.049,26.799-7.049
		c9.407,0,19.124,2.467,29.28,7.4c2.798,1.358,4.606,4.289,4.606,7.468v8.659v5.351c0,3.737-2.541,7.056-6.179,8.071h-0.001
		c-12.477,3.483-25.079,4.471-37.629,2.992c-5.07-0.597-10.131-1.586-15.172-2.992C76.627,119.612,74.086,116.293,74.086,112.556z"
		/>
</g>
</svg>
