<svg version="1.1" id="Layer_1" xmlns="http://www.w3.org/2000/svg" xmlns:xlink="http://www.w3.org/1999/xlink" x="0px" y="0px"
	 viewBox="0 0 205.524 214.829" style="enable-background:new 0 0 205.524 214.829;" xml:space="preserve">
<style type="text/css">
	.st0{fill:#CDCFD5;}
	.st1{fill:#414042;}
	.st2{fill:none;}
	.st3{fill:#F8F9FC;}
	.st4{fill:#FFFFFF;}
	.st5{fill:#94959A;}
	.st6{fill:#E8E8E8;}
</style>
<g id="XMLID_1_">
	<path id="XMLID_675_" class="st0" d="M80.965,142.744c4.252,0,7.864,2.757,9.165,6.574h18.707c1.3-3.817,4.913-6.574,9.164-6.574
		c4.252,0,7.864,2.757,9.165,6.574h1.445c3.548-3.112,6.702-63.628,6.702-63.628V69.016c0-0.541-0.348-1.019-0.846-1.162
		c-0.653-0.194-1.294-0.371-1.927-0.541c-6.002-1.654-12.011-2.898-17.865-3.698c-0.978-0.136-1.951-0.262-2.922-0.37
		c-3.935-0.452-7.956-0.713-11.954-0.777c-0.558-0.011-1.107-0.019-1.658-0.019c-0.328,0-0.656,0.003-0.985,0.01
		c-3.961,0.019-7.983,0.249-11.969,0.686c-0.932,0.099-1.857,0.216-2.781,0.342c-5.965,0.798-11.948,2.091-17.786,3.842
		c-0.496,0.142-0.956,0.28-1.414,0.427c-0.561,0.174-0.919,0.64-0.919,1.187v34.247v44.906c0,0.675,0.545,1.224,1.214,1.224h8.299
		C73.101,145.501,76.714,142.744,80.965,142.744z"/>
	<path id="XMLID_672_" class="st1" d="M1.924,214.791c1.04,0,1.887-0.847,1.887-1.924v-23.248c0-1.041-0.847-1.887-1.887-1.887
		c-1.077,0-1.924,0.847-1.924,1.887v23.248C0,213.944,0.847,214.791,1.924,214.791z"/>
	<path id="XMLID_669_" class="st1" d="M15.783,189.541v4.235c0,1.077,0.693,1.924,1.732,1.924c1.077,0,1.77-0.808,1.77-1.886v-4.235
		c0-1.039-0.693-1.924-1.77-1.962C16.514,187.617,15.783,188.502,15.783,189.541z"/>
	<path id="XMLID_666_" class="st1" d="M50.772,195.507c-2.309,0-4.388,1.001-5.812,2.656c-1.424-1.655-3.503-2.656-5.812-2.656
		c-4.273,0-7.736,3.464-7.736,7.699v9.699c0,1.077,0.847,1.924,1.924,1.924c1.04,0,1.886-0.847,1.886-1.924v-9.699
		c0-2.156,1.77-3.888,3.926-3.888s3.888,1.732,3.888,3.888v9.699c0,1.077,0.885,1.924,1.925,1.924c1.039,0,1.886-0.847,1.886-1.924
		v-9.699c0-2.156,1.77-3.888,3.926-3.888s3.927,1.732,3.927,3.888c0,0.076,0,0.115,0,0.153c0,0.078,0,0.116,0,0.193v9.354
		c0,1.077,0.847,1.924,1.886,1.924c1.039,0,1.925-0.847,1.925-1.924v-9.354c0-0.076,0-0.115-0.039-0.193
		c0.039-0.038,0.039-0.076,0.039-0.153C58.509,198.971,55.044,195.507,50.772,195.507z"/>
	<path id="XMLID_663_" class="st1" d="M101.241,214.791c1.039,0,1.886-0.847,1.886-1.924v-21.286h5.851
		c1.039,0,1.886-0.847,1.886-1.886c0-1.077-0.847-1.924-1.886-1.924H93.504c-1.077,0-1.924,0.847-1.924,1.924
		c0,1.039,0.847,1.886,1.924,1.886h5.812v21.286C99.317,213.944,100.163,214.791,101.241,214.791z"/>
	<path id="XMLID_655_" class="st1" d="M128.611,214.752c5.35,0,9.661-4.349,9.661-9.661c0-5.35-4.311-9.661-9.661-9.661
		c-5.312,0-9.661,4.311-9.661,9.661C118.95,210.403,123.299,214.752,128.611,214.752z M128.611,199.24
		c3.233,0,5.851,2.618,5.851,5.851c0,3.194-2.618,5.85-5.851,5.85c-3.234,0-5.851-2.656-5.851-5.85
		C122.761,201.858,125.378,199.24,128.611,199.24z"/>
	<path id="XMLID_652_" class="st1" d="M169.838,195.507c-2.309,0-4.387,1.001-5.812,2.656c-1.424-1.655-3.503-2.656-5.812-2.656
		c-4.273,0-7.737,3.464-7.737,7.699v9.699c0,1.077,0.847,1.924,1.924,1.924c1.039,0,1.886-0.847,1.886-1.924v-9.699
		c0-2.156,1.771-3.888,3.927-3.888c2.155,0,3.886,1.732,3.886,3.888v9.699c0,1.077,0.886,1.924,1.925,1.924
		c1.039,0,1.886-0.847,1.886-1.924v-9.699c0-2.156,1.771-3.888,3.926-3.888c2.156,0,3.926,1.732,3.926,3.888
		c0,0.076,0,0.115,0,0.153c0,0.078,0,0.116,0,0.193v9.354c0,1.077,0.847,1.924,1.886,1.924c1.041,0,1.925-0.847,1.925-1.924v-9.354
		c0-0.076,0-0.115-0.038-0.193c0.038-0.038,0.038-0.076,0.038-0.153C177.575,198.971,174.111,195.507,169.838,195.507z"/>
	<path id="XMLID_649_" class="st1" d="M197.711,214.791c4.311,0,7.775-3.464,7.814-7.737v-0.038v-9.661
		c0-1.039-0.847-1.886-1.886-1.886c-1.079,0-1.925,0.847-1.925,1.886v9.623c0,2.194-1.77,4.004-4.002,4.004
		c-2.194,0-3.965-1.809-3.965-4.004v-9.623c0-1.039-0.847-1.886-1.924-1.886c-1.039,0-1.886,0.847-1.886,1.886v9.661v0.038
		C189.974,211.326,193.438,214.791,197.711,214.791z"/>
	<path id="XMLID_646_" class="st0" d="M173.673,48.935h-12.464c-0.332,0-0.602,0.27-0.602,0.602v12.464
		c0,0.332,0.27,0.602,0.602,0.602h12.464c0.332,0,0.601-0.27,0.601-0.602V49.537C174.274,49.205,174.005,48.935,173.673,48.935z"/>
	<path id="XMLID_643_" class="st0" d="M36.551,90.971c0-3.703-3.013-6.717-6.717-6.717c-3.704,0-6.717,3.013-6.717,6.717
		c0,3.704,3.013,6.717,6.717,6.717C33.537,97.688,36.551,94.675,36.551,90.971z"/>
	<path id="XMLID_642_" class="st2" d="M123.361,100.099v-6.555c0-2.406-1.368-4.625-3.487-5.653c0,0-24.191-7.151-44.446,1.388
		c-0.891,1.109-1.398,2.495-1.398,3.953v10.919c0,2.829,1.924,5.342,4.678,6.11c3.816,1.065,7.648,1.813,11.486,2.265
		C111.294,110.852,120.096,103.868,123.361,100.099z"/>
	<path id="XMLID_639_" class="st3" d="M29.446,86.253c0.495,0.75-0.415,1.089-1.39,1.733c-0.975,0.644-1.644,1.348-2.14,0.598
		s-0.106-1.879,0.868-2.523C27.76,85.418,28.951,85.504,29.446,86.253z"/>
	<path id="XMLID_638_" class="st2" d="M36.551,90.971c0-3.703-3.013-6.717-6.717-6.717s-6.717,3.013-6.717,6.717
		c0,3.704,3.013,6.717,6.717,6.717S36.551,94.675,36.551,90.971z"/>
	<path id="XMLID_637_" class="st2" d="M173.673,48.935h-12.464c-0.332,0-0.602,0.27-0.602,0.602v12.464
		c0,0.332,0.27,0.602,0.602,0.602h12.464c0.332,0,0.601-0.27,0.601-0.602V49.537C174.274,49.205,174.005,48.935,173.673,48.935z"/>
	<path id="XMLID_634_" class="st3" d="M85.188,63.144c-0.932,0.099-1.857,0.216-2.781,0.342c-5.965,0.798-11.948,2.091-17.786,3.842
		c-0.496,0.142-0.956,0.28-1.414,0.427c-0.561,0.174-0.919,0.64-0.919,1.187v34.247l5.782-28.497
		c2-5.749,30.072-12.243,30.072-12.243c-0.328,0-0.656,0.003-0.985,0.01C93.196,62.477,89.174,62.708,85.188,63.144z"/>
	<path id="XMLID_633_" class="st2" d="M31.243,95.06c2.05-1.722,3.113-4.334,3.878-6.9c0.095-0.317,0.184-0.645,0.254-0.977
		c-1.211-1.767-3.243-2.929-5.542-2.929c-3.704,0-6.717,3.013-6.717,6.717c0,2.83,1.762,5.252,4.245,6.24
		C28.74,96.629,30.104,96.017,31.243,95.06z"/>
	<path id="XMLID_632_" class="st2" d="M173.673,48.935h-12.464c-0.332,0-0.602,0.27-0.602,0.602v12.464
		c0,0.332,0.27,0.602,0.602,0.602h12.464c0.332,0,0.601-0.27,0.601-0.602V49.537C174.274,49.205,174.005,48.935,173.673,48.935z"/>
	<path id="XMLID_631_" class="st2" d="M161.209,62.603h0.852c0.07-0.031,0.139-0.063,0.208-0.093
		c3.311-1.453,6.539-3.334,8.811-6.147c1.647-2.039,2.718-4.531,3.103-7.123c-0.104-0.179-0.29-0.305-0.511-0.305h-12.464
		c-0.332,0-0.602,0.27-0.602,0.602v12.464C160.607,62.333,160.877,62.603,161.209,62.603z"/>
	<path id="XMLID_630_" class="st2" d="M36.551,90.971c0-1.404-0.435-2.708-1.175-3.787c-1.211-1.767-3.243-2.929-5.542-2.929
		c-3.704,0-6.717,3.013-6.717,6.717c0,2.83,1.762,5.252,4.245,6.24c0.766,0.305,1.599,0.478,2.473,0.478
		C33.537,97.688,36.551,94.675,36.551,90.971z"/>
	<path id="XMLID_629_" class="st2" d="M36.551,90.971c0-1.404-0.435-2.708-1.175-3.787c-1.211-1.767-3.243-2.929-5.542-2.929
		c-3.704,0-6.717,3.013-6.717,6.717c0,2.83,1.762,5.252,4.245,6.24c0.766,0.305,1.599,0.478,2.473,0.478
		C33.537,97.688,36.551,94.675,36.551,90.971z"/>
	<path id="XMLID_628_" class="st2" d="M173.673,48.935h-6.344c-0.429,0.036-0.855,0.093-1.275,0.192
		c-0.893,0.212-1.731,0.607-2.56,0.999c-0.348,0.165-0.705,0.336-0.967,0.618c-0.221,0.239-0.359,0.542-0.483,0.842
		c-0.689,1.665-1.081,3.432-1.437,5.201v5.213c0,0.332,0.27,0.602,0.602,0.602h0.852h11.611c0.332,0,0.601-0.27,0.601-0.602V49.537
		c0-0.11-0.038-0.208-0.09-0.297C174.08,49.061,173.895,48.935,173.673,48.935z"/>
	<path id="XMLID_627_" class="st3" d="M162.527,50.745c0.262-0.283,0.619-0.454,0.967-0.618c0.83-0.392,1.667-0.787,2.56-0.999
		c0.42-0.099,0.846-0.157,1.275-0.192h-6.12c-0.332,0-0.602,0.27-0.602,0.602v7.251c0.356-1.769,0.748-3.536,1.437-5.201
		C162.169,51.287,162.306,50.984,162.527,50.745z"/>
	<path id="XMLID_626_" class="st2" d="M36.551,90.971c0-1.404-0.435-2.708-1.175-3.787c-1.211-1.767-3.243-2.929-5.542-2.929
		c-3.704,0-6.717,3.013-6.717,6.717c0,2.83,1.762,5.252,4.245,6.24c0.766,0.305,1.599,0.478,2.473,0.478
		C33.537,97.688,36.551,94.675,36.551,90.971z"/>
	<path id="XMLID_625_" class="st2" d="M173.673,48.935h-6.344h-6.12c-0.332,0-0.602,0.27-0.602,0.602v7.251v5.213
		c0,0.332,0.27,0.602,0.602,0.602h0.852h11.611c0.332,0,0.601-0.27,0.601-0.602V49.537c0-0.11-0.038-0.208-0.09-0.297
		C174.08,49.061,173.895,48.935,173.673,48.935z"/>
	<path id="XMLID_624_" class="st2" d="M36.551,90.971c0-1.404-0.435-2.708-1.175-3.787c-1.211-1.767-3.243-2.929-5.542-2.929
		c-3.704,0-6.717,3.013-6.717,6.717c0,2.83,1.762,5.252,4.245,6.24c0.766,0.305,1.599,0.478,2.473,0.478
		C33.537,97.688,36.551,94.675,36.551,90.971z"/>
	<path id="XMLID_623_" class="st2" d="M173.673,48.935h-6.344h-6.12c-0.332,0-0.602,0.27-0.602,0.602v7.251v5.213
		c0,0.332,0.27,0.602,0.602,0.602h0.852h11.611c0.332,0,0.601-0.27,0.601-0.602V49.537c0-0.11-0.038-0.208-0.09-0.297
		C174.08,49.061,173.895,48.935,173.673,48.935z"/>
	<path id="XMLID_622_" class="st2" d="M36.551,90.971c0-1.404-0.435-2.708-1.175-3.787c-1.211-1.767-3.243-2.929-5.542-2.929
		c-3.704,0-6.717,3.013-6.717,6.717c0,2.83,1.762,5.252,4.245,6.24c0.766,0.305,1.599,0.478,2.473,0.478
		C33.537,97.688,36.551,94.675,36.551,90.971z"/>
	<path id="XMLID_621_" class="st2" d="M173.673,48.935h-6.344h-6.12c-0.332,0-0.602,0.27-0.602,0.602v7.251v5.213
		c0,0.332,0.27,0.602,0.602,0.602h0.852h11.611c0.332,0,0.601-0.27,0.601-0.602V49.537c0-0.11-0.038-0.208-0.09-0.297
		C174.08,49.061,173.895,48.935,173.673,48.935z"/>
	<path id="XMLID_618_" class="st0" d="M85.247,165.012c-0.322-0.18-0.683-0.349-1.154-0.533l-0.119-0.043
		c-0.233-0.085-0.469-0.161-0.752-0.237c-0.09-0.023-0.18-0.049-0.279-0.071c-0.215-0.05-0.434-0.088-0.663-0.122l-0.321-0.052
		c-0.341-0.039-0.657-0.058-0.954-0.059h-0.072c-0.301,0.001-0.616,0.02-0.963,0.059l-0.32,0.051
		c-0.226,0.034-0.449,0.073-0.672,0.124l-0.312,0.081c-0.239,0.065-0.473,0.139-0.699,0.223l-0.216,0.077
		c-0.382,0.151-0.742,0.32-1.068,0.502c-1.576,0.883-2.813,2.211-3.589,3.774c-0.205,0.413,0.098,0.901,0.559,0.901h14.621
		c0.461,0,0.764-0.488,0.559-0.901C88.059,167.222,86.823,165.894,85.247,165.012z"/>
	<path id="XMLID_617_" class="st3" d="M77.949,166.765c-0.982,0.637-1.768,1.206-2.094,0.704c-0.326-0.502,0.206-1.426,1.188-2.063
		s2.043-0.747,2.368-0.244S78.931,166.128,77.949,166.765z"/>
	<path id="XMLID_616_" class="st2" d="M85.489,168.836c0.271-0.058,0.548-0.114,0.788-0.253c0.24-0.139,0.439-0.38,0.45-0.657
		c0.009-0.228-0.107-0.441-0.226-0.636c-0.698-1.142-1.632-2.137-2.718-2.919c-0.174-0.059-0.354-0.116-0.561-0.172
		c-0.09-0.023-0.18-0.049-0.279-0.071c-0.215-0.05-0.433-0.088-0.663-0.122l-0.321-0.052c-0.341-0.039-0.657-0.058-0.954-0.059
		h-0.072c-0.301,0.001-0.616,0.02-0.963,0.059l-0.32,0.051c-0.226,0.034-0.449,0.073-0.672,0.124l-0.312,0.081
		c-0.239,0.065-0.473,0.139-0.699,0.223l-0.216,0.077c-0.382,0.151-0.741,0.32-1.068,0.502c-1.576,0.883-2.813,2.211-3.589,3.774
		c-0.205,0.413,0.098,0.901,0.559,0.901h8.8C83.452,169.353,84.461,169.056,85.489,168.836z"/>
	<path id="XMLID_608_" class="st1" d="M86.708,162.404c-0.46-0.258-0.94-0.481-1.436-0.676c-0.091-0.036-0.184-0.067-0.276-0.101
		c-0.31-0.113-0.626-0.214-0.948-0.302c-0.143-0.039-0.286-0.077-0.431-0.111c-0.291-0.067-0.587-0.119-0.885-0.164
		c-0.146-0.022-0.29-0.05-0.438-0.067c-0.424-0.048-0.853-0.076-1.288-0.078c-0.014,0-0.027-0.002-0.041-0.002
		c-0.013,0-0.025,0.002-0.038,0.002c-0.437,0.001-0.867,0.03-1.292,0.078c-0.147,0.017-0.29,0.045-0.436,0.067
		c-0.3,0.045-0.596,0.098-0.888,0.165c-0.145,0.033-0.287,0.072-0.429,0.11c-0.322,0.087-0.638,0.188-0.948,0.301
		c-0.093,0.034-0.186,0.066-0.277,0.102c-0.495,0.195-0.974,0.418-1.433,0.675c-3.421,1.916-5.791,5.487-6.014,9.631
		c-0.019,0.35,0.273,0.642,0.624,0.642h22.263c0.35,0,0.643-0.292,0.624-0.642C92.498,167.89,90.129,164.32,86.708,162.404z
		 M73.096,168.784c0.776-1.563,2.013-2.891,3.589-3.774c0.327-0.182,0.686-0.351,1.068-0.502l0.216-0.077
		c0.226-0.084,0.46-0.158,0.699-0.223l0.312-0.081c0.223-0.051,0.446-0.09,0.672-0.124l0.32-0.051
		c0.347-0.039,0.663-0.058,0.963-0.059h0.072c0.297,0.001,0.613,0.02,0.954,0.059l0.321,0.052c0.23,0.034,0.449,0.072,0.663,0.122
		c0.099,0.022,0.189,0.048,0.279,0.071c0.207,0.056,0.387,0.113,0.561,0.172c0.064,0.022,0.129,0.042,0.191,0.065l0.119,0.043
		c0.471,0.184,0.832,0.353,1.154,0.533c1.575,0.883,2.812,2.21,3.587,3.773c0.205,0.413-0.098,0.901-0.559,0.901h-5.821h-8.8
		C73.193,169.685,72.891,169.197,73.096,168.784z"/>
	<path id="XMLID_605_" class="st1" d="M113.694,161.727c0.091-0.036,0.185-0.068,0.277-0.102
		C113.879,161.66,113.785,161.691,113.694,161.727z"/>
	<path id="XMLID_602_" class="st1" d="M122.032,161.626c0.092,0.034,0.185,0.065,0.276,0.101
		C122.217,161.691,122.124,161.66,122.032,161.626z"/>
	<path id="XMLID_599_" class="st4" d="M120.654,161.214c0.145,0.033,0.288,0.072,0.431,0.111
		C120.941,161.286,120.798,161.247,120.654,161.214z"/>
	<path id="XMLID_596_" class="st1" d="M120.654,161.214c0.145,0.033,0.288,0.072,0.431,0.111
		C120.941,161.286,120.798,161.247,120.654,161.214z"/>
	<path id="XMLID_593_" class="st1" d="M114.919,161.325c0.142-0.039,0.285-0.077,0.429-0.11
		C115.204,161.247,115.062,161.286,114.919,161.325z"/>
	<path id="XMLID_590_" class="st4" d="M118.042,160.905c-0.014,0-0.027-0.002-0.04-0.002c-0.013,0-0.025,0.002-0.038,0.002
		c0.013,0,0.025-0.002,0.038-0.002C118.015,160.903,118.028,160.905,118.042,160.905z"/>
	<path id="XMLID_587_" class="st1" d="M118.042,160.905c-0.014,0-0.027-0.002-0.04-0.002c-0.013,0-0.025,0.002-0.038,0.002
		c0.013,0,0.025-0.002,0.038-0.002C118.015,160.903,118.028,160.905,118.042,160.905z"/>
	<path id="XMLID_584_" class="st1" d="M116.236,161.049c0.145-0.022,0.289-0.05,0.436-0.066
		C116.526,160.999,116.382,161.027,116.236,161.049z"/>
	<path id="XMLID_581_" class="st1" d="M119.33,160.983c0.148,0.017,0.292,0.045,0.438,0.067
		C119.622,161.028,119.478,160.999,119.33,160.983z"/>
	<path id="XMLID_578_" class="st0" d="M122.283,165.012c-0.322-0.18-0.683-0.349-1.154-0.533l-0.119-0.043
		c-0.233-0.085-0.469-0.161-0.752-0.237c-0.09-0.023-0.18-0.049-0.279-0.071c-0.215-0.05-0.434-0.088-0.663-0.122l-0.321-0.052
		c-0.341-0.039-0.657-0.058-0.954-0.059h-0.072c-0.301,0.001-0.616,0.02-0.963,0.059l-0.32,0.051
		c-0.226,0.034-0.449,0.073-0.672,0.124l-0.312,0.081c-0.239,0.065-0.473,0.139-0.699,0.223l-0.216,0.077
		c-0.382,0.151-0.742,0.32-1.068,0.502c-1.576,0.883-2.813,2.211-3.589,3.774c-0.205,0.413,0.098,0.901,0.559,0.901h14.621
		c0.461,0,0.764-0.488,0.559-0.901C125.095,167.222,123.859,165.894,122.283,165.012z"/>
	<path id="XMLID_577_" class="st3" d="M114.985,166.765c-0.982,0.637-1.768,1.206-2.094,0.704c-0.326-0.502,0.206-1.426,1.188-2.063
		s2.043-0.747,2.368-0.244S115.967,166.128,114.985,166.765z"/>
	<path id="XMLID_576_" class="st2" d="M122.525,168.836c0.271-0.058,0.548-0.114,0.788-0.253c0.24-0.139,0.439-0.38,0.45-0.657
		c0.009-0.228-0.107-0.441-0.226-0.636c-0.698-1.142-1.632-2.137-2.718-2.919c-0.174-0.059-0.354-0.116-0.561-0.172
		c-0.09-0.023-0.18-0.049-0.279-0.071c-0.215-0.05-0.434-0.088-0.663-0.122l-0.321-0.052c-0.341-0.039-0.657-0.058-0.954-0.059
		h-0.072c-0.301,0.001-0.616,0.02-0.963,0.059l-0.32,0.051c-0.226,0.034-0.449,0.073-0.672,0.124l-0.312,0.081
		c-0.239,0.065-0.473,0.139-0.699,0.223l-0.216,0.077c-0.382,0.151-0.742,0.32-1.068,0.502c-1.576,0.883-2.813,2.211-3.589,3.774
		c-0.205,0.413,0.098,0.901,0.559,0.901h8.8C120.488,169.353,121.497,169.056,122.525,168.836z"/>
	<path id="XMLID_575_" class="st2" d="M35.121,88.16c0.095-0.317,0.184-0.645,0.254-0.977c-1.211-1.767-3.243-2.929-5.542-2.929
		c-3.704,0-6.717,3.013-6.717,6.717c0,2.83,1.762,5.252,4.245,6.24c1.379-0.582,2.743-1.194,3.882-2.151
		C33.293,93.338,34.356,90.726,35.121,88.16z"/>
	<path id="XMLID_574_" class="st2" d="M171.081,56.362c1.647-2.039,2.718-4.531,3.103-7.123c-0.104-0.179-0.29-0.305-0.511-0.305
		h-6.344h-6.12c-0.332,0-0.602,0.27-0.602,0.602v7.251v5.213c0,0.332,0.27,0.602,0.602,0.602h0.852
		c0.07-0.031,0.139-0.063,0.208-0.093C165.581,61.056,168.809,59.176,171.081,56.362z"/>
	<path id="XMLID_571_" class="st1" d="M108.837,149.318H90.13c0.333,0.978,0.522,2.023,0.522,3.112l0,2.304h17.663l0-2.304
		C108.315,151.341,108.504,150.297,108.837,149.318z"/>
	<path id="XMLID_559_" class="st1" d="M173.672,43.763h-12.46c-3.19,0-5.78,2.59-5.78,5.77v12.47c0,3.18,2.59,5.77,5.78,5.77h3.21
		v15.72c0,13.71-10.38,25.03-23.69,26.54v-41.02c0-2.94-1.96-5.55-4.75-6.36c-0.68-0.2-1.36-0.39-2.02-0.57
		c-6.22-1.71-12.46-3-18.55-3.83c-1.02-0.15-2.04-0.28-3.05-0.39c-3.19-0.37-6.44-0.61-9.68-0.73v-14.58h-6.03v14.5
		c-3.98,0.03-8.03,0.27-12.05,0.71c-0.97,0.1-1.95,0.22-2.92,0.35c-6.24,0.84-12.5,2.19-18.58,4.02c-0.52,0.14-1.04,0.3-1.53,0.46
		c-2.81,0.87-4.7,3.42-4.7,6.35v57.07c-12.49-1.25-22.46-11.15-23.85-23.6c5.01-1.4,8.7-5.99,8.7-11.44
		c0-6.56-5.33-11.89-11.89-11.89s-11.89,5.33-11.89,11.89c0,5.56,3.85,10.23,9.02,11.52c1.47,15.75,14.12,28.28,29.91,29.58v16.02
		c0,3.66,2.97,6.64,6.63,6.64h7.78v-2.3c0-1.09,0.19-2.14,0.52-3.11h-8.3c-0.67,0-1.21-0.55-1.21-1.23v-79.15
		c0-0.55,0.35-1.01,0.91-1.19c0.46-0.15,0.92-0.28,1.42-0.43c5.84-1.75,11.82-3.04,17.78-3.84c0.93-0.12,1.85-0.24,2.79-0.34
		c3.98-0.44,8-0.67,11.96-0.68c0.33-0.01,0.66-0.01,0.99-0.01c0.55,0,1.1,0,1.66,0.01c4,0.07,8.02,0.33,11.95,0.78
		c0.97,0.11,1.95,0.24,2.92,0.37c5.86,0.8,11.87,2.05,17.87,3.7c0.63,0.17,1.27,0.35,1.93,0.54c0.49,0.14,0.84,0.62,0.84,1.16v79.08
		c0,0.68-0.55,1.23-1.22,1.23h-6.93c0.34,0.97,0.53,2.02,0.53,3.11v2.3h6.4c3.66,0,6.64-2.98,6.64-6.64v-31.99
		c16.64-1.53,29.73-15.57,29.73-32.61v-15.72h3.21c3.19,0,5.78-2.59,5.78-5.77v-12.47C179.452,46.353,176.862,43.763,173.672,43.763
		z M27.362,97.213c-2.48-0.99-4.25-3.41-4.25-6.24c0-3.71,3.02-6.72,6.72-6.72c2.3,0,4.33,1.16,5.54,2.93
		c0.74,1.08,1.18,2.38,1.18,3.79c0,3.7-3.01,6.72-6.72,6.72C28.962,97.693,28.132,97.513,27.362,97.213z M174.272,62.003
		c0,0.33-0.27,0.6-0.6,0.6h-12.46c-0.33,0-0.61-0.27-0.61-0.6v-12.47c0-0.33,0.28-0.6,0.61-0.6h12.46c0.22,0,0.41,0.13,0.51,0.31
		c0.05,0.09,0.09,0.18,0.09,0.29V62.003z"/>
	<path id="XMLID_556_" class="st1" d="M87.662,152.431c0-3.699-2.998-6.697-6.697-6.697c-3.699,0-6.697,2.998-6.697,6.697v7.661
		c0,0.005,0.001,0.01,0.001,0.015c1.998-1.069,4.277-1.679,6.697-1.679c2.42,0,4.698,0.61,6.696,1.679
		c0-0.005,0.001-0.01,0.001-0.015V152.431z"/>
	<path id="XMLID_553_" class="st1" d="M124.699,152.431c0-3.699-2.998-6.697-6.697-6.697c-3.699,0-6.697,2.998-6.697,6.697v7.661
		c0,0.005,0.001,0.01,0.001,0.015c1.998-1.069,4.277-1.679,6.697-1.679c2.42,0,4.698,0.61,6.696,1.679
		c0-0.005,0.001-0.01,0.001-0.015V152.431z"/>
	<path id="XMLID_550_" class="st5" d="M134.091,149.318c0.675,0,1.223-0.549,1.223-1.224V85.69c0,0-3.154,60.516-6.702,63.628
		H134.091z"/>
	<path id="XMLID_547_" class="st5" d="M36.551,90.971c0-1.404-0.435-2.708-1.175-3.787c-0.071,0.332-0.16,0.66-0.254,0.977
		c-0.765,2.565-1.828,5.178-3.878,6.9c-1.139,0.957-2.504,1.569-3.882,2.151c0.766,0.305,1.599,0.478,2.473,0.478
		C33.537,97.688,36.551,94.675,36.551,90.971z"/>
	<path id="XMLID_544_" class="st5" d="M171.081,56.362c-2.272,2.813-5.5,4.694-8.811,6.147c-0.069,0.03-0.139,0.063-0.208,0.093
		h11.611c0.332,0,0.601-0.27,0.601-0.602V49.537c0-0.11-0.038-0.208-0.09-0.297C173.799,51.831,172.728,54.323,171.081,56.362z"/>
	<path id="XMLID_541_" class="st5" d="M85.247,165.012c-0.322-0.18-0.683-0.349-1.154-0.533l-0.119-0.043
		c-0.062-0.023-0.127-0.043-0.191-0.065c1.086,0.782,2.02,1.777,2.718,2.919c0.119,0.195,0.235,0.408,0.226,0.636
		c-0.011,0.277-0.211,0.518-0.45,0.657c-0.24,0.139-0.517,0.195-0.788,0.253c-1.028,0.22-2.037,0.518-3.035,0.85h5.821
		c0.461,0,0.764-0.488,0.559-0.901C88.059,167.222,86.823,165.894,85.247,165.012z"/>
	<path id="XMLID_538_" class="st5" d="M122.283,165.012c-0.322-0.18-0.683-0.349-1.154-0.533l-0.119-0.043
		c-0.062-0.023-0.127-0.043-0.191-0.065c1.086,0.782,2.02,1.777,2.718,2.919c0.119,0.195,0.235,0.408,0.226,0.636
		c-0.011,0.277-0.211,0.518-0.45,0.657c-0.24,0.139-0.517,0.195-0.788,0.253c-1.028,0.22-2.037,0.518-3.035,0.85h5.821
		c0.461,0,0.764-0.488,0.559-0.901C125.095,167.222,123.859,165.894,122.283,165.012z"/>
	<path id="XMLID_530_" class="st1" d="M123.744,162.404c-0.46-0.258-0.94-0.481-1.436-0.676c-0.091-0.036-0.184-0.067-0.276-0.101
		c-0.31-0.113-0.626-0.214-0.948-0.302c-0.143-0.039-0.286-0.077-0.431-0.111c-0.291-0.067-0.587-0.119-0.885-0.164
		c-0.146-0.022-0.29-0.05-0.438-0.067c-0.423-0.048-0.853-0.076-1.288-0.078c-0.014,0-0.027-0.002-0.041-0.002
		c-0.013,0-0.025,0.002-0.038,0.002c-0.437,0.001-0.867,0.03-1.292,0.078c-0.147,0.017-0.29,0.045-0.436,0.067
		c-0.3,0.045-0.596,0.098-0.888,0.165c-0.145,0.033-0.287,0.072-0.429,0.11c-0.322,0.087-0.638,0.188-0.948,0.301
		c-0.093,0.034-0.186,0.066-0.277,0.102c-0.495,0.195-0.974,0.418-1.433,0.675c-3.421,1.916-5.791,5.487-6.014,9.631
		c-0.019,0.35,0.273,0.642,0.624,0.642h22.263c0.35,0,0.643-0.292,0.624-0.642C129.534,167.89,127.165,164.32,123.744,162.404z
		 M110.132,168.784c0.776-1.563,2.013-2.891,3.589-3.774c0.327-0.182,0.686-0.351,1.068-0.502l0.216-0.077
		c0.226-0.084,0.46-0.158,0.699-0.223l0.312-0.081c0.223-0.051,0.446-0.09,0.672-0.124l0.32-0.051
		c0.347-0.039,0.663-0.058,0.963-0.059h0.072c0.297,0.001,0.613,0.02,0.954,0.059l0.321,0.052c0.23,0.034,0.449,0.072,0.663,0.122
		c0.099,0.022,0.189,0.048,0.279,0.071c0.207,0.056,0.387,0.113,0.561,0.172c0.064,0.022,0.129,0.042,0.191,0.065l0.119,0.043
		c0.471,0.184,0.832,0.353,1.154,0.533c1.575,0.883,2.812,2.21,3.587,3.773c0.205,0.413-0.098,0.901-0.559,0.901h-5.821h-8.8
		C110.23,169.685,109.927,169.197,110.132,168.784z"/>
	<path id="XMLID_529_" class="st4" d="M119.218,112.18c-13.682,3.818-27.364,3.818-41.046,0c-3.615-1.009-6.135-4.277-6.135-8.03
		V93.231c0-3.085,1.72-5.898,4.436-7.361c13.847-7.457,28.604-7.382,44.271,0.227c2.838,1.378,4.609,4.292,4.609,7.447v10.606
		C125.354,107.903,122.833,111.171,119.218,112.18z"/>
	<circle id="XMLID_528_" class="st1" cx="89.086" cy="97.688" r="4.515"/>
	<circle id="XMLID_527_" class="st1" cx="111.669" cy="97.688" r="4.515"/>
	<g id="XMLID_524_">
		<path id="XMLID_526_" class="st6" d="M90.195,112.525c9.501,1.119,19.041,0.371,28.487-2.265h0.001
			c2.754-0.769,4.678-3.281,4.678-6.11v-4.051C120.096,103.868,111.294,110.852,90.195,112.525z"/>
		<path id="XMLID_525_" class="st6" d="M119.874,87.89c-7.689-3.734-15.045-5.602-22.167-5.602c-6.953,0-13.683,1.779-20.289,5.336
			c-0.784,0.422-1.456,0.988-1.99,1.654C95.683,80.739,119.874,87.89,119.874,87.89z"/>
	</g>
	<path id="XMLID_521_" class="st1" d="M121.616,84.305c-16.201-7.869-31.708-7.932-46.087-0.189
		c-3.383,1.822-5.485,5.315-5.485,9.115v10.919c0,4.611,3.122,8.702,7.593,9.949c6.987,1.95,14.023,2.925,21.059,2.925
		c7.036,0,14.072-0.975,21.058-2.925c4.471-1.247,7.593-5.339,7.593-9.949V93.544C127.346,89.622,125.097,85.995,121.616,84.305z
		 M74.03,104.15V93.231c0-1.458,0.507-2.843,1.398-3.953c0.534-0.666,1.207-1.232,1.99-1.654c6.606-3.557,13.336-5.336,20.289-5.336
		c7.122,0,14.478,1.867,22.167,5.602c2.118,1.028,3.487,3.247,3.487,5.653v6.555v4.051c0,2.829-1.924,5.342-4.678,6.11h-0.001
		c-9.446,2.637-18.986,3.384-28.487,2.265c-3.838-0.452-7.67-1.2-11.486-2.265C75.954,109.491,74.03,106.979,74.03,104.15z"/>
	<path id="XMLID_518_" class="st1" d="M100.98,0.019c3.959,0.131,7.924,0.947,11.747,2.472c4.73,1.886,9.012,4.54,12.963,7.723
		c1.876,1.511,3.647,3.152,5.468,4.733c0.081,0.07,0.178,0.122,0.292,0.2c-1.684,1.755-3.305,3.445-4.95,5.159
		c-0.172-0.157-0.332-0.298-0.487-0.444c-3.291-3.103-6.8-5.921-10.712-8.212c-3.19-1.867-6.552-3.315-10.183-4.083
		c-4.06-0.859-8.094-0.763-12.102,0.329c-4.266,1.162-8.056,3.262-11.577,5.887c-2.468,1.84-4.739,3.904-6.877,6.117
		c-0.09,0.093-0.18,0.187-0.293,0.305c-0.142-0.132-0.275-0.253-0.405-0.378c-1.517-1.45-3.033-2.9-4.55-4.349
		c-0.06-0.058-0.134-0.102-0.201-0.153c0-0.022,0-0.043,0-0.065c0.074-0.058,0.154-0.11,0.221-0.176
		c1.188-1.149,2.347-2.331,3.568-3.445c3.271-2.984,6.816-5.59,10.754-7.638C89.086,1.175,95.026-0.178,100.98,0.019z"/>
	<path id="XMLID_515_" class="st1" d="M99.103,44.857c-0.464-0.136-0.95-0.219-1.386-0.416c-1.48-0.668-2.412-1.777-2.522-3.443
		c-0.093-1.409,0.523-2.518,1.628-3.351c1.637-1.234,4-1.204,5.626,0.042c2.298,1.76,2.078,5.1-0.462,6.499
		c-0.583,0.321-1.271,0.451-1.91,0.67C99.752,44.857,99.427,44.857,99.103,44.857z"/>
	<path id="XMLID_512_" class="st1" d="M122.608,23.615c-1.676,1.746-3.298,3.437-4.932,5.14c-0.623-0.563-1.223-1.121-1.84-1.66
		c-2.437-2.129-5.045-4.009-7.983-5.394c-2.787-1.314-5.701-2.074-8.807-1.965c-2.705,0.095-5.235,0.846-7.636,2.066
		c-3.16,1.606-5.855,3.825-8.332,6.33c-0.152,0.154-0.303,0.308-0.456,0.461c-0.014,0.013-0.038,0.016-0.086,0.035
		c-1.685-1.611-3.38-3.231-5.091-4.867c0.04-0.051,0.068-0.093,0.102-0.128c2.797-2.905,5.854-5.482,9.374-7.481
		c3.04-1.726,6.27-2.905,9.748-3.342c3.721-0.468,7.354-0.044,10.905,1.141c3.807,1.27,7.231,3.25,10.373,5.714
		c1.521,1.193,2.946,2.508,4.415,3.767C122.427,23.487,122.5,23.535,122.608,23.615z"/>
	<path id="XMLID_509_" class="st1" d="M113.017,31.517c-1.62,1.69-3.242,3.381-4.887,5.096c-0.282-0.253-0.559-0.505-0.839-0.752
		c-1.363-1.199-2.823-2.248-4.506-2.96c-2.667-1.129-5.208-0.841-7.657,0.639c-1.268,0.766-2.379,1.724-3.417,2.771
		c-0.059,0.06-0.122,0.115-0.205,0.193c-1.712-1.638-3.412-3.265-5.124-4.902c2.633-2.709,5.553-4.92,9.231-5.95
		c3.262-0.913,6.463-0.667,9.597,0.572c2.953,1.167,5.452,3.019,7.736,5.187C112.967,31.43,112.98,31.461,113.017,31.517z"/>
</g>
</svg>
