<svg version="1.1" id="Layer_1" xmlns="http://www.w3.org/2000/svg" xmlns:xlink="http://www.w3.org/1999/xlink" x="0px" y="0px"
	 viewBox="0 0 792 612" style="enable-background:new 0 0 792 612;" xml:space="preserve">
<style type="text/css">
	.st0{fill:#0085D5;}
	.st1{fill:#414042;}
	.st2{fill:none;}
	.st3{fill:#FFFFFF;}
	.st4{fill:#68C3FC;}
	.st5{fill:#02619A;}
	.st6{fill:#E8E8E8;}
</style>
<g id="XMLID_1152_">
	<g id="XMLID_1168_">
		<path id="XMLID_1169_" class="st0" d="M428.55,258.13v16.68c0,0-3.15,60.51-6.7,63.63h-1.45c-1.3-3.82-4.91-6.58-9.16-6.58
			s-7.86,2.76-9.17,6.58h-18.7c-1.3-3.82-4.92-6.58-9.17-6.58s-7.86,2.76-9.16,6.58h-8.3c-0.67,0-1.21-0.55-1.21-1.23v-60.4
			l3.2-0.28l6.45-0.55l0.69-15.76l16.45,0.14l0.67-6.6l0.19-1.91c1.81-0.13,3.62-0.21,5.42-0.25c0.6-0.01,1.2-0.02,1.79-0.02
			c0.33-0.01,0.66-0.01,0.99-0.01c0.55,0,1.1,0,1.66,0.01c4,0.07,8.02,0.33,11.95,0.78c0.97,0.11,1.95,0.24,2.92,0.37
			c5.86,0.8,11.87,2.05,17.87,3.7c0.63,0.17,1.27,0.35,1.93,0.54C428.2,257.11,428.55,257.59,428.55,258.13z"/>
	</g>
	<path id="XMLID_1165_" class="st0" d="M466.911,238.052h-12.464c-0.332,0-0.602,0.27-0.602,0.602v12.464
		c0,0.332,0.27,0.602,0.602,0.602h12.464c0.332,0,0.601-0.27,0.601-0.602v-12.464C467.512,238.322,467.243,238.052,466.911,238.052z
		"/>
	<path id="XMLID_1162_" class="st0" d="M400.964,225.745c0.077-0.144,0.137-0.366-0.024-0.615l-7.532-11.627
		c-0.147-0.227-0.356-0.275-0.505-0.275c-0.149,0-0.358,0.048-0.505,0.275l-7.531,11.627c-0.161,0.248-0.102,0.472-0.024,0.615
		c0.078,0.144,0.233,0.315,0.528,0.315h15.063C400.731,226.06,400.886,225.889,400.964,225.745z"/>
	<path id="XMLID_1159_" class="st0" d="M329.788,280.088c0-3.703-3.013-6.717-6.717-6.717c-3.704,0-6.717,3.013-6.717,6.717
		c0,3.704,3.013,6.717,6.717,6.717C326.775,286.805,329.788,283.792,329.788,280.088z"/>
	<path id="XMLID_1156_" class="st0" d="M378.485,354.128c-0.322-0.18-0.683-0.349-1.154-0.533l-0.119-0.043
		c-0.233-0.085-0.469-0.161-0.752-0.237c-0.09-0.023-0.18-0.049-0.279-0.071c-0.215-0.05-0.434-0.088-0.663-0.122l-0.321-0.052
		c-0.341-0.039-0.657-0.058-0.954-0.059h-0.072c-0.301,0.001-0.616,0.02-0.963,0.059l-0.32,0.051
		c-0.226,0.034-0.449,0.073-0.672,0.124l-0.312,0.081c-0.239,0.065-0.473,0.139-0.699,0.223l-0.216,0.077
		c-0.382,0.151-0.742,0.32-1.068,0.502c-1.576,0.883-2.813,2.211-3.589,3.774c-0.205,0.413,0.098,0.901,0.559,0.901h14.621
		c0.461,0,0.764-0.488,0.559-0.901C381.297,356.338,380.06,355.011,378.485,354.128z"/>
	<path id="XMLID_1153_" class="st0" d="M415.521,354.128c-0.322-0.18-0.683-0.349-1.154-0.533l-0.119-0.043
		c-0.233-0.085-0.469-0.161-0.752-0.237c-0.09-0.023-0.18-0.049-0.279-0.071c-0.215-0.05-0.434-0.088-0.663-0.122l-0.321-0.052
		c-0.341-0.039-0.657-0.058-0.954-0.059h-0.072c-0.301,0.001-0.616,0.02-0.963,0.059l-0.32,0.051
		c-0.226,0.034-0.449,0.073-0.672,0.124l-0.312,0.081c-0.239,0.065-0.473,0.139-0.699,0.223l-0.216,0.077
		c-0.382,0.151-0.742,0.32-1.068,0.502c-1.576,0.883-2.813,2.211-3.589,3.774c-0.205,0.413,0.098,0.901,0.559,0.901h14.621
		c0.461,0,0.764-0.488,0.559-0.901C418.333,356.338,417.097,355.011,415.521,354.128z"/>
</g>
<path id="XMLID_1149_" class="st1" d="M295.162,403.907c1.04,0,1.887-0.847,1.887-1.924v-23.248c0-1.041-0.847-1.887-1.887-1.887
	c-1.077,0-1.924,0.847-1.924,1.887v23.248C293.238,403.061,294.084,403.907,295.162,403.907z"/>
<path id="XMLID_1146_" class="st1" d="M309.021,378.657v4.234c0,1.077,0.693,1.924,1.732,1.924c1.077,0,1.77-0.808,1.77-1.886
	v-4.234c0-1.039-0.693-1.924-1.77-1.962C309.752,376.733,309.021,377.618,309.021,378.657z"/>
<path id="XMLID_1143_" class="st1" d="M344.009,384.623c-2.309,0-4.388,1.001-5.812,2.656c-1.424-1.655-3.503-2.656-5.812-2.656
	c-4.273,0-7.736,3.464-7.736,7.699v9.699c0,1.077,0.847,1.924,1.924,1.924c1.04,0,1.886-0.847,1.886-1.924v-9.699
	c0-2.156,1.77-3.888,3.926-3.888s3.888,1.732,3.888,3.888v9.699c0,1.077,0.885,1.924,1.925,1.924c1.039,0,1.886-0.847,1.886-1.924
	v-9.699c0-2.156,1.77-3.888,3.926-3.888c2.156,0,3.927,1.732,3.927,3.888c0,0.076,0,0.115,0,0.153c0,0.078,0,0.116,0,0.193v9.354
	c0,1.077,0.847,1.924,1.886,1.924c1.039,0,1.925-0.847,1.925-1.924v-9.354c0-0.077,0-0.115-0.039-0.193
	c0.039-0.038,0.039-0.076,0.039-0.153C351.746,388.088,348.282,384.623,344.009,384.623z"/>
<path id="XMLID_1140_" class="st1" d="M394.479,403.907c1.039,0,1.886-0.847,1.886-1.924v-21.286h5.851
	c1.039,0,1.886-0.847,1.886-1.886c0-1.077-0.847-1.924-1.886-1.924h-15.473c-1.077,0-1.924,0.847-1.924,1.924
	c0,1.039,0.847,1.886,1.924,1.886h5.812v21.286C392.554,403.061,393.401,403.907,394.479,403.907z"/>
<path id="XMLID_1132_" class="st1" d="M421.849,403.869c5.35,0,9.661-4.349,9.661-9.661c0-5.35-4.311-9.661-9.661-9.661
	c-5.312,0-9.661,4.311-9.661,9.661C412.188,399.52,416.537,403.869,421.849,403.869z M421.849,388.357
	c3.233,0,5.851,2.618,5.851,5.851c0,3.194-2.618,5.85-5.851,5.85c-3.234,0-5.851-2.656-5.851-5.85
	C415.998,390.974,418.615,388.357,421.849,388.357z"/>
<path id="XMLID_1129_" class="st1" d="M463.076,384.623c-2.309,0-4.387,1.001-5.812,2.656c-1.424-1.655-3.503-2.656-5.812-2.656
	c-4.273,0-7.737,3.464-7.737,7.699v9.699c0,1.077,0.847,1.924,1.924,1.924c1.039,0,1.886-0.847,1.886-1.924v-9.699
	c0-2.156,1.771-3.888,3.927-3.888c2.155,0,3.886,1.732,3.886,3.888v9.699c0,1.077,0.886,1.924,1.925,1.924
	c1.039,0,1.886-0.847,1.886-1.924v-9.699c0-2.156,1.771-3.888,3.926-3.888c2.156,0,3.926,1.732,3.926,3.888c0,0.076,0,0.115,0,0.153
	c0,0.078,0,0.116,0,0.193v9.354c0,1.077,0.847,1.924,1.886,1.924c1.041,0,1.925-0.847,1.925-1.924v-9.354
	c0-0.077,0-0.115-0.038-0.193c0.038-0.038,0.038-0.076,0.038-0.153C470.813,388.088,467.348,384.623,463.076,384.623z"/>
<path id="XMLID_1126_" class="st1" d="M490.949,403.907c4.311,0,7.775-3.464,7.814-7.737v-0.038v-9.661
	c0-1.039-0.847-1.886-1.886-1.886c-1.079,0-1.925,0.847-1.925,1.886v9.623c0,2.194-1.77,4.004-4.002,4.004
	c-2.194,0-3.965-1.809-3.965-4.004v-9.623c0-1.039-0.847-1.886-1.924-1.886c-1.039,0-1.886,0.847-1.886,1.886v9.661v0.038
	C483.212,400.443,486.676,403.907,490.949,403.907z"/>
<path id="XMLID_1125_" class="st2" d="M416.598,289.216v-6.555c0-2.406-1.368-4.625-3.487-5.653c0,0-24.191-7.151-44.446,1.388
	c-0.891,1.109-1.398,2.495-1.398,3.953v10.919c0,2.829,1.924,5.342,4.678,6.11c3.816,1.065,7.648,1.813,11.486,2.265
	C404.532,299.968,413.333,292.985,416.598,289.216z"/>
<path id="XMLID_1124_" class="st2" d="M329.788,280.088c0-3.703-3.013-6.717-6.717-6.717c-3.704,0-6.717,3.013-6.717,6.717
	c0,3.704,3.013,6.717,6.717,6.717C326.775,286.805,329.788,283.792,329.788,280.088z"/>
<path id="XMLID_1123_" class="st2" d="M400.964,225.745c0.077-0.144,0.137-0.366-0.024-0.615l-7.532-11.627
	c-0.147-0.227-0.356-0.275-0.505-0.275c-0.149,0-0.358,0.048-0.505,0.275l-7.531,11.627c-0.161,0.248-0.102,0.472-0.024,0.615
	c0.078,0.144,0.233,0.315,0.528,0.315h15.063C400.731,226.06,400.886,225.889,400.964,225.745z"/>
<path id="XMLID_1122_" class="st2" d="M466.911,238.052h-12.464c-0.332,0-0.602,0.27-0.602,0.602v12.464
	c0,0.332,0.27,0.602,0.602,0.602h12.464c0.332,0,0.601-0.27,0.601-0.602v-12.464C467.512,238.322,467.243,238.052,466.911,238.052z"
	/>
<path id="XMLID_1121_" class="st2" d="M324.481,284.177c2.05-1.722,3.113-4.334,3.878-6.9c0.095-0.317,0.184-0.645,0.254-0.977
	c-1.211-1.767-3.243-2.929-5.542-2.929c-3.704,0-6.717,3.013-6.717,6.717c0,2.83,1.762,5.252,4.245,6.24
	C321.977,285.746,323.342,285.133,324.481,284.177z"/>
<path id="XMLID_1120_" class="st2" d="M400.964,225.745c0.077-0.144,0.137-0.366-0.024-0.615l-7.532-11.627
	c-0.147-0.227-0.356-0.275-0.505-0.275c-0.149,0-0.358,0.048-0.505,0.275l-7.531,11.627c-0.161,0.248-0.102,0.472-0.024,0.615
	c0.078,0.144,0.233,0.315,0.528,0.315h15.063C400.731,226.06,400.886,225.889,400.964,225.745z"/>
<path id="XMLID_1119_" class="st2" d="M466.911,238.052h-12.464c-0.332,0-0.602,0.27-0.602,0.602v12.464
	c0,0.332,0.27,0.602,0.602,0.602h12.464c0.332,0,0.601-0.27,0.601-0.602v-12.464C467.512,238.322,467.243,238.052,466.911,238.052z"
	/>
<path id="XMLID_1118_" class="st2" d="M400.964,225.745c0.077-0.144,0.137-0.366-0.024-0.615l-7.532-11.627
	c-0.147-0.227-0.356-0.275-0.505-0.275c-0.149,0-0.358,0.048-0.505,0.275l-7.531,11.627c-0.161,0.248-0.102,0.472-0.024,0.615
	c0.078,0.144,0.233,0.315,0.528,0.315h15.063C400.731,226.06,400.886,225.889,400.964,225.745z"/>
<path id="XMLID_1117_" class="st2" d="M454.447,251.719h0.852c0.069-0.031,0.139-0.063,0.208-0.093
	c3.311-1.453,6.539-3.334,8.811-6.147c1.647-2.039,2.718-4.531,3.103-7.123c-0.104-0.179-0.29-0.305-0.511-0.305h-12.464
	c-0.332,0-0.602,0.27-0.602,0.602v12.464C453.845,251.45,454.115,251.719,454.447,251.719z"/>
<path id="XMLID_1116_" class="st2" d="M329.788,280.088c0-1.404-0.435-2.708-1.175-3.787c-1.211-1.767-3.243-2.929-5.542-2.929
	c-3.704,0-6.717,3.013-6.717,6.717c0,2.83,1.762,5.252,4.245,6.24c0.766,0.305,1.599,0.478,2.473,0.478
	C326.775,286.805,329.788,283.792,329.788,280.088z"/>
<path id="XMLID_1115_" class="st2" d="M400.964,225.745c0.077-0.144,0.137-0.366-0.024-0.615l-7.532-11.627
	c-0.147-0.227-0.356-0.275-0.505-0.275c-0.149,0-0.358,0.048-0.505,0.275l-7.531,11.627c-0.161,0.248-0.102,0.472-0.024,0.615
	c0.078,0.144,0.233,0.315,0.528,0.315h15.063C400.731,226.06,400.886,225.889,400.964,225.745z"/>
<path id="XMLID_1114_" class="st2" d="M329.788,280.088c0-1.404-0.435-2.708-1.175-3.787c-1.211-1.767-3.243-2.929-5.542-2.929
	c-3.704,0-6.717,3.013-6.717,6.717c0,2.83,1.762,5.252,4.245,6.24c0.766,0.305,1.599,0.478,2.473,0.478
	C326.775,286.805,329.788,283.792,329.788,280.088z"/>
<path id="XMLID_1113_" class="st2" d="M466.911,238.052h-6.344c-0.429,0.036-0.855,0.093-1.275,0.192
	c-0.893,0.212-1.731,0.607-2.56,0.999c-0.348,0.165-0.705,0.336-0.967,0.618c-0.221,0.239-0.359,0.542-0.483,0.842
	c-0.689,1.665-1.081,3.433-1.437,5.201v5.212c0,0.332,0.27,0.602,0.602,0.602h0.852h11.611c0.332,0,0.601-0.27,0.601-0.602v-12.464
	c0-0.11-0.038-0.208-0.09-0.297C467.318,238.178,467.132,238.052,466.911,238.052z"/>
<path id="XMLID_1112_" class="st2" d="M395.959,225.206c1.103-0.218,2.39-0.588,2.757-1.652c0.232-0.674,0.001-1.41-0.229-2.084
	c-0.031-0.09-0.062-0.18-0.092-0.271l-4.986-7.697c-0.147-0.227-0.356-0.275-0.505-0.275c-0.149,0-0.358,0.048-0.505,0.275
	l-7.531,11.627c-0.161,0.248-0.102,0.472-0.024,0.615c0.078,0.144,0.233,0.315,0.528,0.315h6.27
	C393.081,225.775,394.52,225.491,395.959,225.206z"/>
<path id="XMLID_1111_" class="st2" d="M329.788,280.088c0-1.404-0.435-2.708-1.175-3.787c-1.211-1.767-3.243-2.929-5.542-2.929
	c-3.704,0-6.717,3.013-6.717,6.717c0,2.83,1.762,5.252,4.245,6.24c0.766,0.305,1.599,0.478,2.473,0.478
	C326.775,286.805,329.788,283.792,329.788,280.088z"/>
<path id="XMLID_1110_" class="st2" d="M466.911,238.052h-6.344h-6.12c-0.332,0-0.602,0.27-0.602,0.602v7.251v5.212
	c0,0.332,0.27,0.602,0.602,0.602h0.852h11.611c0.332,0,0.601-0.27,0.601-0.602v-12.464c0-0.11-0.038-0.208-0.09-0.297
	C467.318,238.178,467.132,238.052,466.911,238.052z"/>
<path id="XMLID_1109_" class="st2" d="M400.964,225.745c0.077-0.144,0.137-0.366-0.024-0.615l-2.546-3.93l-2.156-3.328
	c-0.179-0.121-0.359-0.241-0.544-0.352c-0.796-0.478-1.753-0.824-2.646-0.569c-0.666,0.19-1.196,0.684-1.694,1.166
	c-1.861,1.801-3.668,3.659-5.417,5.569c-0.092,0.1-0.2,0.201-0.315,0.278l-0.755,1.166c-0.161,0.248-0.102,0.472-0.024,0.615
	c0.078,0.144,0.233,0.315,0.528,0.315h6.27h8.793C400.731,226.06,400.886,225.889,400.964,225.745z"/>
<path id="XMLID_1108_" class="st2" d="M329.788,280.088c0-1.404-0.435-2.708-1.175-3.787c-1.211-1.767-3.243-2.929-5.542-2.929
	c-3.704,0-6.717,3.013-6.717,6.717c0,2.83,1.762,5.252,4.245,6.24c0.766,0.305,1.599,0.478,2.473,0.478
	C326.775,286.805,329.788,283.792,329.788,280.088z"/>
<path id="XMLID_1107_" class="st2" d="M466.911,238.052h-6.344h-6.12c-0.332,0-0.602,0.27-0.602,0.602v7.251v5.212
	c0,0.332,0.27,0.602,0.602,0.602h0.852h11.611c0.332,0,0.601-0.27,0.601-0.602v-12.464c0-0.11-0.038-0.208-0.09-0.297
	C467.318,238.178,467.132,238.052,466.911,238.052z"/>
<path id="XMLID_1106_" class="st2" d="M329.788,280.088c0-1.404-0.435-2.708-1.175-3.787c-1.211-1.767-3.243-2.929-5.542-2.929
	c-3.704,0-6.717,3.013-6.717,6.717c0,2.83,1.762,5.252,4.245,6.24c0.766,0.305,1.599,0.478,2.473,0.478
	C326.775,286.805,329.788,283.792,329.788,280.088z"/>
<path id="XMLID_1105_" class="st2" d="M400.435,226.06c0.296,0,0.451-0.171,0.529-0.315c0.077-0.144,0.137-0.366-0.024-0.615
	l-2.546-3.93l-2.156-3.328l-2.83-4.369c-0.147-0.227-0.356-0.275-0.505-0.275c-0.149,0-0.358,0.048-0.505,0.275l-6.776,10.461
	l-0.755,1.166c-0.161,0.248-0.102,0.472-0.024,0.615c0.078,0.144,0.233,0.315,0.528,0.315h6.27H400.435z"/>
<path id="XMLID_1104_" class="st2" d="M466.911,238.052h-6.344h-6.12c-0.332,0-0.602,0.27-0.602,0.602v7.251v5.212
	c0,0.332,0.27,0.602,0.602,0.602h0.852h11.611c0.332,0,0.601-0.27,0.601-0.602v-12.464c0-0.11-0.038-0.208-0.09-0.297
	C467.318,238.178,467.132,238.052,466.911,238.052z"/>
<path id="XMLID_1103_" class="st2" d="M378.727,357.952c0.271-0.058,0.548-0.114,0.787-0.253c0.24-0.139,0.439-0.38,0.45-0.657
	c0.009-0.228-0.107-0.441-0.226-0.636c-0.698-1.142-1.632-2.137-2.718-2.919c-0.174-0.059-0.354-0.116-0.561-0.172
	c-0.09-0.023-0.18-0.049-0.279-0.071c-0.215-0.05-0.433-0.088-0.663-0.122l-0.321-0.052c-0.341-0.039-0.657-0.058-0.954-0.059
	h-0.072c-0.301,0.001-0.616,0.02-0.963,0.059l-0.32,0.051c-0.226,0.034-0.449,0.073-0.672,0.124l-0.312,0.081
	c-0.239,0.065-0.473,0.139-0.699,0.223l-0.216,0.077c-0.382,0.151-0.741,0.32-1.068,0.502c-1.576,0.883-2.813,2.211-3.589,3.774
	c-0.205,0.413,0.098,0.901,0.559,0.901h8.8C376.69,358.47,377.699,358.173,378.727,357.952z"/>
<path id="XMLID_1095_" class="st1" d="M379.946,351.52c-0.46-0.258-0.94-0.481-1.436-0.676c-0.091-0.036-0.184-0.067-0.276-0.101
	c-0.31-0.113-0.626-0.214-0.948-0.302c-0.143-0.039-0.286-0.077-0.431-0.111c-0.291-0.067-0.587-0.119-0.885-0.164
	c-0.146-0.022-0.29-0.05-0.438-0.067c-0.424-0.048-0.853-0.076-1.288-0.078c-0.014,0-0.027-0.002-0.041-0.002
	c-0.013,0-0.025,0.002-0.038,0.002c-0.437,0.001-0.867,0.03-1.292,0.078c-0.147,0.017-0.29,0.045-0.436,0.066
	c-0.3,0.045-0.596,0.098-0.888,0.165c-0.145,0.033-0.287,0.072-0.429,0.11c-0.322,0.087-0.638,0.188-0.948,0.301
	c-0.093,0.034-0.186,0.066-0.277,0.102c-0.495,0.195-0.974,0.418-1.433,0.675c-3.421,1.916-5.791,5.487-6.014,9.631
	c-0.019,0.35,0.273,0.642,0.624,0.642h22.263c0.35,0,0.643-0.292,0.624-0.642C385.735,357.007,383.366,353.437,379.946,351.52z
	 M366.334,357.901c0.776-1.563,2.013-2.891,3.589-3.774c0.327-0.182,0.686-0.351,1.068-0.502l0.216-0.077
	c0.226-0.084,0.46-0.158,0.699-0.223l0.312-0.081c0.223-0.051,0.446-0.09,0.672-0.124l0.32-0.051
	c0.347-0.039,0.663-0.058,0.963-0.059h0.072c0.297,0.001,0.613,0.02,0.954,0.059l0.321,0.052c0.23,0.034,0.449,0.072,0.663,0.122
	c0.099,0.022,0.189,0.048,0.279,0.071c0.207,0.056,0.387,0.113,0.561,0.172c0.064,0.022,0.129,0.042,0.191,0.065l0.119,0.043
	c0.471,0.184,0.832,0.353,1.154,0.533c1.575,0.883,2.812,2.21,3.587,3.773c0.205,0.413-0.098,0.901-0.559,0.901h-5.821h-8.8
	C366.431,358.802,366.128,358.314,366.334,357.901z"/>
<path id="XMLID_1092_" class="st1" d="M406.931,350.844c0.091-0.036,0.185-0.068,0.277-0.102
	C407.116,350.777,407.023,350.808,406.931,350.844z"/>
<path id="XMLID_1089_" class="st1" d="M415.27,350.743c0.092,0.034,0.185,0.065,0.276,0.101
	C415.455,350.808,415.362,350.777,415.27,350.743z"/>
<path id="XMLID_1086_" class="st3" d="M413.891,350.331c0.145,0.033,0.288,0.072,0.431,0.111
	C414.179,350.402,414.036,350.364,413.891,350.331z"/>
<path id="XMLID_1083_" class="st1" d="M413.891,350.331c0.145,0.033,0.288,0.072,0.431,0.111
	C414.179,350.402,414.036,350.364,413.891,350.331z"/>
<path id="XMLID_1080_" class="st1" d="M408.157,350.441c0.142-0.039,0.285-0.077,0.429-0.11
	C408.442,350.364,408.3,350.402,408.157,350.441z"/>
<path id="XMLID_1077_" class="st3" d="M411.28,350.022c-0.014,0-0.027-0.002-0.04-0.002c-0.013,0-0.025,0.002-0.038,0.002
	c0.013,0,0.025-0.002,0.038-0.002C411.253,350.02,411.266,350.022,411.28,350.022z"/>
<path id="XMLID_1074_" class="st1" d="M411.28,350.022c-0.014,0-0.027-0.002-0.04-0.002c-0.013,0-0.025,0.002-0.038,0.002
	c0.013,0,0.025-0.002,0.038-0.002C411.253,350.02,411.266,350.022,411.28,350.022z"/>
<path id="XMLID_1071_" class="st1" d="M409.474,350.166c0.145-0.022,0.289-0.05,0.436-0.066
	C409.763,350.116,409.62,350.144,409.474,350.166z"/>
<path id="XMLID_1068_" class="st1" d="M412.568,350.099c0.148,0.017,0.292,0.045,0.438,0.067
	C412.86,350.144,412.715,350.116,412.568,350.099z"/>
<g id="XMLID_1052_">
	<path id="XMLID_1065_" class="st4" d="M322.684,275.37c0.495,0.75-0.415,1.089-1.39,1.733c-0.975,0.644-1.644,1.348-2.14,0.598
		s-0.106-1.879,0.868-2.523C320.998,274.535,322.189,274.62,322.684,275.37z"/>
	<polygon id="XMLID_1062_" class="st4" points="355.53,276.81 358.73,276.53 355.53,292.31 	"/>
	<path id="XMLID_1059_" class="st4" d="M391.38,251.57c0,0-3.64,0.84-8.39,2.19l0.19-1.91v-0.02c1.81-0.12,3.62-0.2,5.42-0.23
		c0.6-0.01,1.2-0.02,1.79-0.02C390.72,251.57,391.05,251.57,391.38,251.57z"/>
	<path id="XMLID_1058_" class="st4" d="M455.765,239.862c0.262-0.283,0.619-0.454,0.967-0.618c0.83-0.392,1.667-0.787,2.56-0.999
		c0.42-0.099,0.846-0.157,1.275-0.192h-6.12c-0.332,0-0.602,0.27-0.602,0.602v7.251c0.356-1.769,0.748-3.536,1.437-5.201
		C455.406,240.403,455.544,240.1,455.765,239.862z"/>
	<path id="XMLID_1055_" class="st4" d="M391.355,218.117c0.498-0.482,1.028-0.976,1.694-1.166c0.893-0.254,1.85,0.091,2.646,0.569
		c0.185,0.111,0.365,0.23,0.544,0.352l-2.83-4.369c-0.147-0.227-0.356-0.275-0.505-0.275c-0.149,0-0.358,0.048-0.505,0.275
		l-6.776,10.461c0.115-0.078,0.223-0.178,0.315-0.278C387.686,221.776,389.493,219.918,391.355,218.117z"/>
	<path id="XMLID_1054_" class="st4" d="M371.187,355.882c-0.982,0.637-1.768,1.206-2.094,0.704
		c-0.326-0.502,0.206-1.426,1.188-2.063c0.982-0.637,2.043-0.747,2.368-0.244C372.976,354.781,372.169,355.245,371.187,355.882z"/>
	<path id="XMLID_1053_" class="st4" d="M408.223,355.882c-0.982,0.637-1.768,1.206-2.094,0.704
		c-0.326-0.502,0.206-1.426,1.188-2.063c0.982-0.637,2.043-0.747,2.368-0.244C410.012,354.781,409.205,355.245,408.223,355.882z"/>
</g>
<path id="XMLID_1051_" class="st2" d="M415.763,357.952c0.271-0.058,0.548-0.114,0.788-0.253c0.24-0.139,0.439-0.38,0.45-0.657
	c0.009-0.228-0.107-0.441-0.226-0.636c-0.698-1.142-1.632-2.137-2.718-2.919c-0.174-0.059-0.354-0.116-0.561-0.172
	c-0.09-0.023-0.18-0.049-0.279-0.071c-0.215-0.05-0.434-0.088-0.663-0.122l-0.321-0.052c-0.341-0.039-0.657-0.058-0.954-0.059
	h-0.072c-0.301,0.001-0.616,0.02-0.963,0.059l-0.32,0.051c-0.226,0.034-0.449,0.073-0.672,0.124l-0.312,0.081
	c-0.239,0.065-0.473,0.139-0.699,0.223l-0.216,0.077c-0.382,0.151-0.742,0.32-1.068,0.502c-1.576,0.883-2.813,2.211-3.589,3.774
	c-0.205,0.413,0.098,0.901,0.559,0.901h8.8C413.726,358.47,414.735,358.173,415.763,357.952z"/>
<path id="XMLID_1050_" class="st2" d="M328.359,277.277c0.095-0.317,0.184-0.645,0.254-0.977c-1.211-1.767-3.243-2.929-5.542-2.929
	c-3.704,0-6.717,3.013-6.717,6.717c0,2.83,1.762,5.252,4.245,6.24c1.379-0.582,2.743-1.194,3.882-2.151
	C326.531,282.455,327.594,279.843,328.359,277.277z"/>
<path id="XMLID_1049_" class="st2" d="M464.319,245.479c1.647-2.039,2.718-4.531,3.103-7.123c-0.104-0.179-0.29-0.305-0.511-0.305
	h-6.344h-6.12c-0.332,0-0.602,0.27-0.602,0.602v7.251v5.212c0,0.332,0.27,0.602,0.602,0.602h0.852
	c0.069-0.031,0.139-0.063,0.208-0.093C458.819,250.173,462.047,248.292,464.319,245.479z"/>
<path id="XMLID_1048_" class="st2" d="M398.716,223.555c0.232-0.674,0.001-1.41-0.229-2.084c-0.031-0.09-0.062-0.18-0.092-0.271
	l-2.156-3.328l-2.83-4.369c-0.147-0.227-0.356-0.275-0.505-0.275c-0.149,0-0.358,0.048-0.505,0.275l-6.776,10.461l-0.755,1.166
	c-0.161,0.248-0.102,0.472-0.024,0.615c0.078,0.144,0.233,0.315,0.528,0.315h6.27c1.439-0.285,2.878-0.569,4.317-0.854
	C397.062,224.988,398.349,224.618,398.716,223.555z"/>
<path id="XMLID_1045_" class="st1" d="M402.075,338.435h-18.707c0.333,0.978,0.522,2.023,0.522,3.112l0,2.304h17.663l0-2.304
	C401.552,340.458,401.741,339.414,402.075,338.435z"/>
<path id="XMLID_1042_" class="st1" d="M380.9,341.547c0-3.699-2.998-6.697-6.697-6.697c-3.699,0-6.697,2.998-6.697,6.697v7.661
	c0,0.005,0.001,0.01,0.001,0.015c1.998-1.069,4.277-1.679,6.697-1.679c2.42,0,4.698,0.61,6.696,1.679
	c0-0.005,0.001-0.01,0.001-0.015V341.547z"/>
<path id="XMLID_1039_" class="st1" d="M417.936,341.547c0-3.699-2.998-6.697-6.697-6.697c-3.699,0-6.697,2.998-6.697,6.697v7.661
	c0,0.005,0.001,0.01,0.001,0.015c1.998-1.069,4.277-1.679,6.697-1.679c2.42,0,4.698,0.61,6.696,1.679
	c0-0.005,0.001-0.01,0.001-0.015V341.547z"/>
<g id="XMLID_1020_">
	<path id="XMLID_1036_" class="st5" d="M427.329,338.435c0.675,0,1.223-0.549,1.223-1.224v-62.405c0,0-3.154,60.516-6.702,63.628
		H427.329z"/>
	<path id="XMLID_1033_" class="st5" d="M329.788,280.088c0-1.404-0.435-2.708-1.175-3.787c-0.071,0.332-0.16,0.66-0.254,0.977
		c-0.765,2.565-1.828,5.178-3.878,6.9c-1.139,0.957-2.504,1.569-3.882,2.151c0.766,0.305,1.599,0.478,2.473,0.478
		C326.775,286.805,329.788,283.792,329.788,280.088z"/>
	<path id="XMLID_1030_" class="st5" d="M464.319,245.479c-2.272,2.813-5.5,4.694-8.811,6.147c-0.069,0.03-0.139,0.063-0.208,0.093
		h11.611c0.332,0,0.601-0.27,0.601-0.602v-12.464c0-0.11-0.038-0.208-0.09-0.297C467.037,240.948,465.966,243.439,464.319,245.479z"
		/>
	<path id="XMLID_1027_" class="st5" d="M400.964,225.745c0.077-0.144,0.137-0.366-0.024-0.615l-2.546-3.93
		c0.031,0.09,0.062,0.18,0.092,0.271c0.23,0.674,0.461,1.41,0.229,2.084c-0.367,1.063-1.653,1.433-2.757,1.652
		c-1.439,0.285-2.878,0.569-4.317,0.854h8.793C400.731,226.06,400.886,225.889,400.964,225.745z"/>
	<path id="XMLID_1024_" class="st5" d="M378.485,354.128c-0.322-0.18-0.683-0.349-1.154-0.533l-0.119-0.043
		c-0.062-0.023-0.127-0.043-0.191-0.065c1.086,0.782,2.02,1.777,2.718,2.919c0.119,0.195,0.235,0.408,0.226,0.636
		c-0.011,0.277-0.211,0.518-0.45,0.657c-0.24,0.139-0.517,0.195-0.787,0.253c-1.028,0.22-2.037,0.518-3.035,0.85h5.821
		c0.461,0,0.764-0.488,0.559-0.901C381.297,356.338,380.06,355.011,378.485,354.128z"/>
	<path id="XMLID_1021_" class="st5" d="M415.521,354.128c-0.322-0.18-0.683-0.349-1.154-0.533l-0.119-0.043
		c-0.062-0.023-0.127-0.043-0.191-0.065c1.086,0.782,2.02,1.777,2.718,2.919c0.119,0.195,0.235,0.408,0.226,0.636
		c-0.011,0.277-0.211,0.518-0.45,0.657c-0.24,0.139-0.517,0.195-0.788,0.253c-1.028,0.22-2.037,0.518-3.035,0.85h5.821
		c0.461,0,0.764-0.488,0.559-0.901C418.333,356.338,417.097,355.011,415.521,354.128z"/>
</g>
<path id="XMLID_1012_" class="st1" d="M416.982,351.52c-0.46-0.258-0.94-0.481-1.436-0.676c-0.091-0.036-0.184-0.067-0.276-0.101
	c-0.31-0.113-0.626-0.214-0.948-0.302c-0.143-0.039-0.286-0.077-0.431-0.111c-0.291-0.067-0.587-0.119-0.885-0.164
	c-0.146-0.022-0.29-0.05-0.438-0.067c-0.423-0.048-0.853-0.076-1.288-0.078c-0.014,0-0.027-0.002-0.041-0.002
	c-0.013,0-0.025,0.002-0.038,0.002c-0.437,0.001-0.867,0.03-1.292,0.078c-0.147,0.017-0.29,0.045-0.436,0.066
	c-0.3,0.045-0.596,0.098-0.888,0.165c-0.145,0.033-0.287,0.072-0.429,0.11c-0.322,0.087-0.638,0.188-0.948,0.301
	c-0.092,0.034-0.186,0.066-0.277,0.102c-0.495,0.195-0.974,0.418-1.433,0.675c-3.421,1.916-5.791,5.487-6.014,9.631
	c-0.019,0.35,0.273,0.642,0.624,0.642h22.263c0.35,0,0.643-0.292,0.624-0.642C422.771,357.007,420.402,353.437,416.982,351.52z
	 M403.37,357.901c0.776-1.563,2.013-2.891,3.589-3.774c0.327-0.182,0.686-0.351,1.068-0.502l0.216-0.077
	c0.226-0.084,0.46-0.158,0.699-0.223l0.312-0.081c0.223-0.051,0.446-0.09,0.672-0.124l0.32-0.051
	c0.347-0.039,0.663-0.058,0.963-0.059h0.072c0.297,0.001,0.613,0.02,0.954,0.059l0.321,0.052c0.23,0.034,0.449,0.072,0.663,0.122
	c0.099,0.022,0.189,0.048,0.279,0.071c0.207,0.056,0.387,0.113,0.561,0.172c0.064,0.022,0.129,0.042,0.191,0.065l0.119,0.043
	c0.471,0.184,0.832,0.353,1.154,0.533c1.575,0.883,2.812,2.21,3.587,3.773c0.205,0.413-0.098,0.901-0.559,0.901h-5.821h-8.8
	C403.467,358.802,403.165,358.314,403.37,357.901z"/>
<path id="XMLID_1011_" class="st3" d="M412.456,301.297c-13.682,3.818-27.364,3.818-41.046,0c-3.615-1.009-6.135-4.277-6.135-8.03
	v-10.919c0-3.085,1.72-5.898,4.436-7.361c13.847-7.457,28.604-7.382,44.271,0.227c2.838,1.378,4.609,4.292,4.609,7.447v10.606
	C418.591,297.02,416.071,300.288,412.456,301.297z"/>
<circle id="XMLID_1010_" class="st1" cx="382.324" cy="286.805" r="4.515"/>
<circle id="XMLID_1009_" class="st1" cx="404.907" cy="286.805" r="4.515"/>
<g id="XMLID_1006_">
	<path id="XMLID_1008_" class="st6" d="M383.432,301.642c9.501,1.119,19.041,0.371,28.487-2.265h0.001
		c2.754-0.769,4.678-3.281,4.678-6.11v-4.051C413.333,292.985,404.532,299.968,383.432,301.642z"/>
	<path id="XMLID_1007_" class="st6" d="M413.112,277.007c-7.689-3.734-15.045-5.602-22.167-5.602
		c-6.953,0-13.683,1.779-20.289,5.336c-0.784,0.422-1.456,0.988-1.99,1.654C388.921,269.856,413.112,277.007,413.112,277.007z"/>
</g>
<path id="XMLID_1003_" class="st1" d="M414.853,273.421c-16.201-7.869-31.708-7.932-46.087-0.189
	c-3.383,1.822-5.485,5.315-5.485,9.115v10.919c0,4.611,3.122,8.702,7.593,9.949c6.987,1.95,14.023,2.925,21.059,2.925
	c7.036,0,14.072-0.975,21.058-2.925c4.471-1.247,7.593-5.339,7.593-9.949V282.66C420.584,278.739,418.334,275.112,414.853,273.421z
	 M367.268,293.267v-10.919c0-1.458,0.507-2.843,1.398-3.953c0.534-0.666,1.207-1.232,1.99-1.654
	c6.606-3.557,13.336-5.336,20.289-5.336c7.122,0,14.478,1.867,22.167,5.602c2.118,1.028,3.487,3.247,3.487,5.653v6.555v4.051
	c0,2.829-1.924,5.342-4.678,6.11h-0.001c-9.446,2.637-18.986,3.384-28.487,2.265c-3.838-0.452-7.67-1.2-11.486-2.265
	C369.192,298.608,367.268,296.095,367.268,293.267z"/>
<path id="XMLID_1002_" class="st2" d="M329.788,280.088c0-1.404-0.435-2.708-1.175-3.787c-1.211-1.767-3.243-2.929-5.542-2.929
	c-3.704,0-6.717,3.013-6.717,6.717c0,2.83,1.762,5.252,4.245,6.24c0.766,0.305,1.599,0.478,2.473,0.478
	C326.775,286.805,329.788,283.792,329.788,280.088z"/>
<path id="XMLID_1001_" class="st2" d="M400.964,225.745c0.077-0.144,0.137-0.366-0.024-0.615l-2.546-3.93l-2.156-3.328l-2.83-4.369
	c-0.147-0.227-0.356-0.274-0.505-0.274c-0.149,0-0.358,0.048-0.505,0.274l-6.776,10.461l-0.755,1.166
	c-0.161,0.248-0.102,0.472-0.023,0.615c0.078,0.144,0.233,0.315,0.528,0.315h6.27h8.793
	C400.731,226.06,400.886,225.889,400.964,225.745z"/>
<path id="XMLID_1000_" class="st2" d="M466.911,238.052h-6.344h-6.12c-0.332,0-0.602,0.27-0.602,0.602v7.251v5.213
	c0,0.332,0.27,0.602,0.602,0.602h0.852h11.611c0.332,0,0.601-0.27,0.601-0.602v-12.464c0-0.11-0.038-0.208-0.09-0.297
	C467.318,238.178,467.132,238.052,466.911,238.052z"/>
<path id="XMLID_990_" class="st1" d="M466.911,232.877h-12.464c-3.185,0-5.776,2.591-5.776,5.776v12.464
	c0,3.185,2.591,5.776,5.776,5.776h3.214v15.718c0,13.709-10.38,25.033-23.693,26.539v-41.018c0-2.939-1.956-5.556-4.751-6.363
	c-0.676-0.2-1.362-0.39-2.018-0.566c-6.215-1.713-12.456-3.004-18.546-3.837c-1.022-0.141-2.043-0.274-3.053-0.387
	c-3.192-0.367-6.437-0.609-9.679-0.732v-15.014h4.514c2.118,0,4.063-1.156,5.074-3.017c1.012-1.861,0.926-4.122-0.227-5.899
	l-7.531-11.627c-1.069-1.651-2.882-2.636-4.848-2.636c-1.966,0-3.779,0.985-4.848,2.636l-7.531,11.627
	c-1.152,1.778-1.238,4.038-0.227,5.899c1.012,1.861,2.956,3.017,5.074,3.017h4.513v14.933c-2.035,0.017-4.09,0.089-6.15,0.212
	l-0.552,5.469c2.412-0.164,4.823-0.262,7.212-0.273c0.328-0.007,0.656-0.01,0.985-0.01c0.55,0,1.1,0.008,1.658,0.019
	c3.998,0.064,8.019,0.326,11.954,0.777c0.972,0.108,1.945,0.235,2.922,0.37c5.855,0.8,11.863,2.044,17.865,3.698
	c0.633,0.17,1.274,0.347,1.927,0.541c0.498,0.143,0.846,0.62,0.846,1.162v16.674v62.405c0,0.675-0.548,1.224-1.223,1.224h-5.48
	h-1.445c0.333,0.978,0.522,2.023,0.522,3.112l0,2.304h3.88h2.523c3.661,0,6.639-2.979,6.639-6.64v-31.994
	c16.647-1.531,29.73-15.566,29.73-32.606v-15.718h3.214c3.185,0,5.776-2.591,5.776-5.776v-12.464
	C472.686,235.469,470.096,232.877,466.911,232.877z M391.642,226.06h-6.27c-0.296,0-0.451-0.171-0.528-0.315
	c-0.078-0.143-0.137-0.366,0.023-0.615l0.755-1.166l6.776-10.461c0.147-0.227,0.356-0.274,0.505-0.274
	c0.149,0,0.358,0.048,0.505,0.274l2.83,4.369l2.156,3.328l2.546,3.93c0.161,0.248,0.101,0.471,0.024,0.615
	c-0.078,0.144-0.233,0.315-0.529,0.315H391.642z M467.512,251.118c0,0.332-0.27,0.602-0.601,0.602h-11.611h-0.852
	c-0.332,0-0.602-0.27-0.602-0.602v-5.213v-7.251c0-0.332,0.27-0.602,0.602-0.602h6.12h6.344c0.221,0,0.407,0.126,0.511,0.305
	c0.052,0.089,0.09,0.187,0.09,0.297V251.118z"/>
<path id="XMLID_982_" class="st1" d="M350.109,315.134c-12.488-1.257-22.462-11.151-23.85-23.601
	c5.011-1.398,8.703-5.993,8.703-11.444c0-6.557-5.334-11.891-11.891-11.891c-6.557,0-11.891,5.334-11.891,11.891
	c0,5.566,3.849,10.237,9.021,11.526c1.466,15.742,14.118,28.278,29.908,29.572v16.025c0,3.661,2.975,6.64,6.63,6.64h5.691h2.086
	l0-2.304c0-1.09,0.189-2.134,0.522-3.112h-8.299c-0.67,0-1.214-0.549-1.214-1.224v-44.906v-15.491l-5.416,0.47V315.134z
	 M320.599,286.327c-2.483-0.987-4.245-3.409-4.245-6.24c0-3.703,3.013-6.717,6.717-6.717c2.299,0,4.331,1.162,5.542,2.929
	c0.74,1.079,1.175,2.383,1.175,3.787c0,3.704-3.013,6.717-6.717,6.717C322.198,286.805,321.365,286.632,320.599,286.327z"/>
<g id="XMLID_977_">
	<path id="XMLID_978_" class="st1" d="M337.278,275.453l18.991-18.211l-12.414-0.236l0.069-3.647l15.118,0.287l0.657-15.82
		l3.645,0.152l-0.54,12.997l18.731-17.963l-2.82,24.656l-16.177-0.307l-0.651,15.671L337.278,275.453z M358.783,259.885
		l-11.371,10.905l10.963-1.079L358.783,259.885z M376.763,242.644l-11.593,11.117l10.3,0.195L376.763,242.644z"/>
</g>
</svg>
