<svg version="1.1" id="Layer_1" xmlns="http://www.w3.org/2000/svg" xmlns:xlink="http://www.w3.org/1999/xlink" x="0px" y="0px"
	 viewBox="0 0 205.524 195.891" style="enable-background:new 0 0 205.524 195.891;" xml:space="preserve">
<style type="text/css">
	.st0{fill:#414042;}
	.st1{fill:#0085D5;}
	.st2{fill:none;}
	.st3{fill:#FFFFFF;}
	.st4{fill:#68C3FC;}
	.st5{fill:#02619A;}
	.st6{fill:#E8E8E8;}
</style>
<path id="XMLID_1985_" class="st0" d="M1.924,195.853c1.04,0,1.887-0.847,1.887-1.924v-23.248c0-1.041-0.847-1.887-1.887-1.887
	c-1.077,0-1.924,0.847-1.924,1.887v23.248C0,195.006,0.847,195.853,1.924,195.853z"/>
<path id="XMLID_1979_" class="st0" d="M50.772,176.569c-2.309,0-4.388,1.001-5.812,2.656c-1.424-1.655-3.503-2.656-5.812-2.656
	c-4.273,0-7.736,3.464-7.736,7.699v9.699c0,1.077,0.847,1.924,1.924,1.924c1.04,0,1.886-0.847,1.886-1.924v-9.699
	c0-2.156,1.77-3.888,3.926-3.888s3.888,1.732,3.888,3.888v9.699c0,1.077,0.885,1.924,1.925,1.924c1.039,0,1.886-0.847,1.886-1.924
	v-9.699c0-2.156,1.77-3.888,3.926-3.888s3.927,1.732,3.927,3.888c0,0.076,0,0.115,0,0.153c0,0.078,0,0.116,0,0.193v9.354
	c0,1.077,0.847,1.924,1.886,1.924c1.039,0,1.925-0.847,1.925-1.924v-9.354c0-0.076,0-0.115-0.039-0.193
	c0.039-0.038,0.039-0.076,0.039-0.153C58.509,180.033,55.044,176.569,50.772,176.569z"/>
<path id="XMLID_1976_" class="st0" d="M101.241,195.853c1.039,0,1.886-0.847,1.886-1.924v-21.286h5.851
	c1.039,0,1.886-0.847,1.886-1.886c0-1.077-0.847-1.924-1.886-1.924H93.504c-1.077,0-1.924,0.847-1.924,1.924
	c0,1.039,0.847,1.886,1.924,1.886h5.812v21.286C99.317,195.006,100.163,195.853,101.241,195.853z"/>
<path id="XMLID_1968_" class="st0" d="M128.611,195.815c5.35,0,9.661-4.349,9.661-9.661c0-5.35-4.311-9.661-9.661-9.661
	c-5.312,0-9.661,4.311-9.661,9.661C118.95,191.465,123.299,195.815,128.611,195.815z M128.611,180.302
	c3.233,0,5.851,2.618,5.851,5.851c0,3.194-2.618,5.85-5.851,5.85c-3.234,0-5.851-2.656-5.851-5.85
	C122.761,182.92,125.378,180.302,128.611,180.302z"/>
<path id="XMLID_1965_" class="st0" d="M169.838,176.569c-2.309,0-4.387,1.001-5.812,2.656c-1.424-1.655-3.503-2.656-5.812-2.656
	c-4.273,0-7.737,3.464-7.737,7.699v9.699c0,1.077,0.847,1.924,1.924,1.924c1.039,0,1.886-0.847,1.886-1.924v-9.699
	c0-2.156,1.771-3.888,3.927-3.888c2.155,0,3.886,1.732,3.886,3.888v9.699c0,1.077,0.886,1.924,1.925,1.924
	c1.039,0,1.886-0.847,1.886-1.924v-9.699c0-2.156,1.771-3.888,3.926-3.888c2.156,0,3.926,1.732,3.926,3.888c0,0.076,0,0.115,0,0.153
	c0,0.078,0,0.116,0,0.193v9.354c0,1.077,0.847,1.924,1.886,1.924c1.041,0,1.925-0.847,1.925-1.924v-9.354
	c0-0.076,0-0.115-0.038-0.193c0.038-0.038,0.038-0.076,0.038-0.153C177.575,180.033,174.111,176.569,169.838,176.569z"/>
<path id="XMLID_1962_" class="st0" d="M197.711,195.853c4.311,0,7.775-3.464,7.814-7.737v-0.038v-9.661
	c0-1.039-0.847-1.886-1.886-1.886c-1.079,0-1.925,0.847-1.925,1.886v9.623c0,2.194-1.77,4.004-4.002,4.004
	c-2.194,0-3.965-1.809-3.965-4.004v-9.623c0-1.039-0.847-1.886-1.924-1.886c-1.039,0-1.886,0.847-1.886,1.886v9.661v0.038
	C189.974,192.389,193.438,195.853,197.711,195.853z"/>
<g id="XMLID_1_">
	<g id="XMLID_2_">
		<g id="XMLID_151_">
			<path id="XMLID_157_" class="st1" d="M134.414,130.382h-6.97c-0.49-1.41-1.29-2.68-2.33-3.72c-0.29-0.29-0.6-0.56-0.93-0.81
				c-1.42-1.11-3.15-1.82-5.03-2c-0.31-0.03-0.62-0.05-0.94-0.05c-0.29,0-0.58,0.01-0.86,0.04c-1.18,0.1-2.31,0.42-3.33,0.91
				c-0.64,0.3-1.24,0.67-1.79,1.1c-0.29,0.23-0.57,0.47-0.83,0.72c-0.55,0.54-1.04,1.14-1.45,1.79c-0.39,0.63-0.72,1.3-0.97,2.02
				h-18.84c-0.39-1.13-0.98-2.16-1.73-3.06c-0.21-0.26-0.44-0.51-0.69-0.75c-1.21-1.18-2.73-2.06-4.43-2.48
				c-0.58-0.14-1.18-0.24-1.8-0.27c-0.19-0.01-0.38-0.02-0.57-0.02c-0.96,0-1.88,0.14-2.75,0.4c-0.63,0.18-1.23,0.42-1.8,0.73
				c-0.83,0.43-1.59,0.99-2.26,1.64c-0.55,0.53-1.04,1.13-1.45,1.79c-0.4,0.63-0.73,1.3-0.97,2.02h-8.36
				c-0.67,0-1.22-0.55-1.22-1.23v-79.15c0-0.55,0.36-1.01,0.92-1.18c0.47-0.15,0.93-0.29,1.43-0.43c5.88-1.75,11.9-3.05,17.91-3.84
				c0.93-0.13,1.86-0.25,2.8-0.35c4.01-0.43,8.06-0.66,12.05-0.68c0.33-0.01,0.66-0.01,0.99-0.01c0.56,0,1.11,0.01,1.67,0.02
				c4.03,0.06,8.07,0.32,12.04,0.77c0.98,0.11,1.95,0.24,2.94,0.38c5.89,0.8,11.94,2.04,17.99,3.69c0.64,0.17,1.28,0.35,1.94,0.54
				c0.5,0.15,0.85,0.62,0.85,1.17v16.67c0,0-0.81,54.62,0,60.04C136.454,132.222,134.414,130.382,134.414,130.382z"/>
			<path id="XMLID_156_" class="st1" d="M173.673,29.997h-12.464c-0.332,0-0.602,0.27-0.602,0.602v12.464
				c0,0.332,0.27,0.602,0.602,0.602h12.464c0.332,0,0.601-0.27,0.601-0.602V30.599C174.274,30.268,174.005,29.997,173.673,29.997z"
				/>
			<path id="XMLID_155_" class="st1" d="M107.726,17.691c0.077-0.144,0.137-0.366-0.024-0.615l-7.532-11.627
				c-0.147-0.227-0.356-0.275-0.505-0.275c-0.149,0-0.358,0.048-0.505,0.275l-7.531,11.627c-0.161,0.248-0.102,0.472-0.024,0.615
				c0.078,0.144,0.233,0.315,0.528,0.315h15.063C107.493,18.005,107.648,17.834,107.726,17.691z"/>
			<path id="XMLID_154_" class="st1" d="M36.551,72.034c0-3.703-3.013-6.717-6.717-6.717c-3.704,0-6.717,3.013-6.717,6.717
				c0,3.704,3.013,6.717,6.717,6.717C33.537,78.751,36.551,75.737,36.551,72.034z"/>
			<path id="XMLID_153_" class="st1" d="M85.247,146.074c-0.322-0.18-0.683-0.349-1.154-0.533l-0.119-0.043
				c-0.233-0.085-0.469-0.161-0.752-0.237c-0.09-0.023-0.18-0.049-0.279-0.071c-0.215-0.05-0.434-0.088-0.663-0.122l-0.321-0.052
				c-0.341-0.039-0.657-0.058-0.954-0.059h-0.072c-0.301,0.001-0.616,0.02-0.963,0.059l-0.32,0.051
				c-0.226,0.034-0.449,0.073-0.672,0.124l-0.312,0.081c-0.239,0.065-0.473,0.139-0.699,0.223l-0.216,0.077
				c-0.382,0.151-0.742,0.32-1.068,0.502c-1.576,0.883-2.813,2.211-3.589,3.774c-0.205,0.413,0.098,0.901,0.559,0.901h14.621
				c0.461,0,0.764-0.488,0.559-0.901C88.059,148.284,86.823,146.957,85.247,146.074z"/>
			<path id="XMLID_152_" class="st1" d="M122.283,146.074c-0.322-0.18-0.683-0.349-1.154-0.533l-0.119-0.043
				c-0.233-0.085-0.469-0.161-0.752-0.237c-0.09-0.023-0.18-0.049-0.279-0.071c-0.215-0.05-0.434-0.088-0.663-0.122l-0.321-0.052
				c-0.341-0.039-0.657-0.058-0.954-0.059h-0.072c-0.301,0.001-0.616,0.02-0.963,0.059l-0.32,0.051
				c-0.226,0.034-0.449,0.073-0.672,0.124l-0.312,0.081c-0.239,0.065-0.473,0.139-0.699,0.223l-0.216,0.077
				c-0.382,0.151-0.742,0.32-1.068,0.502c-1.576,0.883-2.813,2.211-3.589,3.774c-0.205,0.413,0.098,0.901,0.559,0.901h14.621
				c0.461,0,0.764-0.488,0.559-0.901C125.095,148.284,123.859,146.957,122.283,146.074z"/>
		</g>
	</g>
	<path id="XMLID_1952_" class="st2" d="M123.361,81.161v-6.555c0-2.406-1.368-4.625-3.487-5.653c0,0-24.191-7.151-44.446,1.388
		c-0.891,1.109-1.398,2.495-1.398,3.953v10.919c0,2.829,1.924,5.342,4.678,6.11c3.816,1.065,7.648,1.813,11.486,2.265
		C111.294,91.914,120.096,84.931,123.361,81.161z"/>
	<path id="XMLID_1948_" class="st2" d="M36.551,72.034c0-3.703-3.013-6.717-6.717-6.717s-6.717,3.013-6.717,6.717
		c0,3.704,3.013,6.717,6.717,6.717S36.551,75.737,36.551,72.034z"/>
	<path id="XMLID_1947_" class="st2" d="M107.726,17.691c0.077-0.144,0.137-0.366-0.024-0.615l-7.532-11.627
		c-0.147-0.227-0.356-0.275-0.505-0.275c-0.149,0-0.358,0.048-0.505,0.275l-7.531,11.627c-0.161,0.248-0.102,0.472-0.024,0.615
		c0.078,0.144,0.233,0.315,0.528,0.315h15.063C107.493,18.005,107.648,17.834,107.726,17.691z"/>
	<path id="XMLID_1946_" class="st2" d="M173.673,29.997h-12.464c-0.332,0-0.602,0.27-0.602,0.602v12.464
		c0,0.332,0.27,0.602,0.602,0.602h12.464c0.332,0,0.601-0.27,0.601-0.602V30.599C174.274,30.268,174.005,29.997,173.673,29.997z"/>
	<path id="XMLID_1945_" class="st2" d="M31.243,76.122c2.05-1.722,3.113-4.334,3.878-6.9c0.095-0.317,0.184-0.645,0.254-0.977
		c-1.211-1.767-3.243-2.929-5.542-2.929c-3.704,0-6.717,3.013-6.717,6.717c0,2.83,1.762,5.252,4.245,6.24
		C28.74,77.691,30.104,77.079,31.243,76.122z"/>
	<path id="XMLID_1944_" class="st2" d="M107.726,17.691c0.077-0.144,0.137-0.366-0.024-0.615l-7.532-11.627
		c-0.147-0.227-0.356-0.275-0.505-0.275c-0.149,0-0.358,0.048-0.505,0.275l-7.531,11.627c-0.161,0.248-0.102,0.472-0.024,0.615
		c0.078,0.144,0.233,0.315,0.528,0.315h15.063C107.493,18.005,107.648,17.834,107.726,17.691z"/>
	<path id="XMLID_1943_" class="st2" d="M173.673,29.997h-12.464c-0.332,0-0.602,0.27-0.602,0.602v12.464
		c0,0.332,0.27,0.602,0.602,0.602h12.464c0.332,0,0.601-0.27,0.601-0.602V30.599C174.274,30.268,174.005,29.997,173.673,29.997z"/>
	<path id="XMLID_1942_" class="st2" d="M107.726,17.691c0.077-0.144,0.137-0.366-0.024-0.615l-7.532-11.627
		c-0.147-0.227-0.356-0.275-0.505-0.275c-0.149,0-0.358,0.048-0.505,0.275l-7.531,11.627c-0.161,0.248-0.102,0.472-0.024,0.615
		c0.078,0.144,0.233,0.315,0.528,0.315h15.063C107.493,18.005,107.648,17.834,107.726,17.691z"/>
	<path id="XMLID_1941_" class="st2" d="M161.209,43.665h0.852c0.07-0.031,0.139-0.063,0.208-0.093
		c3.311-1.453,6.539-3.334,8.811-6.147c1.647-2.039,2.718-4.531,3.103-7.123c-0.104-0.179-0.29-0.305-0.511-0.305h-12.464
		c-0.332,0-0.602,0.27-0.602,0.602v12.464C160.607,43.395,160.877,43.665,161.209,43.665z"/>
	<path id="XMLID_1940_" class="st2" d="M36.551,72.034c0-1.404-0.435-2.708-1.175-3.787c-1.211-1.767-3.243-2.929-5.542-2.929
		c-3.704,0-6.717,3.013-6.717,6.717c0,2.83,1.762,5.252,4.245,6.24c0.766,0.305,1.599,0.478,2.473,0.478
		C33.537,78.751,36.551,75.737,36.551,72.034z"/>
	<path id="XMLID_1939_" class="st2" d="M107.726,17.691c0.077-0.144,0.137-0.366-0.024-0.615l-7.532-11.627
		c-0.147-0.227-0.356-0.275-0.505-0.275c-0.149,0-0.358,0.048-0.505,0.275l-7.531,11.627c-0.161,0.248-0.102,0.472-0.024,0.615
		c0.078,0.144,0.233,0.315,0.528,0.315h15.063C107.493,18.005,107.648,17.834,107.726,17.691z"/>
	<path id="XMLID_1938_" class="st2" d="M36.551,72.034c0-1.404-0.435-2.708-1.175-3.787c-1.211-1.767-3.243-2.929-5.542-2.929
		c-3.704,0-6.717,3.013-6.717,6.717c0,2.83,1.762,5.252,4.245,6.24c0.766,0.305,1.599,0.478,2.473,0.478
		C33.537,78.751,36.551,75.737,36.551,72.034z"/>
	<path id="XMLID_1937_" class="st2" d="M173.673,29.997h-6.344c-0.429,0.036-0.855,0.093-1.275,0.192
		c-0.893,0.212-1.731,0.607-2.56,0.999c-0.348,0.165-0.705,0.336-0.967,0.618c-0.221,0.239-0.359,0.542-0.483,0.842
		c-0.689,1.665-1.081,3.432-1.437,5.201v5.212c0,0.332,0.27,0.602,0.602,0.602h0.852h11.611c0.332,0,0.601-0.27,0.601-0.602V30.599
		c0-0.11-0.038-0.208-0.09-0.297C174.08,30.123,173.895,29.997,173.673,29.997z"/>
	<path id="XMLID_1935_" class="st2" d="M102.721,17.152c1.103-0.218,2.39-0.588,2.757-1.652c0.232-0.674,0.001-1.41-0.229-2.084
		c-0.031-0.09-0.062-0.18-0.092-0.271l-4.986-7.697c-0.147-0.227-0.356-0.275-0.505-0.275c-0.149,0-0.358,0.048-0.505,0.275
		l-7.531,11.627c-0.161,0.248-0.102,0.472-0.024,0.615c0.078,0.144,0.233,0.315,0.528,0.315h6.27
		C99.843,17.721,101.282,17.436,102.721,17.152z"/>
	<path id="XMLID_1934_" class="st2" d="M36.551,72.034c0-1.404-0.435-2.708-1.175-3.787c-1.211-1.767-3.243-2.929-5.542-2.929
		c-3.704,0-6.717,3.013-6.717,6.717c0,2.83,1.762,5.252,4.245,6.24c0.766,0.305,1.599,0.478,2.473,0.478
		C33.537,78.751,36.551,75.737,36.551,72.034z"/>
	<path id="XMLID_1933_" class="st2" d="M173.673,29.997h-6.344h-6.12c-0.332,0-0.602,0.27-0.602,0.602v7.251v5.212
		c0,0.332,0.27,0.602,0.602,0.602h0.852h11.611c0.332,0,0.601-0.27,0.601-0.602V30.599c0-0.11-0.038-0.208-0.09-0.297
		C174.08,30.123,173.895,29.997,173.673,29.997z"/>
	<path id="XMLID_1932_" class="st2" d="M107.726,17.691c0.077-0.144,0.137-0.366-0.024-0.615l-2.546-3.93l-2.156-3.328
		c-0.179-0.121-0.359-0.241-0.544-0.352c-0.796-0.478-1.753-0.824-2.646-0.569c-0.666,0.19-1.196,0.684-1.694,1.166
		c-1.861,1.801-3.668,3.659-5.417,5.569c-0.092,0.1-0.2,0.201-0.315,0.278l-0.755,1.166c-0.161,0.248-0.102,0.472-0.024,0.615
		c0.078,0.144,0.233,0.315,0.528,0.315h6.27h8.793C107.493,18.005,107.648,17.834,107.726,17.691z"/>
	<path id="XMLID_1931_" class="st2" d="M36.551,72.034c0-1.404-0.435-2.708-1.175-3.787c-1.211-1.767-3.243-2.929-5.542-2.929
		c-3.704,0-6.717,3.013-6.717,6.717c0,2.83,1.762,5.252,4.245,6.24c0.766,0.305,1.599,0.478,2.473,0.478
		C33.537,78.751,36.551,75.737,36.551,72.034z"/>
	<path id="XMLID_1930_" class="st2" d="M173.673,29.997h-6.344h-6.12c-0.332,0-0.602,0.27-0.602,0.602v7.251v5.212
		c0,0.332,0.27,0.602,0.602,0.602h0.852h11.611c0.332,0,0.601-0.27,0.601-0.602V30.599c0-0.11-0.038-0.208-0.09-0.297
		C174.08,30.123,173.895,29.997,173.673,29.997z"/>
	<path id="XMLID_1926_" class="st2" d="M36.551,72.034c0-1.404-0.435-2.708-1.175-3.787c-1.211-1.767-3.243-2.929-5.542-2.929
		c-3.704,0-6.717,3.013-6.717,6.717c0,2.83,1.762,5.252,4.245,6.24c0.766,0.305,1.599,0.478,2.473,0.478
		C33.537,78.751,36.551,75.737,36.551,72.034z"/>
	<path id="XMLID_1925_" class="st2" d="M107.197,18.005c0.296,0,0.451-0.171,0.529-0.315c0.077-0.144,0.137-0.366-0.024-0.615
		l-2.546-3.93l-2.156-3.328l-2.83-4.369c-0.147-0.227-0.356-0.275-0.505-0.275c-0.149,0-0.358,0.048-0.505,0.275L92.384,15.91
		l-0.755,1.166c-0.161,0.248-0.102,0.472-0.024,0.615c0.078,0.144,0.233,0.315,0.528,0.315h6.27H107.197z"/>
	<path id="XMLID_1924_" class="st2" d="M173.673,29.997h-6.344h-6.12c-0.332,0-0.602,0.27-0.602,0.602v7.251v5.212
		c0,0.332,0.27,0.602,0.602,0.602h0.852h11.611c0.332,0,0.601-0.27,0.601-0.602V30.599c0-0.11-0.038-0.208-0.09-0.297
		C174.08,30.123,173.895,29.997,173.673,29.997z"/>
	<path id="XMLID_1919_" class="st2" d="M85.489,149.898c0.271-0.058,0.548-0.114,0.788-0.253c0.24-0.139,0.439-0.38,0.45-0.657
		c0.009-0.228-0.107-0.441-0.226-0.636c-0.698-1.142-1.632-2.137-2.718-2.919c-0.174-0.059-0.354-0.116-0.561-0.172
		c-0.09-0.023-0.18-0.049-0.279-0.071c-0.215-0.05-0.433-0.088-0.663-0.122l-0.321-0.052c-0.341-0.039-0.657-0.058-0.954-0.059
		h-0.072c-0.301,0.001-0.616,0.02-0.963,0.059l-0.32,0.051c-0.226,0.034-0.449,0.073-0.672,0.124l-0.312,0.081
		c-0.239,0.065-0.473,0.139-0.699,0.223l-0.216,0.077c-0.382,0.151-0.741,0.32-1.068,0.502c-1.576,0.883-2.813,2.211-3.589,3.774
		c-0.205,0.413,0.098,0.901,0.559,0.901h8.8C83.452,150.416,84.461,150.118,85.489,149.898z"/>
	<path id="XMLID_1911_" class="st0" d="M86.708,143.466c-0.46-0.258-0.94-0.481-1.436-0.676c-0.091-0.036-0.184-0.067-0.276-0.101
		c-0.31-0.113-0.626-0.214-0.948-0.302c-0.143-0.039-0.286-0.077-0.431-0.111c-0.291-0.067-0.587-0.119-0.885-0.164
		c-0.146-0.022-0.29-0.05-0.438-0.067c-0.424-0.048-0.853-0.076-1.288-0.078c-0.014,0-0.027-0.002-0.041-0.002
		c-0.013,0-0.025,0.002-0.038,0.002c-0.437,0.001-0.867,0.03-1.292,0.078c-0.147,0.017-0.29,0.045-0.436,0.067
		c-0.3,0.045-0.596,0.098-0.888,0.165c-0.145,0.033-0.287,0.072-0.429,0.11c-0.322,0.087-0.638,0.188-0.948,0.301
		c-0.093,0.034-0.186,0.066-0.277,0.102c-0.495,0.195-0.974,0.418-1.433,0.675c-3.421,1.916-5.791,5.487-6.014,9.631
		c-0.019,0.35,0.273,0.642,0.624,0.642h22.263c0.35,0,0.643-0.292,0.624-0.642C92.498,148.952,90.129,145.382,86.708,143.466z
		 M73.096,149.846c0.776-1.563,2.013-2.891,3.589-3.774c0.327-0.182,0.686-0.351,1.068-0.502l0.216-0.077
		c0.226-0.084,0.46-0.158,0.699-0.223l0.312-0.081c0.223-0.051,0.446-0.09,0.672-0.124l0.32-0.051
		c0.347-0.039,0.663-0.058,0.963-0.059h0.072c0.297,0.001,0.613,0.02,0.954,0.059l0.321,0.052c0.23,0.034,0.449,0.072,0.663,0.122
		c0.099,0.022,0.189,0.048,0.279,0.071c0.207,0.056,0.387,0.113,0.561,0.172c0.064,0.022,0.129,0.042,0.191,0.065l0.119,0.043
		c0.471,0.184,0.832,0.353,1.154,0.533c1.575,0.883,2.812,2.21,3.587,3.773c0.205,0.413-0.098,0.901-0.559,0.901h-5.821h-8.8
		C73.193,150.748,72.891,150.26,73.096,149.846z"/>
	<path id="XMLID_1908_" class="st0" d="M113.694,142.79c0.091-0.036,0.185-0.068,0.277-0.102
		C113.879,142.722,113.785,142.753,113.694,142.79z"/>
	<path id="XMLID_1905_" class="st0" d="M122.032,142.688c0.092,0.034,0.185,0.065,0.276,0.101
		C122.217,142.753,122.124,142.722,122.032,142.688z"/>
	<path id="XMLID_1902_" class="st3" d="M120.654,142.276c0.145,0.033,0.288,0.072,0.431,0.111
		C120.941,142.348,120.798,142.31,120.654,142.276z"/>
	<path id="XMLID_1899_" class="st0" d="M120.654,142.276c0.145,0.033,0.288,0.072,0.431,0.111
		C120.941,142.348,120.798,142.31,120.654,142.276z"/>
	<path id="XMLID_1896_" class="st0" d="M114.919,142.387c0.142-0.039,0.285-0.077,0.429-0.11
		C115.204,142.31,115.062,142.348,114.919,142.387z"/>
	<path id="XMLID_1893_" class="st3" d="M118.042,141.967c-0.014,0-0.027-0.002-0.04-0.002c-0.013,0-0.025,0.002-0.038,0.002
		c0.013,0,0.025-0.002,0.038-0.002C118.015,141.965,118.028,141.967,118.042,141.967z"/>
	<path id="XMLID_1890_" class="st0" d="M118.042,141.967c-0.014,0-0.027-0.002-0.04-0.002c-0.013,0-0.025,0.002-0.038,0.002
		c0.013,0,0.025-0.002,0.038-0.002C118.015,141.965,118.028,141.967,118.042,141.967z"/>
	<path id="XMLID_1887_" class="st0" d="M116.236,142.111c0.145-0.022,0.289-0.05,0.436-0.066
		C116.526,142.061,116.382,142.09,116.236,142.111z"/>
	<path id="XMLID_1884_" class="st0" d="M119.33,142.045c0.148,0.017,0.292,0.045,0.438,0.067
		C119.622,142.09,119.478,142.061,119.33,142.045z"/>
	<g id="XMLID_3_">
		<g id="XMLID_166_">
			<g id="XMLID_172_">
				<path id="XMLID_173_" class="st4" d="M29.446,67.316c0.495,0.75-0.415,1.089-1.39,1.733s-1.644,1.348-2.14,0.598
					s-0.106-1.879,0.868-2.523C27.76,66.48,28.951,66.566,29.446,67.316z"/>
			</g>
			<path id="XMLID_171_" class="st4" d="M162.527,31.807c0.262-0.283,0.619-0.454,0.967-0.618c0.83-0.392,1.667-0.787,2.56-0.999
				c0.42-0.099,0.846-0.157,1.275-0.192h-6.12c-0.332,0-0.602,0.27-0.602,0.602v7.251c0.356-1.769,0.748-3.536,1.437-5.201
				C162.169,32.349,162.306,32.046,162.527,31.807z"/>
			<g id="XMLID_169_">
				<path id="XMLID_170_" class="st4" d="M98.117,10.063c0.498-0.482,1.028-0.976,1.694-1.166c0.893-0.254,1.85,0.091,2.646,0.569
					c0.185,0.111,0.365,0.23,0.544,0.352l-2.83-4.369c-0.147-0.227-0.356-0.275-0.505-0.275c-0.149,0-0.358,0.048-0.505,0.275
					L92.384,15.91c0.115-0.078,0.223-0.178,0.315-0.278C94.448,13.721,96.255,11.864,98.117,10.063z"/>
			</g>
			<path id="XMLID_168_" class="st4" d="M77.949,147.828c-0.982,0.637-1.768,1.206-2.094,0.704
				c-0.326-0.502,0.206-1.426,1.188-2.063s2.043-0.747,2.368-0.244C79.738,146.726,78.931,147.19,77.949,147.828z"/>
			<path id="XMLID_167_" class="st4" d="M114.985,147.828c-0.982,0.637-1.768,1.206-2.094,0.704
				c-0.326-0.502,0.206-1.426,1.188-2.063s2.043-0.747,2.368-0.244C116.774,146.726,115.967,147.19,114.985,147.828z"/>
		</g>
	</g>
	<path id="XMLID_1879_" class="st2" d="M122.525,149.898c0.271-0.058,0.548-0.114,0.788-0.253c0.24-0.139,0.439-0.38,0.45-0.657
		c0.009-0.228-0.107-0.441-0.226-0.636c-0.698-1.142-1.632-2.137-2.718-2.919c-0.174-0.059-0.354-0.116-0.561-0.172
		c-0.09-0.023-0.18-0.049-0.279-0.071c-0.215-0.05-0.434-0.088-0.663-0.122l-0.321-0.052c-0.341-0.039-0.657-0.058-0.954-0.059
		h-0.072c-0.301,0.001-0.616,0.02-0.963,0.059l-0.32,0.051c-0.226,0.034-0.449,0.073-0.672,0.124l-0.312,0.081
		c-0.239,0.065-0.473,0.139-0.699,0.223l-0.216,0.077c-0.382,0.151-0.742,0.32-1.068,0.502c-1.576,0.883-2.813,2.211-3.589,3.774
		c-0.205,0.413,0.098,0.901,0.559,0.901h8.8C120.488,150.416,121.497,150.118,122.525,149.898z"/>
	<path id="XMLID_1878_" class="st2" d="M35.121,69.223c0.095-0.317,0.184-0.645,0.254-0.977c-1.211-1.767-3.243-2.929-5.542-2.929
		c-3.704,0-6.717,3.013-6.717,6.717c0,2.83,1.762,5.252,4.245,6.24c1.379-0.582,2.743-1.194,3.882-2.151
		C33.293,74.401,34.356,71.788,35.121,69.223z"/>
	<path id="XMLID_1877_" class="st2" d="M171.081,37.424c1.647-2.039,2.718-4.531,3.103-7.123c-0.104-0.179-0.29-0.305-0.511-0.305
		h-6.344h-6.12c-0.332,0-0.602,0.27-0.602,0.602v7.251v5.212c0,0.332,0.27,0.602,0.602,0.602h0.852
		c0.07-0.031,0.139-0.063,0.208-0.093C165.581,42.118,168.809,40.238,171.081,37.424z"/>
	<path id="XMLID_1876_" class="st2" d="M105.478,15.5c0.232-0.674,0.001-1.41-0.229-2.084c-0.031-0.09-0.062-0.18-0.092-0.271
		l-2.156-3.328l-2.83-4.369c-0.147-0.227-0.356-0.275-0.505-0.275c-0.149,0-0.358,0.048-0.505,0.275L92.384,15.91l-0.755,1.166
		c-0.161,0.248-0.102,0.472-0.024,0.615c0.078,0.144,0.233,0.315,0.528,0.315h6.27c1.439-0.285,2.878-0.569,4.317-0.854
		C103.825,16.934,105.111,16.563,105.478,15.5z"/>
	<path id="XMLID_1873_" class="st0" d="M108.837,130.381H90.13c0.333,0.978,0.522,2.023,0.522,3.112l0,2.304h17.663l0-2.304
		C108.315,132.403,108.504,131.359,108.837,130.381z"/>
	<path id="XMLID_1858_" class="st0" d="M87.662,133.493c0-3.699-2.998-6.697-6.697-6.697c-3.699,0-6.697,2.998-6.697,6.697v7.661
		c0,0.005,0.001,0.01,0.001,0.015c1.998-1.069,4.277-1.679,6.697-1.679c2.42,0,4.698,0.61,6.696,1.679
		c0-0.005,0.001-0.01,0.001-0.015V133.493z"/>
	<path id="XMLID_1855_" class="st0" d="M124.699,133.493c0-3.699-2.998-6.697-6.697-6.697c-3.699,0-6.697,2.998-6.697,6.697v7.661
		c0,0.005,0.001,0.01,0.001,0.015c1.998-1.069,4.277-1.679,6.697-1.679c2.42,0,4.698,0.61,6.696,1.679
		c0-0.005,0.001-0.01,0.001-0.015V133.493z"/>
	<g id="XMLID_4_">
		<g id="XMLID_204_">
			<g id="XMLID_224_">
				<path id="XMLID_225_" class="st5" d="M36.551,72.034c0-1.404-0.435-2.708-1.175-3.787c-0.071,0.332-0.16,0.66-0.254,0.977
					c-0.765,2.565-1.828,5.178-3.878,6.9c-1.139,0.957-2.504,1.569-3.882,2.151c0.766,0.305,1.599,0.478,2.473,0.478
					C33.537,78.751,36.551,75.737,36.551,72.034z"/>
			</g>
			<g id="XMLID_221_">
				<path id="XMLID_222_" class="st5" d="M171.081,37.424c-2.272,2.813-5.5,4.694-8.811,6.147c-0.069,0.03-0.139,0.063-0.208,0.093
					h11.611c0.332,0,0.601-0.27,0.601-0.602V30.599c0-0.11-0.038-0.208-0.09-0.297C173.799,32.894,172.728,35.385,171.081,37.424z"
					/>
			</g>
			<g id="XMLID_215_">
				<path id="XMLID_220_" class="st5" d="M107.726,17.691c0.077-0.144,0.137-0.366-0.024-0.615l-2.546-3.93
					c0.031,0.09,0.062,0.18,0.092,0.271c0.23,0.674,0.461,1.41,0.229,2.084c-0.367,1.063-1.653,1.433-2.757,1.652
					c-1.439,0.285-2.878,0.569-4.317,0.854h8.793C107.493,18.005,107.648,17.834,107.726,17.691z"/>
			</g>
			<g id="XMLID_209_">
				<path id="XMLID_214_" class="st5" d="M85.247,146.074c-0.322-0.18-0.683-0.349-1.154-0.533l-0.119-0.043
					c-0.062-0.023-0.127-0.043-0.191-0.065c1.086,0.782,2.02,1.777,2.718,2.919c0.119,0.195,0.235,0.408,0.226,0.636
					c-0.011,0.277-0.211,0.518-0.45,0.657c-0.24,0.139-0.517,0.195-0.788,0.253c-1.028,0.22-2.037,0.518-3.035,0.85h5.821
					c0.461,0,0.764-0.488,0.559-0.901C88.059,148.284,86.823,146.956,85.247,146.074z"/>
			</g>
			<g id="XMLID_207_">
				<path id="XMLID_208_" class="st5" d="M122.283,146.074c-0.322-0.18-0.683-0.349-1.154-0.533l-0.119-0.043
					c-0.062-0.023-0.127-0.043-0.191-0.065c1.086,0.782,2.02,1.777,2.718,2.919c0.119,0.195,0.235,0.408,0.226,0.636
					c-0.011,0.277-0.211,0.518-0.45,0.657c-0.24,0.139-0.517,0.195-0.788,0.253c-1.028,0.22-2.037,0.518-3.035,0.85h5.821
					c0.461,0,0.764-0.488,0.559-0.901C125.095,148.284,123.859,146.956,122.283,146.074z"/>
			</g>
		</g>
	</g>
	<path id="XMLID_1827_" class="st0" d="M123.744,143.466c-0.46-0.258-0.94-0.481-1.436-0.676c-0.091-0.036-0.184-0.067-0.276-0.101
		c-0.31-0.113-0.626-0.214-0.948-0.302c-0.143-0.039-0.286-0.077-0.431-0.111c-0.291-0.067-0.587-0.119-0.885-0.164
		c-0.146-0.022-0.29-0.05-0.438-0.067c-0.423-0.048-0.853-0.076-1.288-0.078c-0.014,0-0.027-0.002-0.041-0.002
		c-0.013,0-0.025,0.002-0.038,0.002c-0.437,0.001-0.867,0.03-1.292,0.078c-0.147,0.017-0.29,0.045-0.436,0.067
		c-0.3,0.045-0.596,0.098-0.888,0.165c-0.145,0.033-0.287,0.072-0.429,0.11c-0.322,0.087-0.638,0.188-0.948,0.301
		c-0.093,0.034-0.186,0.066-0.277,0.102c-0.495,0.195-0.974,0.418-1.433,0.675c-3.421,1.916-5.791,5.487-6.014,9.631
		c-0.019,0.35,0.273,0.642,0.624,0.642h22.263c0.35,0,0.643-0.292,0.624-0.642C129.534,148.952,127.165,145.382,123.744,143.466z
		 M110.132,149.846c0.776-1.563,2.013-2.891,3.589-3.774c0.327-0.182,0.686-0.351,1.068-0.502l0.216-0.077
		c0.226-0.084,0.46-0.158,0.699-0.223l0.312-0.081c0.223-0.051,0.446-0.09,0.672-0.124l0.32-0.051
		c0.347-0.039,0.663-0.058,0.963-0.059h0.072c0.297,0.001,0.613,0.02,0.954,0.059l0.321,0.052c0.23,0.034,0.449,0.072,0.663,0.122
		c0.099,0.022,0.189,0.048,0.279,0.071c0.207,0.056,0.387,0.113,0.561,0.172c0.064,0.022,0.129,0.042,0.191,0.065l0.119,0.043
		c0.471,0.184,0.832,0.353,1.154,0.533c1.575,0.883,2.812,2.21,3.587,3.773c0.205,0.413-0.098,0.901-0.559,0.901h-5.821h-8.8
		C110.23,150.748,109.927,150.26,110.132,149.846z"/>
	<path id="XMLID_1826_" class="st3" d="M119.218,93.242c-13.682,3.818-27.364,3.818-41.046,0c-3.615-1.009-6.135-4.277-6.135-8.03
		V74.293c0-3.085,1.72-5.898,4.436-7.361c13.847-7.457,28.604-7.382,44.271,0.227c2.838,1.378,4.609,4.292,4.609,7.447v10.606
		C125.354,88.965,122.833,92.233,119.218,93.242z"/>
	<path id="XMLID_394_" class="st3" d="M64.307,54.556v-6.783h-1.708v-1.786h3.506v8.569H64.307z"/>
	<path id="XMLID_392_" class="st3" d="M71.25,54.556v-6.783h-1.708v-1.786h3.506v8.569H71.25z"/>
	<path id="XMLID_390_" class="st3" d="M78.194,54.556v-6.783h-1.708v-1.786h3.506v8.569H78.194z"/>
	<path id="XMLID_387_" class="st3" d="M85.138,54.556v-1.695H83.43v-5.178h1.708v-1.696h5.213v1.696h1.707v5.178h-1.707v1.695
		H85.138z M85.228,52.77h5.032v-4.997h-5.032V52.77z"/>
	<path id="XMLID_386_" class="st3" d="M97.09,54.556v-1.695h-1.708v-5.178h1.708v-1.696h5.213v1.696h1.707v5.178h-1.707v1.695H97.09
		z M97.18,52.77h5.032v-4.997H97.18V52.77z"/>
	<path id="XMLID_384_" class="st3" d="M109.041,54.556v-1.695h-1.707v-5.178h1.707v-1.696h5.213v1.696h1.709v5.178h-1.709v1.695
		H109.041z M109.133,52.77h5.03v-4.997h-5.03V52.77z"/>
	<path id="XMLID_383_" class="st3" d="M120.994,54.556v-1.695h-1.707v-5.178h1.707v-1.696h5.213v1.696h1.709v5.178h-1.709v1.695
		H120.994z M121.086,52.77h5.031v-4.997h-5.031V52.77z"/>
	<path id="XMLID_381_" class="st3" d="M132.945,54.556v-6.783h-1.707v-1.786h3.506v8.569H132.945z"/>
	<path id="XMLID_352_" class="st3" d="M64.307,69.903v-1.695h-1.708V63.03h1.708v-1.696h5.213v1.696h1.707v5.178h-1.707v1.695
		H64.307z M64.398,68.117h5.032V63.12h-5.032V68.117z"/>
	<path id="XMLID_350_" class="st3" d="M76.26,69.903v-1.695h-1.708V63.03h1.708v-1.696h5.213v1.696h1.707v5.178h-1.707v1.695H76.26z
		 M76.35,68.117h5.032V63.12H76.35V68.117z"/>
	<path id="XMLID_348_" class="st3" d="M88.212,69.903V63.12h-1.708v-1.786h3.506v8.569H88.212z"/>
	<path id="XMLID_347_" class="st3" d="M95.155,69.903V63.12h-1.708v-1.786h3.506v8.569H95.155z"/>
	<path id="XMLID_345_" class="st3" d="M102.099,69.903V63.12h-1.708v-1.786h3.506v8.569H102.099z"/>
	<path id="XMLID_344_" class="st3" d="M109.041,69.903V63.12h-1.707v-1.786h3.506v8.569H109.041z"/>
	<path id="XMLID_342_" class="st3" d="M115.984,69.903v-1.695h-1.707V63.03h1.707v-1.696h5.213v1.696h1.709v5.178h-1.709v1.695
		H115.984z M116.076,68.117h5.031V63.12h-5.031V68.117z"/>
	<path id="XMLID_340_" class="st3" d="M127.937,69.903v-1.695h-1.707V63.03h1.707v-1.696h5.213v1.696h1.709v5.178h-1.709v1.695
		H127.937z M128.029,68.117h5.031V63.12h-5.031V68.117z"/>
	<path id="XMLID_310_" class="st3" d="M59.298,85.25v-1.695H57.59v-5.178h1.708v-1.696h5.213v1.696h1.707v5.178h-1.707v1.695H59.298
		z M59.389,83.464h5.032v-4.997h-5.032V83.464z"/>
	<path id="XMLID_307_" class="st3" d="M83.203,85.25v-1.695h-1.708v-5.178h1.708v-1.696h5.213v1.696h1.707v5.178h-1.707v1.695
		H83.203z M83.293,83.464h5.032v-4.997h-5.032V83.464z"/>
	<path id="XMLID_306_" class="st3" d="M95.155,85.25v-1.695h-1.708v-5.178h1.708v-1.696h5.213v1.696h1.707v5.178h-1.707v1.695
		H95.155z M95.246,83.464h5.032v-4.997h-5.032V83.464z"/>
	<path id="XMLID_304_" class="st3" d="M107.107,85.25v-1.695h-1.707v-5.178h1.707v-1.696h5.213v1.696h1.709v5.178h-1.709v1.695
		H107.107z M107.199,83.464h5.03v-4.997h-5.03V83.464z"/>
	<path id="XMLID_303_" class="st3" d="M119.059,85.25v-1.695h-1.707v-5.178h1.707v-1.696h5.213v1.696h1.709v5.178h-1.709v1.695
		H119.059z M119.151,83.464h5.031v-4.997h-5.031V83.464z"/>
	<path id="XMLID_301_" class="st3" d="M131.01,85.25v-1.695h-1.707v-5.178h1.707v-1.696h5.213v1.696h1.709v5.178h-1.709v1.695
		H131.01z M131.102,83.464h5.031v-4.997h-5.031V83.464z"/>
	<path id="XMLID_197_" class="st3" d="M64.307,99.319v-1.695h-1.708v-5.178h1.708V90.75h5.213v1.696h1.707v5.178h-1.707v1.695
		H64.307z M64.398,97.532h5.032v-4.996h-5.032V97.532z"/>
	<path id="XMLID_196_" class="st3" d="M76.26,99.319v-6.783h-1.708V90.75h3.506v8.569H76.26z"/>
	<path id="XMLID_195_" class="st3" d="M83.203,99.319v-1.695h-1.708v-5.178h1.708V90.75h5.213v1.696h1.707v5.178h-1.707v1.695
		H83.203z M83.293,97.532h5.032v-4.996h-5.032V97.532z"/>
	<path id="XMLID_194_" class="st3" d="M95.155,99.319v-1.695h-1.708v-5.178h1.708V90.75h5.213v1.696h1.707v5.178h-1.707v1.695
		H95.155z M95.246,97.532h5.032v-4.996h-5.032V97.532z"/>
	<path id="XMLID_193_" class="st3" d="M107.107,99.319v-1.695h-1.707v-5.178h1.707V90.75h5.213v1.696h1.709v5.178h-1.709v1.695
		H107.107z M107.199,97.532h5.03v-4.996h-5.03V97.532z"/>
	<path id="XMLID_192_" class="st3" d="M119.059,99.319v-1.695h-1.707v-5.178h1.707V90.75h5.213v1.696h1.709v5.178h-1.709v1.695
		H119.059z M119.151,97.532h5.031v-4.996h-5.031V97.532z"/>
	<path id="XMLID_191_" class="st3" d="M131.01,99.319v-6.783h-1.707V90.75h3.506v8.569H131.01z"/>
	<path id="XMLID_147_" class="st3" d="M64.307,113.013v-1.695h-1.708v-5.178h1.708v-1.695h5.213v1.695h1.707v5.178h-1.707v1.695
		H64.307z M64.398,111.226h5.032v-4.996h-5.032V111.226z"/>
	<path id="XMLID_146_" class="st3" d="M76.26,113.013v-1.695h-1.708v-5.178h1.708v-1.695h5.213v1.695h1.707v5.178h-1.707v1.695
		H76.26z M76.35,111.226h5.032v-4.996H76.35V111.226z"/>
	<path id="XMLID_145_" class="st3" d="M88.212,113.013v-6.783h-1.708v-1.785h3.506v8.569H88.212z"/>
	<path id="XMLID_144_" class="st3" d="M95.155,113.013v-6.783h-1.708v-1.785h3.506v8.569H95.155z"/>
	<path id="XMLID_143_" class="st3" d="M102.099,113.013v-6.783h-1.708v-1.785h3.506v8.569H102.099z"/>
	<path id="XMLID_142_" class="st3" d="M109.041,113.013v-6.783h-1.707v-1.785h3.506v8.569H109.041z"/>
	<path id="XMLID_141_" class="st3" d="M115.984,113.013v-1.695h-1.707v-5.178h1.707v-1.695h5.213v1.695h1.709v5.178h-1.709v1.695
		H115.984z M116.076,111.226h5.031v-4.996h-5.031V111.226z"/>
	<path id="XMLID_140_" class="st3" d="M127.937,113.013v-1.695h-1.707v-5.178h1.707v-1.695h5.213v1.695h1.709v5.178h-1.709v1.695
		H127.937z M128.029,111.226h5.031v-4.996h-5.031V111.226z"/>
	<path id="XMLID_93_" class="st3" d="M59.298,128.36v-1.695H57.59v-5.178h1.708v-1.695h5.213v1.695h1.707v5.178h-1.707v1.695H59.298
		z M59.389,126.573h5.032v-4.996h-5.032V126.573z"/>
	<path id="XMLID_84_" class="st3" d="M76.464,121.482v-1.69h-5.21v1.69h-1.71v5.18h1.71v1.7h1.41c0.41-0.66,0.9-1.26,1.45-1.79
		h-2.77v-5h5.03v3.36c0.57-0.31,1.17-0.55,1.8-0.73v-2.72H76.464z"/>
	<path id="XMLID_82_" class="st3" d="M88.414,121.482v-1.69h-5.21v1.69h-1.71v2.34c0.62,0.03,1.22,0.13,1.8,0.27v-2.52h5.03v5h-0.6
		c0.25,0.24,0.48,0.49,0.69,0.75v-0.66h1.71v-5.18H88.414z"/>
	<path id="XMLID_78_" class="st3" d="M95.155,128.36v-1.695h-1.708v-5.178h1.708v-1.695h5.213v1.695h1.707v5.178h-1.707v1.695
		H95.155z M95.246,126.573h5.032v-4.996h-5.032V126.573z"/>
	<path id="XMLID_18_" class="st3" d="M112.324,121.482v-1.69h-5.22v1.69h-1.7v5.18h1.7v1.7h2.85c0.41-0.65,0.9-1.25,1.45-1.79h-4.21
		v-5h5.04v4.28c0.55-0.43,1.15-0.8,1.79-1.1v-3.27H112.324z"/>
	<path id="XMLID_17_" class="st3" d="M124.274,121.482v-1.69h-5.21v1.69h-1.71v2.36c0.28-0.03,0.57-0.04,0.86-0.04
		c0.32,0,0.63,0.02,0.94,0.05v-2.28h5.03v4.28c0.33,0.25,0.64,0.52,0.93,0.81h0.87v-5.18H124.274z"/>
	<path id="XMLID_16_" class="st3" d="M131.01,128.36v-1.695h-1.707v-5.178h1.707v-1.695h5.213v1.695h1.709v5.178h-1.709v1.695
		H131.01z M131.102,126.573h5.031v-4.996h-5.031V126.573z"/>
	<path id="XMLID_1861_" class="st0" d="M173.673,24.823h-12.464c-3.185,0-5.776,2.591-5.776,5.776v12.464
		c0,3.185,2.591,5.776,5.776,5.776h3.214v15.718c0,13.709-10.38,25.033-23.693,26.539V50.078c0-2.939-1.956-5.556-4.751-6.363
		c-0.676-0.2-1.362-0.39-2.018-0.566c-6.215-1.713-12.456-3.004-18.546-3.837c-1.022-0.141-2.043-0.274-3.053-0.387
		c-3.192-0.367-6.437-0.609-9.679-0.732V23.18h4.514c2.118,0,4.063-1.156,5.074-3.017c1.012-1.861,0.926-4.122-0.227-5.899
		l-7.531-11.627C103.445,0.985,101.632,0,99.666,0c-1.966,0-3.779,0.985-4.848,2.636l-7.531,11.627
		c-1.152,1.778-1.238,4.038-0.227,5.899c1.012,1.861,2.956,3.017,5.074,3.017h4.513v14.933c-3.974,0.033-8.022,0.268-12.041,0.709
		c-0.977,0.104-1.952,0.227-2.924,0.359c-6.244,0.836-12.499,2.187-18.577,4.01c-0.52,0.147-1.04,0.304-1.532,0.463
		c-2.812,0.873-4.701,3.425-4.701,6.351v57.075c-12.488-1.257-22.462-11.151-23.85-23.601c5.011-1.398,8.703-5.993,8.703-11.444
		c0-6.557-5.334-11.891-11.891-11.891s-11.891,5.334-11.891,11.891c0,5.566,3.849,10.237,9.021,11.526
		c1.466,15.742,14.118,28.278,29.908,29.572v16.025c0,3.661,2.975,6.64,6.63,6.64h5.691h2.086l0-2.304
		c0-1.09,0.189-2.134,0.522-3.112h-8.299c-0.67,0-1.214-0.549-1.214-1.224V84.251V50.004c0-0.547,0.357-1.013,0.919-1.187
		c0.459-0.147,0.918-0.286,1.414-0.427c5.838-1.751,11.822-3.043,17.786-3.842c0.924-0.126,1.849-0.243,2.781-0.342
		c3.986-0.437,8.009-0.667,11.969-0.686c0.328-0.007,0.656-0.01,0.985-0.01c0.55,0,1.1,0.008,1.658,0.019
		c3.998,0.064,8.019,0.325,11.954,0.777c0.972,0.108,1.945,0.235,2.922,0.37c5.855,0.801,11.863,2.044,17.865,3.698
		c0.632,0.17,1.274,0.347,1.927,0.541c0.498,0.143,0.846,0.62,0.846,1.162v16.674v62.405c0,0.675-0.548,1.224-1.223,1.224h-5.48
		h-1.445c0.333,0.978,0.522,2.023,0.522,3.112l0,2.304h3.88h2.523c3.661,0,6.639-2.979,6.639-6.64V97.163
		c16.647-1.531,29.73-15.566,29.73-32.606V48.839h3.214c3.185,0,5.776-2.591,5.776-5.776V30.599
		C179.449,27.414,176.858,24.823,173.673,24.823z M27.361,78.273c-2.483-0.987-4.245-3.409-4.245-6.24
		c0-3.703,3.013-6.717,6.717-6.717c2.299,0,4.331,1.162,5.542,2.929c0.74,1.079,1.175,2.383,1.175,3.787
		c0,3.704-3.013,6.717-6.717,6.717C28.96,78.751,28.127,78.578,27.361,78.273z M98.404,18.005h-6.27
		c-0.296,0-0.451-0.171-0.528-0.315c-0.078-0.143-0.137-0.366,0.024-0.615l0.755-1.166l6.776-10.461
		c0.147-0.227,0.356-0.275,0.505-0.275c0.149,0,0.358,0.048,0.505,0.275l2.83,4.369l2.156,3.328l2.546,3.93
		c0.161,0.248,0.101,0.471,0.024,0.615c-0.078,0.144-0.233,0.315-0.529,0.315H98.404z M174.274,43.063
		c0,0.332-0.27,0.602-0.601,0.602h-11.611h-0.852c-0.332,0-0.602-0.27-0.602-0.602v-5.212v-7.251c0-0.332,0.27-0.602,0.602-0.602
		h6.12h6.344c0.221,0,0.407,0.126,0.511,0.305c0.052,0.089,0.09,0.187,0.09,0.297V43.063z"/>
	<circle id="XMLID_1824_" class="st0" cx="89.086" cy="78.751" r="4.515"/>
	<circle id="XMLID_45_" class="st0" cx="111.669" cy="78.751" r="4.515"/>
	<g id="XMLID_41_">
		<path id="XMLID_44_" class="st6" d="M90.195,93.588c9.501,1.119,19.041,0.371,28.487-2.265h0.001
			c2.754-0.769,4.678-3.281,4.678-6.11v-4.051C120.096,84.931,111.294,91.914,90.195,93.588z"/>
		<path id="XMLID_42_" class="st6" d="M119.874,68.953c-7.689-3.734-15.045-5.602-22.167-5.602c-6.953,0-13.683,1.779-20.289,5.336
			c-0.784,0.422-1.456,0.988-1.99,1.654C95.683,61.801,119.874,68.953,119.874,68.953z"/>
	</g>
	<path id="XMLID_38_" class="st0" d="M121.616,65.367c-16.201-7.869-31.708-7.932-46.087-0.189
		c-3.383,1.822-5.485,5.315-5.485,9.115v10.919c0,4.611,3.122,8.702,7.593,9.949c6.987,1.95,14.023,2.925,21.059,2.925
		c7.036,0,14.072-0.975,21.058-2.925c4.471-1.247,7.593-5.339,7.593-9.949V74.606C127.346,70.684,125.097,67.057,121.616,65.367z
		 M74.03,85.212V74.293c0-1.458,0.507-2.843,1.398-3.953c0.534-0.666,1.207-1.232,1.99-1.654c6.606-3.557,13.336-5.336,20.289-5.336
		c7.122,0,14.478,1.867,22.167,5.602c2.118,1.028,3.487,3.247,3.487,5.653v6.555v4.051c0,2.829-1.924,5.342-4.678,6.11h-0.001
		c-9.446,2.637-18.986,3.384-28.487,2.265c-3.838-0.452-7.67-1.2-11.486-2.265C75.954,90.554,74.03,88.041,74.03,85.212z"/>
</g>
</svg>
