<svg version="1.1" id="Layer_1" xmlns="http://www.w3.org/2000/svg" xmlns:xlink="http://www.w3.org/1999/xlink" x="0px" y="0px"
	 viewBox="0 0 192.934 183.891" style="enable-background:new 0 0 192.934 183.891;" xml:space="preserve">
<style type="text/css">
	.st0{fill:#D53A17;}
	.st1{fill:#414042;}
	.st2{fill:none;}
	.st3{fill:#F0FCB4;}
	.st4{fill:#FC8F75;}
	.st5{fill:#D83009;}
	.st6{fill:#2F4237;}
	.st7{fill:#FFFFFF;}
	.st8{fill:#9A2509;}
	.st9{fill:#E1E2E8;}
</style>
<g id="XMLID_1_">
	<path id="XMLID_869_" class="st0" d="M76.005,116.222c3.991,0,7.383,2.588,8.603,6.171h17.561c1.221-3.583,4.612-6.171,8.603-6.171
		c3.991,0,7.383,2.588,8.603,6.171h1.357c3.331-2.922,6.292-59.73,6.292-59.73V47.01c0-0.508-0.326-0.957-0.794-1.091
		c-0.613-0.182-1.215-0.348-1.809-0.508c-5.634-1.553-11.275-2.72-16.771-3.472c-0.918-0.127-1.831-0.246-2.743-0.347
		c-3.694-0.424-7.468-0.67-11.222-0.73c-0.523-0.011-1.04-0.018-1.556-0.018c-0.308,0-0.616,0.003-0.924,0.009
		c-3.718,0.017-7.494,0.234-11.236,0.644c-0.875,0.093-1.743,0.203-2.61,0.321c-5.599,0.75-11.216,1.963-16.697,3.606
		c-0.466,0.133-0.897,0.263-1.328,0.401c-0.527,0.164-0.862,0.6-0.862,1.114V79.09v42.155c0,0.633,0.511,1.149,1.14,1.149h7.791
		C68.623,118.81,72.014,116.222,76.005,116.222z"/>
	<path id="XMLID_866_" class="st1" d="M1.806,183.855c0.976,0,1.771-0.795,1.771-1.806v-21.824c0-0.977-0.795-1.772-1.771-1.772
		c-1.011,0-1.806,0.795-1.806,1.772v21.824C0,183.06,0.795,183.855,1.806,183.855z"/>
	<path id="XMLID_863_" class="st1" d="M14.816,160.152v3.975c0,1.011,0.651,1.806,1.626,1.806c1.011,0,1.662-0.759,1.662-1.77
		v-3.975c0-0.975-0.651-1.806-1.662-1.842C15.502,158.346,14.816,159.177,14.816,160.152z"/>
	<path id="XMLID_860_" class="st1" d="M47.661,165.753c-2.168,0-4.119,0.94-5.456,2.493c-1.337-1.554-3.289-2.493-5.456-2.493
		c-4.011,0-7.262,3.252-7.262,7.227v9.105c0,1.011,0.795,1.806,1.806,1.806c0.976,0,1.771-0.795,1.771-1.806v-9.105
		c0-2.024,1.662-3.649,3.685-3.649c2.023,0,3.649,1.625,3.649,3.649v9.105c0,1.011,0.831,1.806,1.807,1.806
		c0.976,0,1.77-0.795,1.77-1.806v-9.105c0-2.024,1.662-3.649,3.685-3.649c2.023,0,3.686,1.625,3.686,3.649c0,0.072,0,0.108,0,0.144
		c0,0.073,0,0.109,0,0.181v8.781c0,1.011,0.795,1.806,1.77,1.806c0.976,0,1.807-0.795,1.807-1.806v-8.781
		c0-0.072,0-0.108-0.037-0.181c0.037-0.036,0.037-0.072,0.037-0.144C54.924,169.005,51.672,165.753,47.661,165.753z"/>
	<path id="XMLID_857_" class="st1" d="M95.039,183.855c0.976,0,1.77-0.795,1.77-1.806v-19.982h5.492c0.975,0,1.77-0.795,1.77-1.77
		c0-1.011-0.795-1.806-1.77-1.806H87.776c-1.011,0-1.806,0.795-1.806,1.806c0,0.976,0.795,1.77,1.806,1.77h5.456v19.982
		C93.233,183.06,94.027,183.855,95.039,183.855z"/>
	<path id="XMLID_849_" class="st1" d="M120.733,183.819c5.022,0,9.069-4.083,9.069-9.069c0-5.022-4.047-9.069-9.069-9.069
		c-4.986,0-9.069,4.047-9.069,9.069C111.663,179.737,115.746,183.819,120.733,183.819z M120.733,169.257
		c3.035,0,5.492,2.457,5.492,5.493c0,2.998-2.457,5.492-5.492,5.492c-3.035,0-5.492-2.493-5.492-5.492
		C115.241,171.715,117.697,169.257,120.733,169.257z"/>
	<path id="XMLID_846_" class="st1" d="M159.434,165.753c-2.168,0-4.119,0.94-5.456,2.493c-1.337-1.554-3.288-2.493-5.456-2.493
		c-4.011,0-7.263,3.252-7.263,7.227v9.105c0,1.011,0.795,1.806,1.806,1.806c0.976,0,1.77-0.795,1.77-1.806v-9.105
		c0-2.024,1.663-3.649,3.687-3.649c2.023,0,3.648,1.625,3.648,3.649v9.105c0,1.011,0.832,1.806,1.807,1.806
		c0.975,0,1.77-0.795,1.77-1.806v-9.105c0-2.024,1.663-3.649,3.685-3.649c2.024,0,3.685,1.625,3.685,3.649c0,0.072,0,0.108,0,0.144
		c0,0.073,0,0.109,0,0.181v8.781c0,1.011,0.795,1.806,1.77,1.806c0.977,0,1.807-0.795,1.807-1.806v-8.781
		c0-0.072,0-0.108-0.036-0.181c0.036-0.036,0.036-0.072,0.036-0.144C166.697,169.005,163.445,165.753,159.434,165.753z"/>
	<path id="XMLID_843_" class="st1" d="M185.599,183.855c4.047,0,7.299-3.252,7.335-7.263v-0.036v-9.069
		c0-0.976-0.795-1.77-1.77-1.77c-1.013,0-1.807,0.795-1.807,1.77v9.033c0,2.06-1.661,3.758-3.757,3.758
		c-2.06,0-3.723-1.698-3.723-3.758v-9.033c0-0.976-0.795-1.77-1.806-1.77c-0.976,0-1.77,0.795-1.77,1.77v9.069v0.036
		C178.336,180.603,181.588,183.855,185.599,183.855z"/>
	<path id="XMLID_840_" class="st0" d="M163.034,28.16h-11.7c-0.311,0-0.565,0.254-0.565,0.565v11.7c0,0.311,0.254,0.565,0.565,0.565
		h11.7c0.311,0,0.564-0.253,0.564-0.565v-11.7C163.599,28.413,163.346,28.16,163.034,28.16z"/>
	<path id="XMLID_837_" class="st0" d="M101.127,16.607c0.073-0.135,0.129-0.344-0.022-0.577l-7.07-10.915
		c-0.138-0.213-0.334-0.258-0.474-0.258c-0.14,0-0.336,0.045-0.474,0.258l-7.07,10.915c-0.151,0.233-0.096,0.443-0.022,0.577
		c0.073,0.135,0.218,0.295,0.496,0.295h14.141C100.908,16.902,101.054,16.742,101.127,16.607z"/>
	<path id="XMLID_834_" class="st0" d="M34.312,67.621c0-3.477-2.829-6.305-6.306-6.305c-3.477,0-6.306,2.829-6.306,6.305
		c0,3.477,2.829,6.306,6.306,6.306C31.483,73.926,34.312,71.098,34.312,67.621z"/>
	<path id="XMLID_833_" class="st2" d="M115.804,76.189v-6.154c0-2.259-1.284-4.342-3.273-5.307c0,0-22.709-6.713-41.723,1.303
		c-0.836,1.041-1.312,2.342-1.312,3.71v10.25c0,2.656,1.806,5.014,4.392,5.736c3.582,1,7.18,1.702,10.783,2.126
		C104.476,86.283,112.739,79.728,115.804,76.189z"/>
	<path id="XMLID_830_" class="st3" d="M27.642,63.192c0.465,0.704-0.39,1.023-1.305,1.627c-0.915,0.604-1.544,1.265-2.008,0.561
		c-0.465-0.704-0.1-1.764,0.815-2.368S27.178,62.488,27.642,63.192z"/>
	<path id="XMLID_829_" class="st2" d="M34.312,67.621c0-3.477-2.829-6.305-6.306-6.305S21.7,64.144,21.7,67.621
		c0,3.477,2.829,6.306,6.306,6.306S34.312,71.098,34.312,67.621z"/>
	<path id="XMLID_828_" class="st2" d="M101.127,16.607c0.073-0.135,0.129-0.344-0.022-0.577l-7.07-10.915
		c-0.138-0.213-0.334-0.258-0.474-0.258c-0.14,0-0.336,0.045-0.474,0.258l-7.07,10.915c-0.151,0.233-0.096,0.443-0.022,0.577
		c0.073,0.135,0.219,0.295,0.496,0.295h14.141C100.908,16.902,101.054,16.742,101.127,16.607z"/>
	<path id="XMLID_827_" class="st2" d="M163.034,28.16h-11.7c-0.311,0-0.565,0.254-0.565,0.565v11.7c0,0.311,0.254,0.565,0.565,0.565
		h11.7c0.311,0,0.565-0.253,0.565-0.565v-11.7C163.599,28.413,163.346,28.16,163.034,28.16z"/>
	<path id="XMLID_824_" class="st4" d="M79.969,41.498c-0.875,0.093-1.743,0.203-2.61,0.321c-5.599,0.75-11.216,1.963-16.697,3.606
		c-0.466,0.133-0.897,0.263-1.328,0.401c-0.527,0.164-0.862,0.6-0.862,1.114V79.09L63.9,52.338
		c1.877-5.397,28.23-11.493,28.23-11.493c-0.308,0-0.616,0.003-0.924,0.009C87.487,40.872,83.711,41.089,79.969,41.498z"/>
	<path id="XMLID_823_" class="st2" d="M29.329,71.459c1.925-1.616,2.922-4.069,3.641-6.477c0.089-0.297,0.173-0.605,0.239-0.917
		c-1.137-1.658-3.044-2.75-5.203-2.75c-3.477,0-6.306,2.829-6.306,6.305c0,2.657,1.654,4.93,3.984,5.857
		C26.979,72.932,28.26,72.357,29.329,71.459z"/>
	<path id="XMLID_822_" class="st2" d="M101.127,16.607c0.073-0.135,0.129-0.344-0.022-0.577l-7.07-10.915
		c-0.138-0.213-0.334-0.258-0.474-0.258c-0.14,0-0.336,0.045-0.474,0.258l-7.07,10.915c-0.151,0.233-0.096,0.443-0.022,0.577
		c0.073,0.135,0.219,0.295,0.496,0.295h14.141C100.908,16.902,101.054,16.742,101.127,16.607z"/>
	<path id="XMLID_821_" class="st2" d="M163.034,28.16h-11.7c-0.311,0-0.565,0.254-0.565,0.565v11.7c0,0.311,0.254,0.565,0.565,0.565
		h11.7c0.311,0,0.565-0.253,0.565-0.565v-11.7C163.599,28.413,163.346,28.16,163.034,28.16z"/>
	<path id="XMLID_820_" class="st2" d="M101.127,16.607c0.073-0.135,0.129-0.344-0.022-0.577l-7.07-10.915
		c-0.138-0.213-0.334-0.258-0.474-0.258c-0.14,0-0.336,0.045-0.474,0.258l-7.07,10.915c-0.151,0.233-0.096,0.443-0.022,0.577
		c0.073,0.135,0.219,0.295,0.496,0.295h14.141C100.908,16.902,101.054,16.742,101.127,16.607z"/>
	<path id="XMLID_819_" class="st2" d="M151.334,40.99h0.8c0.065-0.029,0.131-0.059,0.195-0.088c3.108-1.364,6.139-3.13,8.272-5.771
		c1.546-1.914,2.551-4.253,2.913-6.686c-0.098-0.168-0.272-0.286-0.48-0.286h-11.7c-0.311,0-0.565,0.254-0.565,0.565v11.7
		C150.769,40.737,151.022,40.99,151.334,40.99z"/>
	<path id="XMLID_818_" class="st2" d="M34.312,67.621c0-1.318-0.408-2.542-1.103-3.555c-1.137-1.658-3.044-2.75-5.203-2.75
		c-3.477,0-6.306,2.829-6.306,6.305c0,2.657,1.654,4.93,3.984,5.857c0.719,0.286,1.501,0.448,2.321,0.448
		C31.483,73.926,34.312,71.098,34.312,67.621z"/>
	<path id="XMLID_817_" class="st2" d="M101.127,16.607c0.073-0.135,0.129-0.344-0.022-0.577l-7.07-10.915
		c-0.138-0.213-0.334-0.258-0.474-0.258c-0.14,0-0.336,0.045-0.474,0.258l-7.07,10.915c-0.151,0.233-0.096,0.443-0.022,0.577
		c0.073,0.135,0.219,0.295,0.496,0.295h14.141C100.908,16.902,101.054,16.742,101.127,16.607z"/>
	<path id="XMLID_816_" class="st2" d="M34.312,67.621c0-1.318-0.408-2.542-1.103-3.555c-1.137-1.658-3.044-2.75-5.203-2.75
		c-3.477,0-6.306,2.829-6.306,6.305c0,2.657,1.654,4.93,3.984,5.857c0.719,0.286,1.501,0.448,2.321,0.448
		C31.483,73.926,34.312,71.098,34.312,67.621z"/>
	<path id="XMLID_815_" class="st2" d="M163.034,28.16h-5.955c-0.403,0.033-0.802,0.087-1.196,0.181
		c-0.839,0.199-1.625,0.57-2.404,0.938c-0.327,0.155-0.662,0.315-0.908,0.581c-0.208,0.224-0.337,0.508-0.454,0.791
		c-0.647,1.563-1.015,3.222-1.349,4.883v4.893c0,0.311,0.254,0.565,0.565,0.565h0.8h10.9c0.311,0,0.565-0.253,0.565-0.565v-11.7
		c0-0.104-0.036-0.196-0.084-0.279C163.416,28.278,163.242,28.16,163.034,28.16z"/>
	<path id="XMLID_814_" class="st4" d="M152.571,29.859c0.246-0.265,0.581-0.426,0.908-0.581c0.779-0.368,1.565-0.739,2.404-0.938
		c0.394-0.093,0.794-0.147,1.196-0.181h-5.745c-0.311,0-0.565,0.254-0.565,0.565v6.807c0.334-1.66,0.702-3.32,1.349-4.883
		C152.234,30.367,152.364,30.083,152.571,29.859z"/>
	<path id="XMLID_813_" class="st2" d="M96.429,16.101c1.036-0.205,2.244-0.552,2.588-1.55c0.218-0.632,0.001-1.323-0.215-1.956
		c-0.029-0.085-0.058-0.169-0.087-0.254l-4.68-7.225c-0.138-0.213-0.334-0.258-0.474-0.258c-0.14,0-0.336,0.045-0.474,0.258
		l-7.07,10.915c-0.151,0.233-0.096,0.443-0.022,0.577c0.073,0.135,0.219,0.295,0.496,0.295h5.886
		C93.727,16.635,95.078,16.368,96.429,16.101z"/>
	<path id="XMLID_812_" class="st2" d="M34.312,67.621c0-1.318-0.408-2.542-1.103-3.555c-1.137-1.658-3.044-2.75-5.203-2.75
		c-3.477,0-6.306,2.829-6.306,6.305c0,2.657,1.654,4.93,3.984,5.857c0.719,0.286,1.501,0.448,2.321,0.448
		C31.483,73.926,34.312,71.098,34.312,67.621z"/>
	<path id="XMLID_811_" class="st2" d="M163.034,28.16h-5.955h-5.745c-0.311,0-0.565,0.254-0.565,0.565v6.807v4.893
		c0,0.311,0.254,0.565,0.565,0.565h0.8h10.9c0.311,0,0.565-0.253,0.565-0.565v-11.7c0-0.104-0.036-0.196-0.084-0.279
		C163.416,28.278,163.242,28.16,163.034,28.16z"/>
	<path id="XMLID_810_" class="st2" d="M101.127,16.607c0.073-0.135,0.129-0.344-0.022-0.577l-2.39-3.69l-2.024-3.124
		c-0.168-0.114-0.337-0.226-0.51-0.33c-0.747-0.449-1.646-0.773-2.484-0.534c-0.626,0.178-1.123,0.642-1.59,1.095
		c-1.747,1.691-3.444,3.435-5.086,5.228c-0.086,0.094-0.188,0.188-0.296,0.261l-0.709,1.094c-0.151,0.233-0.096,0.443-0.022,0.577
		c0.073,0.135,0.219,0.295,0.496,0.295h5.886h8.255C100.908,16.902,101.054,16.742,101.127,16.607z"/>
	<path id="XMLID_809_" class="st2" d="M34.312,67.621c0-1.318-0.408-2.542-1.103-3.555c-1.137-1.658-3.044-2.75-5.203-2.75
		c-3.477,0-6.306,2.829-6.306,6.305c0,2.657,1.654,4.93,3.984,5.857c0.719,0.286,1.501,0.448,2.321,0.448
		C31.483,73.926,34.312,71.098,34.312,67.621z"/>
	<path id="XMLID_808_" class="st2" d="M163.034,28.16h-5.955h-5.745c-0.311,0-0.565,0.254-0.565,0.565v6.807v4.893
		c0,0.311,0.254,0.565,0.565,0.565h0.8h10.9c0.311,0,0.565-0.253,0.565-0.565v-11.7c0-0.104-0.036-0.196-0.084-0.279
		C163.416,28.278,163.242,28.16,163.034,28.16z"/>
	<path id="XMLID_805_" class="st4" d="M92.106,9.446c0.468-0.452,0.965-0.916,1.59-1.095c0.838-0.239,1.737,0.086,2.484,0.534
		c0.173,0.104,0.342,0.216,0.51,0.33l-2.657-4.101c-0.138-0.213-0.334-0.258-0.474-0.258c-0.14,0-0.336,0.045-0.474,0.258
		l-6.361,9.821c0.108-0.073,0.209-0.167,0.296-0.261C88.663,12.881,90.359,11.137,92.106,9.446z"/>
	<path id="XMLID_804_" class="st2" d="M34.312,67.621c0-1.318-0.408-2.542-1.103-3.555c-1.137-1.658-3.044-2.75-5.203-2.75
		c-3.477,0-6.306,2.829-6.306,6.305c0,2.657,1.654,4.93,3.984,5.857c0.719,0.286,1.501,0.448,2.321,0.448
		C31.483,73.926,34.312,71.098,34.312,67.621z"/>
	<path id="XMLID_803_" class="st2" d="M100.631,16.902c0.278,0,0.423-0.161,0.497-0.295c0.073-0.135,0.129-0.344-0.022-0.577
		l-2.39-3.69l-2.024-3.124l-2.657-4.101c-0.138-0.213-0.334-0.258-0.474-0.258c-0.14,0-0.336,0.045-0.474,0.258l-6.361,9.821
		l-0.709,1.094c-0.151,0.233-0.096,0.443-0.022,0.577c0.073,0.135,0.219,0.295,0.496,0.295h5.886H100.631z"/>
	<path id="XMLID_802_" class="st2" d="M163.034,28.16h-5.955h-5.745c-0.311,0-0.565,0.254-0.565,0.565v6.807v4.893
		c0,0.311,0.254,0.565,0.565,0.565h0.8h10.9c0.311,0,0.565-0.253,0.565-0.565v-11.7c0-0.104-0.036-0.196-0.084-0.279
		C163.416,28.278,163.242,28.16,163.034,28.16z"/>
	<path id="XMLID_799_" class="st5" d="M80.025,137.126c-0.302-0.169-0.641-0.328-1.083-0.501l-0.111-0.04
		c-0.218-0.079-0.44-0.151-0.706-0.223c-0.084-0.022-0.169-0.046-0.262-0.067c-0.201-0.047-0.407-0.082-0.623-0.114l-0.301-0.048
		c-0.32-0.037-0.617-0.055-0.895-0.056h-0.067c-0.282,0.001-0.578,0.019-0.904,0.056l-0.3,0.048
		c-0.212,0.032-0.422,0.069-0.631,0.116l-0.293,0.076c-0.224,0.061-0.444,0.131-0.656,0.209l-0.202,0.072
		c-0.359,0.142-0.696,0.301-1.003,0.471c-1.48,0.829-2.641,2.075-3.369,3.542c-0.193,0.388,0.092,0.846,0.525,0.846h13.725
		c0.433,0,0.717-0.458,0.525-0.846C82.665,139.2,81.504,137.954,80.025,137.126z"/>
	<path id="XMLID_798_" class="st4" d="M73.174,138.772c-0.922,0.598-1.66,1.132-1.965,0.661c-0.306-0.471,0.194-1.339,1.116-1.937
		s1.917-0.701,2.223-0.229C74.853,137.738,74.096,138.174,73.174,138.772z"/>
	<path id="XMLID_797_" class="st2" d="M80.252,140.715c0.254-0.054,0.514-0.107,0.739-0.238c0.225-0.131,0.412-0.357,0.423-0.616
		c0.009-0.214-0.1-0.414-0.212-0.597c-0.655-1.072-1.532-2.006-2.551-2.74c-0.164-0.055-0.332-0.109-0.526-0.162
		c-0.085-0.022-0.169-0.046-0.262-0.067c-0.201-0.047-0.407-0.082-0.623-0.114l-0.301-0.048c-0.32-0.037-0.617-0.055-0.895-0.056
		h-0.067c-0.282,0.001-0.578,0.019-0.904,0.056l-0.3,0.047c-0.212,0.032-0.422,0.069-0.631,0.116l-0.293,0.076
		c-0.224,0.061-0.444,0.131-0.656,0.209l-0.202,0.072c-0.359,0.142-0.696,0.301-1.003,0.471c-1.48,0.829-2.641,2.075-3.369,3.542
		c-0.193,0.388,0.092,0.846,0.525,0.846h8.261C78.34,141.201,79.287,140.922,80.252,140.715z"/>
	<path id="XMLID_789_" class="st6" d="M81.397,134.677c-0.432-0.242-0.883-0.452-1.348-0.635c-0.085-0.034-0.173-0.063-0.259-0.095
		c-0.291-0.106-0.588-0.201-0.89-0.283c-0.134-0.036-0.268-0.073-0.404-0.104c-0.273-0.063-0.551-0.112-0.831-0.154
		c-0.137-0.021-0.272-0.047-0.411-0.063c-0.398-0.045-0.8-0.072-1.209-0.073c-0.013,0-0.025-0.002-0.038-0.002
		c-0.012,0-0.023,0.002-0.035,0.002c-0.41,0.001-0.814,0.028-1.213,0.073c-0.138,0.016-0.272,0.042-0.409,0.062
		c-0.281,0.042-0.56,0.092-0.834,0.155c-0.136,0.031-0.269,0.067-0.403,0.104c-0.302,0.082-0.599,0.177-0.89,0.283
		c-0.087,0.032-0.175,0.062-0.26,0.095c-0.464,0.183-0.914,0.392-1.346,0.634c-3.212,1.799-5.436,5.151-5.646,9.041
		c-0.018,0.328,0.257,0.603,0.586,0.603h20.899c0.329,0,0.603-0.274,0.586-0.603C86.831,139.828,84.607,136.476,81.397,134.677z
		 M68.618,140.667c0.728-1.467,1.889-2.714,3.369-3.542c0.307-0.171,0.644-0.33,1.003-0.471l0.202-0.072
		c0.212-0.079,0.432-0.148,0.656-0.209l0.293-0.076c0.209-0.047,0.419-0.084,0.631-0.116l0.3-0.047
		c0.326-0.037,0.622-0.055,0.904-0.056h0.067c0.279,0.001,0.576,0.019,0.895,0.056l0.301,0.048c0.216,0.032,0.421,0.068,0.623,0.114
		c0.093,0.021,0.177,0.045,0.262,0.067c0.194,0.053,0.363,0.106,0.526,0.162c0.06,0.02,0.121,0.04,0.179,0.061l0.111,0.04
		c0.442,0.173,0.781,0.332,1.083,0.501c1.479,0.829,2.64,2.075,3.368,3.542c0.193,0.388-0.092,0.846-0.525,0.846h-5.464h-8.261
		C68.71,141.513,68.426,141.055,68.618,140.667z"/>
	<path id="XMLID_786_" class="st6" d="M106.729,134.043c0.086-0.034,0.173-0.064,0.26-0.095
		C106.902,133.979,106.815,134.008,106.729,134.043z"/>
	<path id="XMLID_783_" class="st6" d="M114.557,133.948c0.086,0.032,0.174,0.061,0.259,0.095
		C114.73,134.008,114.643,133.979,114.557,133.948z"/>
	<path id="XMLID_780_" class="st7" d="M113.263,133.561c0.136,0.031,0.27,0.068,0.404,0.104
		C113.533,133.628,113.398,133.592,113.263,133.561z"/>
	<path id="XMLID_777_" class="st6" d="M113.263,133.561c0.136,0.031,0.27,0.068,0.404,0.104
		C113.533,133.628,113.398,133.592,113.263,133.561z"/>
	<path id="XMLID_774_" class="st6" d="M107.879,133.664c0.134-0.036,0.267-0.072,0.403-0.104
		C108.147,133.592,108.013,133.628,107.879,133.664z"/>
	<path id="XMLID_771_" class="st7" d="M110.811,133.27c-0.013,0-0.025-0.002-0.038-0.002c-0.012,0-0.024,0.002-0.036,0.002
		c0.012,0,0.023-0.002,0.035-0.002C110.786,133.269,110.798,133.27,110.811,133.27z"/>
	<path id="XMLID_768_" class="st6" d="M110.811,133.27c-0.013,0-0.025-0.002-0.038-0.002c-0.012,0-0.024,0.002-0.036,0.002
		c0.012,0,0.023-0.002,0.035-0.002C110.786,133.269,110.798,133.27,110.811,133.27z"/>
	<path id="XMLID_765_" class="st6" d="M109.116,133.406c0.136-0.021,0.271-0.047,0.409-0.062
		C109.387,133.359,109.252,133.385,109.116,133.406z"/>
	<path id="XMLID_762_" class="st6" d="M112.02,133.344c0.139,0.016,0.274,0.042,0.411,0.063
		C112.294,133.386,112.159,133.359,112.02,133.344z"/>
	<path id="XMLID_759_" class="st5" d="M114.793,137.126c-0.302-0.169-0.641-0.328-1.083-0.501l-0.111-0.04
		c-0.218-0.079-0.44-0.151-0.706-0.223c-0.085-0.022-0.169-0.046-0.262-0.067c-0.201-0.047-0.407-0.082-0.623-0.114l-0.301-0.048
		c-0.32-0.037-0.617-0.055-0.895-0.056h-0.067c-0.282,0.001-0.578,0.019-0.904,0.056l-0.3,0.048
		c-0.212,0.032-0.422,0.069-0.631,0.116l-0.293,0.076c-0.224,0.061-0.444,0.131-0.656,0.209l-0.202,0.072
		c-0.359,0.142-0.696,0.301-1.003,0.471c-1.48,0.829-2.641,2.075-3.369,3.542c-0.193,0.388,0.092,0.846,0.525,0.846h13.725
		c0.433,0,0.717-0.458,0.525-0.846C117.432,139.2,116.271,137.954,114.793,137.126z"/>
	<path id="XMLID_758_" class="st4" d="M107.941,138.772c-0.922,0.598-1.66,1.132-1.965,0.661c-0.306-0.471,0.194-1.339,1.116-1.937
		s1.917-0.701,2.223-0.229C109.621,137.738,108.863,138.174,107.941,138.772z"/>
	<path id="XMLID_757_" class="st2" d="M115.02,140.715c0.254-0.054,0.514-0.107,0.739-0.238c0.225-0.131,0.412-0.357,0.423-0.616
		c0.009-0.214-0.1-0.414-0.212-0.597c-0.655-1.072-1.532-2.006-2.551-2.74c-0.164-0.055-0.332-0.109-0.527-0.162
		c-0.085-0.022-0.169-0.046-0.262-0.067c-0.201-0.047-0.407-0.082-0.623-0.114l-0.301-0.048c-0.32-0.037-0.617-0.055-0.895-0.056
		h-0.067c-0.282,0.001-0.578,0.019-0.904,0.056l-0.3,0.047c-0.212,0.032-0.422,0.069-0.631,0.116l-0.293,0.076
		c-0.224,0.061-0.444,0.131-0.656,0.209l-0.202,0.072c-0.359,0.142-0.696,0.301-1.003,0.471c-1.48,0.829-2.641,2.075-3.369,3.542
		c-0.193,0.388,0.092,0.846,0.525,0.846h8.261C113.107,141.201,114.055,140.922,115.02,140.715z"/>
	<path id="XMLID_756_" class="st2" d="M32.97,64.982c0.089-0.297,0.173-0.605,0.239-0.917c-1.137-1.658-3.044-2.75-5.203-2.75
		c-3.477,0-6.306,2.829-6.306,6.305c0,2.657,1.654,4.93,3.984,5.857c1.294-0.546,2.575-1.121,3.644-2.019
		C31.254,69.843,32.251,67.39,32.97,64.982z"/>
	<path id="XMLID_755_" class="st2" d="M160.601,35.132c1.546-1.914,2.551-4.253,2.913-6.686c-0.098-0.168-0.272-0.286-0.48-0.286
		h-5.955h-5.745c-0.311,0-0.565,0.254-0.565,0.565v6.807v4.893c0,0.311,0.254,0.565,0.565,0.565h0.8
		c0.065-0.029,0.131-0.059,0.195-0.088C155.438,39.538,158.468,37.773,160.601,35.132z"/>
	<path id="XMLID_754_" class="st2" d="M99.017,14.551c0.218-0.632,0.001-1.323-0.215-1.956c-0.029-0.085-0.058-0.169-0.087-0.254
		l-2.024-3.124l-2.657-4.101c-0.138-0.213-0.334-0.258-0.474-0.258c-0.14,0-0.336,0.045-0.474,0.258l-6.361,9.821l-0.709,1.094
		c-0.151,0.233-0.096,0.443-0.022,0.577c0.073,0.135,0.219,0.295,0.496,0.295h5.886c1.351-0.267,2.702-0.534,4.053-0.801
		C97.465,15.896,98.672,15.549,99.017,14.551z"/>
	<path id="XMLID_751_" class="st6" d="M102.17,122.394H84.608c0.313,0.918,0.49,1.899,0.49,2.922l0,2.162h16.581l0-2.162
		C101.679,124.293,101.857,123.312,102.17,122.394z"/>
	<path id="XMLID_739_" class="st6" d="M163.034,23.302h-11.7c-2.99,0-5.423,2.433-5.423,5.423v11.7c0,2.99,2.433,5.422,5.423,5.422
		h3.017v14.755c0,12.869-9.744,23.499-22.242,24.913V47.01c0-2.759-1.836-5.216-4.46-5.974c-0.635-0.188-1.278-0.366-1.894-0.531
		c-5.834-1.608-11.693-2.82-17.41-3.602c-0.96-0.133-1.918-0.257-2.866-0.363c-2.997-0.344-6.042-0.572-9.086-0.687V21.76h4.237
		c1.988,0,3.814-1.085,4.763-2.832c0.95-1.747,0.869-3.869-0.213-5.538l-7.07-10.915C97.108,0.925,95.407,0,93.56,0
		c-1.846,0-3.547,0.925-4.551,2.474l-7.07,10.915c-1.081,1.669-1.163,3.791-0.213,5.538c0.95,1.747,2.775,2.832,4.763,2.832h4.237
		v14.018c-3.73,0.031-7.53,0.252-11.303,0.666c-0.917,0.098-1.833,0.213-2.745,0.337c-5.862,0.785-11.733,2.053-17.439,3.765
		c-0.488,0.138-0.976,0.285-1.438,0.434c-2.64,0.82-4.413,3.216-4.413,5.962v53.579c-11.723-1.18-21.086-10.468-22.389-22.156
		c4.704-1.313,8.17-5.626,8.17-10.743c0-6.155-5.007-11.162-11.163-11.162s-11.163,5.007-11.163,11.162
		c0,5.225,3.613,9.61,8.468,10.82c1.376,14.778,13.253,26.546,28.076,27.76v15.044c0,3.437,2.792,6.233,6.224,6.233h5.342h1.958
		l0-2.162c0-1.023,0.177-2.003,0.49-2.922h-7.791c-0.629,0-1.14-0.515-1.14-1.149V79.09V46.941c0-0.514,0.336-0.951,0.862-1.114
		c0.43-0.138,0.862-0.268,1.328-0.401c5.481-1.644,11.098-2.857,16.697-3.606c0.868-0.118,1.735-0.228,2.61-0.321
		c3.742-0.41,7.518-0.626,11.236-0.644c0.308-0.006,0.616-0.009,0.924-0.009c0.517,0,1.033,0.007,1.556,0.018
		c3.753,0.06,7.527,0.306,11.222,0.73c0.912,0.102,1.825,0.22,2.743,0.347c5.496,0.751,11.137,1.919,16.771,3.472
		c0.594,0.159,1.196,0.326,1.809,0.508c0.467,0.134,0.794,0.582,0.794,1.091v15.653v58.582c0,0.633-0.515,1.149-1.148,1.149h-5.144
		h-1.357c0.313,0.918,0.49,1.899,0.49,2.922l0,2.162h3.643h2.368c3.437,0,6.232-2.796,6.232-6.233V91.211
		c15.628-1.437,27.909-14.613,27.909-30.609V45.847h3.017c2.99,0,5.422-2.432,5.422-5.422v-11.7
		C168.456,25.735,166.024,23.302,163.034,23.302z M25.685,73.478c-2.331-0.927-3.984-3.2-3.984-5.857
		c0-3.477,2.829-6.305,6.306-6.305c2.158,0,4.066,1.091,5.203,2.75c0.695,1.013,1.103,2.237,1.103,3.555
		c0,3.477-2.829,6.306-6.306,6.306C27.186,73.926,26.404,73.764,25.685,73.478z M92.376,16.902H86.49
		c-0.277,0-0.423-0.161-0.496-0.295c-0.074-0.134-0.129-0.344,0.022-0.577l0.709-1.094l6.361-9.821
		c0.138-0.213,0.334-0.258,0.474-0.258c0.14,0,0.336,0.045,0.474,0.258l2.657,4.101l2.024,3.124l2.39,3.69
		c0.151,0.233,0.095,0.442,0.022,0.577c-0.074,0.135-0.219,0.295-0.497,0.295H92.376z M163.599,40.425
		c0,0.311-0.253,0.565-0.565,0.565h-10.9h-0.8c-0.311,0-0.565-0.253-0.565-0.565v-4.893v-6.807c0-0.311,0.254-0.565,0.565-0.565
		h5.745h5.955c0.208,0,0.382,0.118,0.48,0.286c0.049,0.084,0.084,0.176,0.084,0.279V40.425z"/>
	<path id="XMLID_736_" class="st6" d="M82.292,125.315c0-3.472-2.815-6.287-6.287-6.287c-3.472,0-6.287,2.815-6.287,6.287v7.192
		c0,0.005,0.001,0.009,0.001,0.014c1.876-1.004,4.015-1.576,6.287-1.576c2.272,0,4.41,0.573,6.286,1.576
		c0-0.005,0.001-0.009,0.001-0.014V125.315z"/>
	<path id="XMLID_733_" class="st6" d="M117.06,125.315c0-3.472-2.815-6.287-6.287-6.287c-3.472,0-6.287,2.815-6.287,6.287v7.192
		c0,0.005,0.001,0.009,0.001,0.014c1.876-1.004,4.015-1.576,6.287-1.576c2.271,0,4.41,0.573,6.286,1.576
		c0-0.005,0.001-0.009,0.001-0.014V125.315z"/>
	<path id="XMLID_730_" class="st8" d="M125.877,122.394c0.633,0,1.148-0.515,1.148-1.149V62.663c0,0-2.961,56.809-6.292,59.73
		H125.877z"/>
	<path id="XMLID_727_" class="st8" d="M34.312,67.621c0-1.318-0.408-2.542-1.103-3.555c-0.066,0.311-0.15,0.619-0.239,0.917
		c-0.719,2.408-1.716,4.861-3.641,6.477c-1.069,0.898-2.35,1.473-3.644,2.019c0.719,0.286,1.501,0.448,2.321,0.448
		C31.483,73.926,34.312,71.098,34.312,67.621z"/>
	<path id="XMLID_724_" class="st8" d="M160.601,35.132c-2.133,2.641-5.163,4.406-8.272,5.771c-0.065,0.028-0.13,0.059-0.195,0.088
		h10.9c0.311,0,0.565-0.253,0.565-0.565v-11.7c0-0.104-0.036-0.196-0.084-0.279C163.152,30.879,162.147,33.217,160.601,35.132z"/>
	<path id="XMLID_721_" class="st8" d="M101.127,16.607c0.073-0.135,0.129-0.344-0.022-0.577l-2.39-3.69
		c0.029,0.085,0.058,0.169,0.087,0.254c0.216,0.633,0.433,1.324,0.215,1.956c-0.344,0.998-1.552,1.346-2.588,1.55
		c-1.351,0.267-2.702,0.534-4.053,0.801h8.255C100.908,16.902,101.054,16.742,101.127,16.607z"/>
	<path id="XMLID_718_" class="st8" d="M80.025,137.125c-0.302-0.169-0.641-0.328-1.083-0.501l-0.111-0.04
		c-0.058-0.021-0.12-0.041-0.179-0.061c1.019,0.734,1.896,1.668,2.551,2.74c0.112,0.183,0.221,0.383,0.212,0.597
		c-0.011,0.26-0.198,0.486-0.423,0.616c-0.225,0.131-0.485,0.183-0.739,0.238c-0.965,0.207-1.912,0.486-2.849,0.798h5.464
		c0.433,0,0.717-0.458,0.525-0.846C82.665,139.2,81.504,137.954,80.025,137.125z"/>
	<path id="XMLID_715_" class="st8" d="M114.793,137.125c-0.302-0.169-0.641-0.328-1.083-0.501l-0.111-0.04
		c-0.058-0.021-0.12-0.041-0.179-0.061c1.019,0.734,1.896,1.668,2.551,2.74c0.112,0.183,0.221,0.383,0.212,0.597
		c-0.011,0.26-0.198,0.486-0.423,0.616c-0.225,0.131-0.485,0.183-0.739,0.238c-0.965,0.207-1.912,0.486-2.849,0.798h5.464
		c0.433,0,0.717-0.458,0.525-0.846C117.432,139.2,116.271,137.954,114.793,137.125z"/>
	<path id="XMLID_707_" class="st6" d="M116.164,134.677c-0.432-0.242-0.883-0.452-1.348-0.635c-0.085-0.034-0.173-0.063-0.259-0.095
		c-0.291-0.106-0.588-0.201-0.89-0.283c-0.134-0.036-0.268-0.073-0.404-0.104c-0.273-0.063-0.551-0.112-0.831-0.154
		c-0.137-0.021-0.272-0.047-0.411-0.063c-0.398-0.045-0.8-0.072-1.209-0.073c-0.013,0-0.025-0.002-0.038-0.002
		c-0.012,0-0.023,0.002-0.035,0.002c-0.41,0.001-0.814,0.028-1.213,0.073c-0.138,0.016-0.272,0.042-0.409,0.062
		c-0.281,0.042-0.56,0.092-0.834,0.155c-0.136,0.031-0.269,0.067-0.403,0.104c-0.302,0.082-0.599,0.177-0.89,0.283
		c-0.087,0.032-0.175,0.062-0.26,0.095c-0.464,0.183-0.914,0.392-1.346,0.634c-3.212,1.799-5.436,5.151-5.646,9.041
		c-0.018,0.328,0.257,0.603,0.586,0.603h20.899c0.329,0,0.603-0.274,0.586-0.603C121.599,139.828,119.375,136.476,116.164,134.677z
		 M103.385,140.667c0.728-1.467,1.889-2.714,3.369-3.542c0.307-0.171,0.644-0.33,1.003-0.471l0.202-0.072
		c0.212-0.079,0.432-0.148,0.656-0.209l0.293-0.076c0.209-0.047,0.419-0.084,0.631-0.116l0.3-0.047
		c0.326-0.037,0.622-0.055,0.904-0.056h0.067c0.279,0.001,0.576,0.019,0.895,0.056l0.301,0.048c0.216,0.032,0.421,0.068,0.623,0.114
		c0.093,0.021,0.177,0.045,0.262,0.067c0.194,0.053,0.363,0.106,0.527,0.162c0.06,0.02,0.121,0.04,0.179,0.061l0.111,0.04
		c0.442,0.173,0.781,0.332,1.083,0.501c1.479,0.829,2.64,2.075,3.368,3.542c0.193,0.388-0.092,0.846-0.525,0.846h-5.464h-8.261
		C103.477,141.513,103.193,141.055,103.385,140.667z"/>
	<path id="XMLID_706_" class="st7" d="M111.915,87.53c-12.844,3.584-25.688,3.584-38.531,0c-3.394-0.947-5.76-4.015-5.76-7.538
		v-10.25c0-2.896,1.615-5.537,4.165-6.91c12.999-7,26.852-6.929,41.559,0.213c2.664,1.294,4.327,4.029,4.327,6.991v9.956
		C117.675,83.515,115.309,86.583,111.915,87.53z"/>
	<circle id="XMLID_705_" class="st6" cx="83.629" cy="73.926" r="4.239"/>
	<circle id="XMLID_704_" class="st6" cx="104.828" cy="73.926" r="4.239"/>
	<g id="XMLID_701_">
		<path id="XMLID_703_" class="st9" d="M84.669,87.855c8.919,1.051,17.875,0.349,26.742-2.126h0.001
			c2.585-0.722,4.391-3.08,4.391-5.736v-3.803C112.739,79.728,104.476,86.283,84.669,87.855z"/>
		<path id="XMLID_702_" class="st9" d="M112.53,64.729c-7.218-3.506-14.123-5.259-20.809-5.259c-6.527,0-12.845,1.67-19.046,5.009
			c-0.736,0.396-1.367,0.928-1.869,1.552C89.821,58.015,112.53,64.729,112.53,64.729z"/>
	</g>
	<path id="XMLID_698_" class="st6" d="M114.166,61.363c-15.208-7.387-29.766-7.446-43.264-0.178
		c-3.176,1.71-5.149,4.989-5.149,8.557v10.25c0,4.328,2.931,8.169,7.128,9.34c6.559,1.83,13.164,2.746,19.769,2.746
		c6.605,0,13.21-0.915,19.768-2.746c4.197-1.171,7.128-5.012,7.128-9.34v-9.956C119.545,66.354,117.433,62.95,114.166,61.363z
		 M69.495,79.992v-10.25c0-1.368,0.476-2.669,1.312-3.71c0.502-0.625,1.133-1.156,1.869-1.552
		c6.201-3.339,12.519-5.009,19.046-5.009c6.686,0,13.591,1.753,20.809,5.259c1.989,0.965,3.273,3.048,3.273,5.307v6.154v3.803
		c0,2.656-1.806,5.014-4.391,5.736h-0.001c-8.867,2.475-17.823,3.177-26.742,2.126c-3.603-0.424-7.2-1.127-10.783-2.126
		C71.301,85.006,69.495,82.648,69.495,79.992z"/>
</g>
</svg>
